<svg xmlns="http://www.w3.org/2000/svg" width="529.32" height="677.082">
    <defs>
        <marker id="ArrowEnd" viewBox="0 0 10 10" refX="0" refY="5" markerUnits="strokeWidth" markerWidth="4" markerHeight="3" orient="auto">
            <path d="M 0 0 L 10 5 L 0 10 z"/>
        </marker>
        <marker id="ArrowStart" viewBox="0 0 10 10" refX="10" refY="5" markerUnits="strokeWidth" markerWidth="4" markerHeight="3" orient="auto">
            <path d="M 10 0 L 0 5 L 10 10 z"/>
        </marker>
    </defs>
    <g>
        <path style="stroke:none; fill-rule:evenodd; fill:#222222" d="M 264.676 677.078C 102.051 609.078 21.4062 555.723 21.8164 449.824L 21.8164 35.606L 0 35.606L 0 0.0280151L 29.6953 0.0280151L 29.6953 16.91L 51.9179 16.91L 51.9179 0.0780029L 81.699 0.0780029L 81.699 16.774L 103.953 16.774L 103.953 0.0899658L 133.707 0.0899658L 133.707 35.539L 113.613 35.539L 113.613 118.742L 129.445 118.742L 129.445 96.891L 156.695 96.891L 156.695 118.571L 174.031 118.571L 174.031 96.934L 200.781 96.934L 200.781 118.649L 218.098 118.649L 218.098 35.754L 196.199 35.754L 196.199 0.195984L 226.254 0.195984L 226.254 16.645L 248.367 16.645L 248.367 0.198975L 280.953 0.167969L 280.953 16.614L 303.062 16.614L 303.062 0.164001L 333.117 0.164001L 333.117 35.723L 311.223 35.723L 311.223 118.617L 328.539 118.617L 328.539 96.903L 355.289 96.903L 355.289 118.539L 372.625 118.539L 372.625 96.86L 399.875 96.86L 399.875 118.711L 415.707 118.711L 415.707 35.508L 395.613 35.508L 395.613 0.059021L 425.367 0.059021L 425.367 16.742L 447.621 16.742L 447.621 0.0509644L 477.402 0.0509644L 477.402 16.883L 499.625 16.883L 499.625 0L 529.32 0L 529.32 35.578L 507.504 35.578L 507.504 449.797C 507.91 555.692 427.27 609.051 264.644 677.082"/>
        <path style="stroke:none; fill-rule:evenodd; fill:#ffffff" d="M 26 452.121L 26 447.379L 502.93 447.379L 502.93 449.477C 501.969 568.418 396.644 613.946 264.844 672.508C 108.898 609.508 26.6523 553.313 26 452.121"/>
        <path style="stroke:none; fill-rule:evenodd; fill:#ec2a32" d="M 26.082 122.817L 65.9843 122.817L 65.9843 140.422L 26.082 140.422L 26.082 122.817zM 503.27 122.785L 463.367 122.785L 463.367 140.391L 503.27 140.391L 503.27 122.785zM 26.082 166.438L 65.9843 166.438L 65.9843 184.043L 26.082 184.043L 26.082 166.438zM 503.27 166.407L 463.367 166.407L 463.367 184.012L 503.27 184.012L 503.27 166.407zM 26.082 210.055L 65.9843 210.055L 65.9843 227.66L 26.082 227.66L 26.082 210.055zM 503.27 210.024L 463.367 210.024L 463.367 227.629L 503.27 227.629L 503.27 210.024zM 70.184 122.817L 136.094 122.817L 136.094 140.422L 70.184 140.422L 70.184 122.817zM 459.164 122.785L 393.254 122.785L 393.254 140.391L 459.164 140.391L 459.164 122.785zM 104.027 144.59L 224.832 144.59C 219.094 149.035 216.437 156.727 216.398 162.199L 104.027 162.199L 104.027 144.59zM 425.32 144.559L 304.516 144.559C 310.254 149.004 312.91 156.696 312.949 162.168L 425.32 162.168L 425.32 144.559zM 104.027 188.321L 217.394 188.321L 217.394 205.926L 104.027 205.926L 104.027 188.321zM 425.32 188.289L 311.953 188.289L 311.953 205.895L 425.32 205.895L 425.32 188.289zM 70.184 166.438L 136.094 166.438L 136.094 184.043L 70.184 184.043L 70.184 166.438zM 459.164 166.407L 393.254 166.407L 393.254 184.012L 459.164 184.012L 459.164 166.407zM 70.184 210.055L 136.094 210.055L 136.094 227.66L 70.184 227.66L 70.184 210.055zM 459.164 210.024L 393.254 210.024L 393.254 227.629L 459.164 227.629L 459.164 210.024zM 31.5742 101.008L 26.082 101.008L 26.082 118.614L 31.5742 118.614L 31.5742 101.008zM 497.773 100.977L 503.266 100.977L 503.266 118.582L 497.773 118.582L 497.773 100.977zM 31.5742 144.625L 26.082 144.625L 26.082 162.231L 31.5742 162.231L 31.5742 144.625zM 497.773 144.594L 503.266 144.594L 503.266 162.199L 497.773 162.199L 497.773 144.594zM 31.5742 188.246L 26.082 188.246L 26.082 205.852L 31.5742 205.852L 31.5742 188.246zM 497.773 188.215L 503.266 188.215L 503.266 205.821L 497.773 205.821L 497.773 188.215zM 109.441 101.008L 103.949 101.008L 103.949 118.614L 109.441 118.614L 109.441 101.008zM 419.906 100.977L 425.398 100.977L 425.398 118.582L 419.906 118.582L 419.906 100.977zM 35.7734 101.008L 99.746 101.008L 99.746 118.614L 35.7734 118.614L 35.7734 101.008zM 493.574 100.977L 429.602 100.977L 429.602 118.582L 493.574 118.582L 493.574 100.977zM 35.7734 144.625L 99.746 144.625L 99.746 162.231L 35.7734 162.231L 35.7734 144.625zM 493.574 144.594L 429.602 144.594L 429.602 162.199L 493.574 162.199L 493.574 144.594zM 35.7734 188.246L 99.746 188.246L 99.746 205.852L 35.7734 205.852L 35.7734 188.246zM 493.574 188.215L 429.602 188.215L 429.602 205.821L 493.574 205.821L 493.574 188.215zM 133.867 101.051L 152.504 101.051L 152.504 118.649L 133.867 118.649L 133.867 101.051zM 395.48 101.024L 376.844 101.024L 376.844 118.621L 395.48 118.621L 395.48 101.024zM 178.203 101.051L 196.66 101.051L 196.66 118.649L 178.203 118.649L 178.203 101.051zM 351.144 101.024L 332.687 101.024L 332.687 118.621L 351.144 118.621L 351.144 101.024zM 140.402 122.817L 212.223 122.817L 212.223 140.422L 140.402 140.422L 140.402 122.817zM 388.945 122.785L 317.125 122.785L 317.125 140.391L 388.945 140.391L 388.945 122.785zM 140.402 166.364L 212.223 166.364L 212.223 183.969L 140.402 183.969L 140.402 166.364zM 388.945 166.332L 317.125 166.332L 317.125 183.938L 388.945 183.938L 388.945 166.332zM 140.402 210.09L 212.223 210.09L 212.223 227.696L 140.402 227.696L 140.402 210.09zM 388.945 210.059L 317.125 210.059L 317.125 227.664L 388.945 227.664L 388.945 210.059zM 232.273 101.223L 296.246 101.223L 296.246 118.828L 232.273 118.828L 232.273 101.223zM 305.941 101.223L 300.449 101.223L 300.449 118.828L 305.941 118.828L 305.941 101.223zM 228.074 101.223L 222.582 101.223L 222.582 118.828L 228.074 118.828L 228.074 101.223zM 216.402 122.793L 262.391 122.793L 262.391 140.512L 216.402 140.512L 216.402 122.793zM 312.945 122.758L 266.957 122.758L 266.957 140.477L 312.945 140.477L 312.945 122.758zM 221.578 210.196L 237.504 218.157L 237.504 227.711L 221.574 227.711L 221.578 210.192L 221.578 210.196zM 307.77 210.164L 291.844 218.125L 291.844 227.68L 307.773 227.68L 307.77 210.16L 307.77 210.164zM 237.504 213.977L 221.578 206.016L 221.578 166.789L 237.504 174.157L 237.504 213.973L 237.504 213.977zM 291.844 213.946L 307.77 205.985L 307.77 166.762L 291.844 174.129L 291.844 213.946zM 237.504 170.574L 221.18 161.817C 221.113 155.051 226.621 144.766 237.703 144.696L 248.652 159.028C 243.609 161.813 239.891 165.664 237.504 170.574zM 291.844 170.543L 308.168 161.785C 308.23 155.02 302.727 144.735 291.644 144.664L 280.695 158.996C 285.738 161.781 289.457 165.633 291.844 170.543zM 252.637 158.231L 242.484 144.696L 286.863 144.664L 276.711 158.199L 252.641 158.231L 252.637 158.231zM 4.332 4.15698L 25.5117 4.15698L 25.5117 21.461L 56.1797 21.461L 56.1797 4.26599L 77.512 4.26599L 77.512 21.574L 108.156 21.574L 108.156 4.31299L 129.488 4.31299L 129.488 31.235L 4.3242 31.235L 4.3242 4.15997L 4.332 4.15698zM 525.016 4.125L 503.836 4.125L 503.836 21.434L 473.168 21.434L 473.168 4.23901L 451.836 4.23901L 451.836 21.547L 421.191 21.547L 421.191 4.28101L 399.859 4.28101L 399.859 31.203L 525.023 31.203L 525.023 4.125L 525.016 4.125zM 26.082 35.578L 65.9843 35.578L 65.9843 53.188L 26.082 53.188L 26.082 35.578zM 503.27 35.547L 463.367 35.547L 463.367 53.153L 503.27 53.153L 503.27 35.547zM 26.082 79.199L 65.9843 79.199L 65.9843 96.805L 26.082 96.805L 26.082 79.199zM 503.27 79.164L 463.367 79.164L 463.367 96.77L 503.27 96.77L 503.27 79.164zM 70.184 35.578L 109.602 35.578L 109.602 53.188L 70.184 53.188L 70.184 35.578zM 459.164 35.547L 419.746 35.547L 419.746 53.153L 459.164 53.153L 459.164 35.547zM 70.184 79.199L 109.602 79.199L 109.602 96.805L 70.184 96.805L 70.184 79.199zM 459.164 79.164L 419.746 79.164L 419.746 96.77L 459.164 96.77L 459.164 79.164zM 54.5156 57.387L 81.172 57.387L 81.172 74.992L 54.5156 74.992L 54.5156 57.387zM 474.836 57.356L 448.18 57.356L 448.18 74.961L 474.836 74.961L 474.836 57.356zM 31.5742 57.387L 26.082 57.387L 26.082 74.992L 31.5742 74.992L 31.5742 57.387zM 497.773 57.356L 503.266 57.356L 503.266 74.961L 497.773 74.961L 497.773 57.356zM 109.441 57.387L 103.949 57.387L 103.949 74.992L 109.441 74.992L 109.441 57.387zM 419.906 57.356L 425.398 57.356L 425.398 74.961L 419.906 74.961L 419.906 57.356zM 305.941 57.602L 300.449 57.602L 300.449 75.207L 305.941 75.207L 305.941 57.602zM 228.074 57.602L 222.582 57.602L 222.582 75.207L 228.074 75.207L 228.074 57.602zM 251.016 57.602L 277.672 57.602L 277.672 75.207L 251.016 75.207L 251.016 57.602zM 266.684 79.414L 306.102 79.414L 306.102 97.02L 266.684 97.02L 266.684 79.414zM 266.684 35.793L 306.102 35.793L 306.102 53.399L 266.684 53.399L 266.684 35.793zM 222.582 79.414L 262.484 79.414L 262.484 97.02L 222.582 97.02L 222.582 79.414zM 222.582 35.793L 262.484 35.793L 262.484 53.399L 222.582 53.399L 222.582 35.793zM 200.832 4.375L 222.012 4.375L 222.012 21.68L 252.68 21.68L 252.68 4.48499L 276.879 4.48499L 276.879 21.793L 307.371 21.793L 307.371 4.53101L 328.855 4.53101L 328.855 31.453L 200.824 31.453L 200.824 4.375"/>
        <path style="stroke:none; fill-rule:evenodd; fill:#0fb1ee" d="M 342.156 583.934L 181.527 583.934C 159.59 584.078 132.117 567.629 100.855 539.813C 129.383 512 156.496 495.543 181.527 495.688L 342.156 495.688C 364.023 495.723 392.219 509.485 428.07 539.813C 396.047 568.063 367.191 583.645 342.156 583.934zM 168.934 536.75L 191.144 536.75C 195.469 523.867 226.734 513.817 264.461 513.817C 302.184 513.817 333.449 523.867 337.773 536.75L 359.992 536.75C 358.469 520.153 344.68 507.047 328.031 507.047L 200.891 507.047C 184.246 507.047 170.453 520.153 168.93 536.75L 168.934 536.75zM 360 542.867L 337.781 542.867C 333.461 555.75 302.195 565.801 264.469 565.801C 226.746 565.801 195.477 555.75 191.152 542.867L 168.941 542.867C 170.461 559.469 184.254 572.571 200.902 572.571L 328.043 572.571C 344.687 572.571 358.48 559.469 360.004 542.867L 360 542.867zM 502.93 447.379L 26 447.379L 26 231.801L 502.93 231.801L 502.93 447.379"/>
        <path style="stroke:none; fill-rule:evenodd; fill:#ffffff" d="M 342.156 383.543L 181.527 383.543C 159.59 383.684 132.117 367.235 100.855 339.418C 129.383 311.606 156.496 295.149 181.527 295.293L 342.156 295.293C 364.023 295.328 392.219 309.09 428.07 339.418C 396.047 367.668 367.191 383.25 342.156 383.543zM 168.934 336.36L 191.144 336.36C 195.469 323.477 226.734 313.426 264.461 313.426C 302.184 313.426 333.449 323.477 337.773 336.36L 359.992 336.36C 358.469 319.762 344.68 306.653 328.031 306.653L 200.891 306.653C 184.246 306.653 170.453 319.758 168.93 336.36L 168.934 336.36zM 360 342.477L 337.781 342.477C 333.461 355.36 302.195 365.41 264.469 365.41C 226.746 365.41 195.477 355.36 191.152 342.477L 168.941 342.477C 170.461 359.078 184.254 372.18 200.902 372.18L 328.043 372.18C 344.687 372.18 358.48 359.078 360.004 342.477"/>
    </g>
</svg>