<svg xmlns="http://www.w3.org/2000/svg" width="736" height="866">
    <path d="M0.1 0L0 519.7 0 520.1C1.8 665.7 128.3 866.3 368.2 866.3 598.9 866.3 735.2 680.3 736.2 519.7L736.4 0 0.1 0z" style="stroke-linecap:round;stroke-linejoin:round;stroke-width:4"/>
    <path d="M5.9 5.1L5.8 518.7 5.8 519.1C6.9 612.5 59.8 728.8 161.4 798.9 189.8 758.6 224.3 730.1 261.5 712.1 261.5 706.2 262.3 700.4 265.5 694.6 270.2 685.9 276.1 670.1 281.3 657.8 282.4 641.8 280.7 626.7 284.8 609.8 289.1 583.3 275 568.8 280.7 529.6 270.2 524.5 268.5 514.5 272.3 503.3 262.7 497.8 257.9 483.4 263.3 468 266.5 455.7 262.1 440.9 263.8 423 250.9 409.2 256.9 382.7 259.6 371.3 264.9 351.8 262.3 334.9 263.3 316.8L261.2 317.2C256.1 297.1 265.9 287.8 269.3 273.9 274.1 259.9 279 245.7 284.8 231.1L276.6 148C269.1 147.2 268.4 135.7 273.9 132.3L273.4 124.5 255.7 125.5 254.8 104.8 269.8 103.9 268.1 81.6C260.8 78.8 263.4 66.5 273.8 66.8 283 66.7 284.5 76.9 281.3 79L283.5 102.6 301.9 102.1 303.4 121.6 286.6 122.9 287.1 131C294.6 132.3 296 144.5 289.4 147.5L295.7 200.5 304.9 195.1C302.4 189.8 301.7 183.7 304.1 176.3 306 171 299.8 172 300.6 167.3 303.3 156.3 307.8 148.4 307.1 132.1 311.6 126.3 313.8 119.4 315.2 112 317.2 106.5 320.4 102.4 324.6 99.6 319 78.5 312.4 59 300 43.2 303.2 42.6 308.1 40.5 313.9 43.9 315.9 39.8 324.9 38.3 326.1 47.8 335.9 51.2 334.8 57.5 329.2 60.8 326.3 63.1 325.5 67.5 329.6 70 337.2 73.7 337.9 66.4 340.9 62.2 344.5 73.5 351.9 72.6 354.5 70.3 355.9 69.1 357.2 62.4 349.9 60.6 336.6 56.9 342.4 48.3 347.9 45.4 347.5 39.9 346.9 34.8 355 35.2 355.8 32.5 356.4 28.7 361.4 27.6 364.9 28.4 367.7 30.2 367.7 35.7 372.4 37.1 375.7 40.1 375.6 47.3 383.6 49.9 382.5 59.8 374.3 62.3 366.7 65.8 369.7 70.2 371.4 71.1 375.4 73.1 377.3 73.8 384.1 63.6 387.1 66.9 382.2 75.2 394.2 72.8 398.6 68.9 396.9 66 394.4 63.2 387.6 59.4 389.9 49.9 397.4 49 398.4 41.6 403.4 38.5 409.8 46 411.6 41.5 418.6 45.1 423.8 44.4 411.3 62.3 403 83.8 399.6 101.3 398.8 107.1 402.8 106.6 403.9 115 414.8 119 415.8 133 416.3 147.6 415.1 149.3 414 151.2 415.4 154 417.9 159.8 416 161.9 415 164.7 413.5 169.1 411.4 173.6 415 177.6 419.3 183.5 421 188.8 422.1 193.1 425.8 193.4 428.2 195.4 430.3 197.8 432.9 197 435.5 196.4 438.1 197.7 440.9 197.9 441.3 195.3 442 193 437.5 191.8 436.8 186.4 437.7 179.3 435.3 169.8 434.7 160.6 440.3 152.3 439 145.8 438.5 138.3 434.3 136.4 426.5 128.4 432.3 118.1 433.8 108.6 437.8 116.3 446.5 119.6 443.3 133 445.9 133.8 447.3 129.8 448.8 126.6 451.1 129.3 452.6 133.9 457.4 129.6 452.4 127.7 452.2 120.2 453.8 117.7 457.3 113.2 461.5 109 462.6 103.4 464.8 110.2 471 112 473.1 119.4 473.4 129 467.3 128.3 468.5 130.9 471.1 133.9 475.2 132.9 477.3 126.3 478.2 129.3 477.8 132.6 482.7 132.6 479.7 119.6 491 121 499 109.9 499.6 122.1 497.3 132 492.1 139.4 489.1 141.7 488.5 147 487.5 151.8 488.8 155.7 491.9 157.1 490.8 164.3 490.1 167.5 488.8 171.2 491.2 172.4 498.6 185.4 486 187.8 482.2 188.2L482.7 191.7C507.2 202 497.7 225.9 490 235.4 487.2 240.3 488.5 245.8 490 251.2 494 267.5 488.1 272 484 278.6 484.2 283.1 483.1 289.5 485.2 291.1 495.2 301.1 491.6 327.1 493.4 346.7 497 353.8 497.9 359.7 492.5 363 493.4 379.2 490.8 413.1 494.3 414.2 493.8 417 493.9 417.2 490.8 422.1 486 428.6 482.3 435 484.4 441 484.9 445 487.6 448.9 482.7 453.4 480 465.2 481.2 480.5 480.5 494.1 483.8 536.9 483 543.5 469.1 553.1 471.1 565.5 467.4 571.5 459.3 579.2 454.8 599 460 622.5 444.1 638.1L442.4 681.3C441.9 684.8 441.8 687.5 444.6 689.5 449.2 692.3 449 696.8 448 701.6 499 718.8 545.2 751.8 578 797.7 675.6 730.2 729.8 619.4 730.4 518.7L730.6 5.1 5.9 5.1zM75.4 152.6L85.5 157.7 103.5 241.9C108.4 259.1 116.4 260.2 118.2 273.1 124.1 271.1 127.4 265.6 126.4 254.3L108.1 168.3 121.4 175.6 136 256.7C137.8 268.5 140.9 283.8 138.3 294.3L142.1 290.3C149.8 304.5 148.5 319.3 145.8 334.1 148.1 333.1 150.8 330.7 152.6 332L125.9 177.9 137.4 184.4 176.9 409.4C175.9 420.9 177.9 432.1 168.2 444.2 165.4 448 161.9 451.1 162.6 457.8L169 484.2C174.6 462.5 176.7 418 195.8 415.5 221.5 419 228.7 509.7 219.7 551.8 218 516 206.4 435.2 192.8 434.2 182.6 450.3 182.3 479.6 179.7 505.7 179.1 513.2 179.2 519.9 181.1 524.9L198 588.3C199.7 601 208.5 605.3 210.8 619.1 198.9 616.4 191 609.3 187.2 597.9 178.1 546.8 135.1 489.3 116.8 483.3 112.3 491.7 138.5 565.8 150.2 592.7 145.3 586.6 81.7 488.5 106.5 468.8 128.6 463.7 149.9 500.6 165 519.7 161 500.7 156.2 483.9 151.6 466.7 149.1 456.3 144.3 454.5 138.1 451.9 129.7 447 122.7 437.5 116.8 425.1L31.9 199.4 40.6 190 93.4 334.3 98.1 335.2C90.9 328.7 85.2 310.8 88.3 299.2 71.1 266.5 58.3 223.3 43.4 185.3L53.2 175.1 82.9 265.1C84.7 271.3 90.4 273.5 96.5 275.4 96.1 274.1 95.8 272.8 95.7 271.6 91.3 268.1 86.5 265.9 84.4 255.6L55.9 172.2 65.7 161.9 91.6 245.2C94.3 253.7 91.7 260.8 95.7 261.3L95.7 264.1C96.2 258.8 97.3 253.3 96 247.1L67.9 159.6 75.4 152.6zM656.3 153.6L662.6 160.4 635.3 247.1C634.2 252.2 634.8 256.8 635.3 261.3 639.3 260.7 636.6 253.6 639.4 245.2L665.2 161.9 675.1 172.2 646.6 255.6C644.5 265.6 639.9 267.9 635.6 271.3 635.5 272.6 635.3 274 634.8 275.4 640.9 273.5 646.6 271.3 648.4 265.1L678.1 175.1 687.9 185.3C673 223.3 660.2 266.5 643 299.2 646.1 310.8 639.1 323.1 633.2 335.2L637.9 334.3 691.5 189.6 699.4 199.4 614.5 425.1C608.5 437.5 601.6 447 593.2 451.9 587 454.5 582.2 456.3 579.6 466.7 575.1 483.9 570.3 500.7 566.3 519.7 581.4 500.6 602.7 463.7 624.8 468.8 649.5 488.5 586 586.6 581.1 592.7 592.8 565.8 619 491.7 614.5 483.3 596.2 489.3 553.2 546.8 544.1 597.9 540.3 609.3 532.4 616.4 520.5 619.1 522.8 605.3 531.6 601 533.4 588.3L550.2 524.9C552.1 519.9 552.2 513.2 551.6 505.7 548.9 479.6 548.7 450.3 538.5 434.2 524.9 435.2 513.3 516 511.6 551.8 502.6 509.7 509.8 419 535.5 415.5 554.6 418 556.6 462.5 562.3 484.2L568.6 457.8C569.4 451.1 565.9 448 563.1 444.2 553.3 432.1 555.4 420.9 554.4 409.4L593.9 184.4 605.4 177.9 578.7 332C580.5 330.7 583.2 333.1 585.5 334.1 582.8 319.3 581.5 304.5 589.2 290.3L593 294.3C592.3 280.7 593.5 268.5 595.3 256.7L610.1 174.8 623.1 168.3 604.9 254.3C603.9 265.6 607.2 271.1 613.1 273.1 614.9 260.2 622.9 259.1 627.8 241.9L645.6 158.5 656.3 153.6zM90.5 160.1L104.3 166.7 119.3 247.6C122.4 257.6 121 265.4 116.7 266.1L112.1 258.1C113.9 254.8 109.6 250.8 107.9 242.1L90.5 160.1zM640.2 161.1L623.1 242.1C621.3 250.8 617.1 254.8 618.9 258.1L614.2 266.1C610 265.4 608.5 257.6 611.7 247.6L626.3 167.8 640.2 161.1zM447.6 202.7C439.6 202.6 433.7 205 433.1 213.9 442.6 214.3 446 220 444.1 229.9 450.8 228.7 455.4 231.3 459.9 225 456.5 222.9 452.8 222 448.8 222.2 446.7 216.8 444.4 211.5 450.4 206.7 451.7 205.5 451.3 204.2 451.1 202.9 449.9 202.8 448.7 202.7 447.6 202.7z" style="fill:#01baf3;stroke-linecap:round;stroke-linejoin:round;stroke-width:3"/>
    <path d="M165.5 801.9C219.5 837.7 288.1 861.2 368.2 861.2 449.2 861.2 518.3 837.8 573.9 800.5L573.8 799.8C467.9 656.3 263.8 659.3 165.5 801.9z" style="fill:#fed325;stroke-linecap:round;stroke-linejoin:round;stroke-width:3"/>
        <path d="M121.5 329.8C120.3 332.9 119.6 334.2 118.7 337 105.5 321.8 107.1 303.6 112.5 294.2 119.8 298.9 129.8 311.8 128.2 334 125.8 332.2 123.8 330.9 121.5 329.8z" style="fill-rule:evenodd;fill:#fed325;stroke-width:2"/>
        <path d="M95.8 264.2L95.3 268.7C91.4 268.4 88.3 262.8 87.2 260.3L58 173 65.7 165.3 91.4 250.1C91.2 256.1 92.1 262.5 95.8 264.2z" style="fill-rule:evenodd;fill:#fed325;stroke-width:2"/>
        <path d="M76.3 156L70.8 161.6C92 231.9 100.5 245.1 98.6 258 95.9 268.5 97.2 284.2 108.2 296.9 109.3 293.4 109.4 292.7 111.3 289.6 114.3 290.8 116.1 292 118.1 294.6 119.5 276.4 112.4 261.7 106.1 254.8 100.9 249.8 91.8 191.5 84.2 159L76.3 156z" style="fill-rule:evenodd;fill:#fed325;stroke-width:2"/>
        <path d="M113.5 258.4L116.9 263.5C120.2 263.1 118.7 255.3 118.5 253.4L102.9 168.5 93 163.3 110.8 246.3C113.3 248.8 114.5 254.6 113.5 258.4z" style="fill-rule:evenodd;fill:#fed325;stroke-width:2"/>
        <path d="M52.6 178.6L81.4 266.4C85.7 274.3 92.7 277 96.2 278.2 97.1 285.6 101.8 292 107.3 298.7 106.6 303 105.9 307.8 105.8 311.4 89.7 301.7 90.1 302 77 270.9L45.9 186.2 52.6 178.6z" style="fill-rule:evenodd;fill:#fed325;stroke-width:2"/>
        <path d="M110.5 171.7L128.7 256.1C128.8 265 126.5 272.9 119.1 275.7 120.2 283 120.8 288.6 119.8 297.1 122.4 300.6 125.4 305.8 127.2 309 136.5 297.2 140.8 293.7 134.4 260.8L120 177.2 110.5 171.7z" style="fill-rule:evenodd;fill:#fed325;stroke-width:2"/>
        <path d="M130.3 361.7C129.1 363.5 128.1 366.1 127.5 368.8 116.2 359.5 117.8 341.8 123 332.7 130 337.2 140.1 348.9 137.1 365.6 134.5 363.8 133.1 362.8 130.3 361.7z" style="fill-rule:evenodd;fill:#fed325;stroke-width:2"/>
        <path d="M140.7 399.7C138.7 402.6 138.9 404.6 137.9 406.8 124.8 391.6 126.2 373.6 131.6 364.1 138.9 368.8 148.8 381.7 147.2 404 145.1 401.9 143 400.4 140.7 399.7z" style="fill-rule:evenodd;fill:#fed325;stroke-width:2"/>
        <path d="M155.2 452.8C153.3 455.7 150.5 449.9 148.9 445.9 135.7 430.7 136.8 412.1 142.2 402.6 149.4 407.3 159.4 420.7 157.7 443 158.3 447.1 158.1 453.9 155.2 452.8z" style="fill-rule:evenodd;fill:#fed325;stroke-width:2"/>
        <path d="M106.1 314.3C107.1 323 110.9 332 117.8 339.5 117.3 341.7 117 343.9 116.8 346.1 91.2 334.3 91 318.5 88.8 303 94.7 306.1 100.5 309.6 106.1 314.3z" style="fill-rule:evenodd;fill:#fed325;stroke-width:2"/>
        <path d="M128.3 311.9C130.7 320.3 131.5 326.9 130.6 336.1 131.9 337.8 134 341.3 135.1 343.2 150.8 334 146.4 302.8 141.3 293.7 137.3 299 131.5 306.1 128.3 311.9z" style="fill-rule:evenodd;fill:#fed325;stroke-width:2"/>
        <path d="M95.4 336.9C101.3 339.3 109.9 344.6 116.4 349.2 116.5 357.1 120.5 365.9 126.7 371.9 126.2 375 125.5 377.7 125.6 380.6 104.2 373.8 103.6 360.4 95.4 336.9z" style="fill-rule:evenodd;fill:#fed325;stroke-width:2"/>
        <path d="M137.4 346.3C142.5 340.4 147.6 335 153 333.8 157 351.7 161.1 362.4 144.9 377.5 143.8 374.5 141.2 370.9 139 367.5 140.1 359.9 140 352.8 137.4 346.3z" style="fill-rule:evenodd;fill:#fed325;stroke-width:2"/>
        <path d="M108.6 374C114.5 377.1 120.1 380.4 125.5 383.8 126.4 393.4 131.8 401.7 137.1 409.9 136.6 412.3 136.4 414.8 136.2 417.4 114.2 405 112.5 389.3 108.6 374z" style="fill-rule:evenodd;fill:#fed325;stroke-width:2"/>
        <path d="M157.3 364.2C153.8 369.7 150.6 375.7 146.3 379.6 149.2 387.7 149.7 396.8 149.2 405.5 150.5 407.4 151.8 408.9 153.1 411.6 167.1 400.7 162.4 379.9 157.3 364.2z" style="fill-rule:evenodd;fill:#fed325;stroke-width:2"/>
        <path d="M128.5 181.4L164.8 380.2C166.7 394.4 162.7 405.7 155.2 413.6 160.6 423.6 160.5 434.5 160.6 445.4 161 447 148.3 450.8 145.7 448.8 140.8 441.1 135.9 432.2 135.6 419.5 126.2 415.2 118.9 408.4 113.7 398.8L40.5 193 34.5 199.9 116 414.7C122.5 436.1 133.4 445.1 145 452.5 150.8 453.8 152.7 460.1 154.7 466.4L172.8 535.8C157.9 512.8 143.9 488.7 122.7 473.5 116.2 470.8 105.3 465.1 103 482 107 513.1 126.8 553.7 134.7 562.4 133.6 554.2 115.2 512.8 114.4 478.5 132.5 490 148 507.9 161.7 528.3 176 547.8 183.5 573.9 189.7 593.2 191.4 591.4 193.7 591.7 196.3 593 190.1 568.6 186.4 553.2 178.6 526.3 173.5 511.1 182.6 446.1 193.4 428.1 195.7 427 206.2 453.8 209.5 465.9 214.5 483.8 216.3 500.4 219.4 519.4 221.7 501.6 221.4 453.8 204.7 425.6 200.2 417.2 193.4 414.3 187.5 424.8 174.7 448.8 174.6 473.1 170.1 498.5L161.4 462.6C159.4 455.6 158.6 449.9 165.2 443.2 177.9 432.4 173.4 398.8 170.7 386.9L135.2 185.6 128.5 181.4z" style="fill-rule:evenodd;fill:#fed325;stroke-width:2"/>
        <path d="M202.9 611.5C204.5 610.8 198 589.9 191.1 594.8 186.5 598 200 612.4 202.9 611.5z" style="fill-rule:evenodd;fill:#fed325;stroke-width:2"/>
      <g stroke-width="2">
        <path d="M610.6 329.8C611.8 332.9 612.5 334.2 613.4 337 626.5 321.8 625 303.6 619.6 294.2 612.3 298.9 601.5 312 603.2 334.3 605.4 332.1 607.7 329.9 610.6 329.8z" style="fill-rule:evenodd;fill:#fed325;stroke-width:2"/>
        <path d="M637.2 261.9L637.9 266.9C641.7 266.7 641.4 264.1 643.2 260.9L673 172.4 666.4 165.3 639.4 250.8C639.5 256.8 641 260.1 637.2 261.9z" style="fill-rule:evenodd;fill:#fed325;stroke-width:2"/>
        <path d="M655.7 156L661.3 161.6C652.7 189.2 630.5 249.9 632.9 259.6 635.6 270.1 634.9 284.2 623.9 296.9 622.8 293.4 622.7 292.7 620.7 289.6 617.8 290.8 616 292 614 294.6 612.6 276.4 618 262.4 624.3 255.5 635.4 223 640.3 191.5 647.9 159L655.7 156z" style="fill-rule:evenodd;fill:#fed325;stroke-width:2"/>
        <path d="M618.1 261.5L616.1 265.3C612.8 265 611.5 259.9 611.7 258.1L628.3 168.3 638.4 163.7 619.6 250.1C617.1 252.6 615.1 259.5 618.1 261.5z" style="fill-rule:evenodd;fill:#fed325;stroke-width:2"/>
        <path d="M679.3 178.5L650.7 266.4C646.4 274.3 636.3 276.3 634.6 278.5 633.7 286 630.3 292 624.8 298.7 625.5 303 625.4 307.5 625.5 311.1 637.4 303.1 641.6 301.3 655.1 270.9L686.2 186.2 679.3 178.5z" style="fill-rule:evenodd;fill:#fed325;stroke-width:2"/>
        <path d="M621.4 170.8L603.7 258.9C603.6 267.8 605.9 271.9 612.4 277 611.3 284.3 611.1 288.3 612.1 296.9 609.5 300.3 606.5 306.4 604.8 309.6 595.4 297.7 591.3 293.7 597.7 260.8L611.8 175.4 621.4 170.8z" style="fill-rule:evenodd;fill:#fed325;stroke-width:2"/>
        <path d="M601.8 361.7C603 363.5 604 366.1 604.6 368.8 615.9 359.5 614.3 341.8 609.1 332.7 602 337.2 592 348.9 595 365.6 597.6 363.8 599 362.8 601.8 361.7z" style="fill-rule:evenodd;fill:#fed325;stroke-width:2"/>
        <path d="M591.4 399.7C593.3 402.6 593.2 404.6 594.2 406.8 607.3 391.6 605.8 373.6 600.5 364.1 593.2 368.8 583.2 381.7 584.9 404 587 401.9 589.1 400.4 591.4 399.7z" style="fill-rule:evenodd;fill:#fed325;stroke-width:2"/>
        <path d="M603.9 180.5L595.1 185.2 561.4 386.9C558.7 398.8 554.1 432.4 566.9 443.2 573.5 449.9 572.7 455.6 570.7 462.6L562 498.5C557.5 473.1 557.4 448.8 544.6 424.8 538.6 414.3 531.9 417.2 527.4 425.6 510.7 453.8 510.4 501.6 512.6 519.4 515.7 500.4 517.6 483.8 522.5 465.9 525.9 453.8 536.4 427 538.7 428.1 549.5 446.1 558.6 511.1 553.5 526.3 545.7 553.2 542 568.6 535.8 593 538.3 591.7 540.7 591.4 542.4 593.2 548.6 573.9 556.1 547.8 570.4 528.3 584.1 507.9 599.6 490 617.7 478.6 616.9 512.8 598.5 554.2 597.4 562.4 605.3 553.7 625.1 513.1 629.1 482 626.8 465.2 615.9 470.8 609.4 473.6 588.2 488.7 574.2 512.8 559.3 535.8L577.4 466.4C579.4 460.1 581.3 453.8 587.1 452.5 598.6 445.1 609.6 436.1 616.1 414.7L696.8 200.2 692 192.8C667.5 261.5 641.7 327.8 618.4 398.8 613.2 408.4 605.9 415.1 596.5 419.5 596.2 432.2 591.5 440.8 585 449.1 584.2 449.7 583.8 449.5 581.7 449.2 582.3 448.1 582.8 447 583.2 445.9 596.3 430.7 595.3 412.1 589.9 402.6 582.7 407.3 572.7 420.7 574.4 443 574.2 444.2 574.1 445.8 574.1 447.2 572.5 446.5 571.4 445.8 571.5 445.4 571.5 434.5 571.5 423.6 576.9 413.6 569.4 405.6 565.4 394.4 567.3 380.2L603.9 180.5z" style="fill-rule:evenodd;fill:#fed325;stroke-width:2"/>
        <path d="M626 314.3C625 323 621.2 332 614.3 339.5 614.8 341.7 615.1 343.9 615.3 346.1 636.7 338.2 639.7 317.4 642 301.9 636.9 306.1 631.6 309.6 626 314.3z" style="fill-rule:evenodd;fill:#fed325;stroke-width:2"/>
        <path d="M603.8 311.9C601.4 320.3 600.6 326.9 601.5 336.1 600.2 337.8 598.1 341.3 597 343.2 581.3 334 585.7 302.8 590.8 293.7 594.8 299 600.6 306.1 603.8 311.9z" style="fill-rule:evenodd;fill:#fed325;stroke-width:2"/>
        <path d="M634.5 338.8C628.6 341.1 622.2 344.6 615.7 349.2 615.6 357.1 611.5 365.9 605.4 371.9 605.9 375 606.6 377.7 606.5 380.6 626.8 372.4 631.3 358 634.5 338.8z" style="fill-rule:evenodd;fill:#fed325;stroke-width:2"/>
        <path d="M594.7 346.3C589.6 340.4 584.5 335 579.1 333.8 573.7 349 573.3 363 587.2 377.5 588.3 374.5 590.9 370.9 593.1 367.5 592 359.9 592.1 352.8 594.7 346.3z" style="fill-rule:evenodd;fill:#fed325;stroke-width:2"/>
        <path d="M623.5 374C617.6 377.1 612 380.4 606.6 383.8 605.7 393.4 600.3 401.7 595 409.9 595.4 412.3 595.7 414.8 595.9 417.4 617.9 405 619.6 389.3 623.5 374z" style="fill-rule:evenodd;fill:#fed325;stroke-width:2"/>
        <path d="M574 362.4C577.5 367.9 581.5 375.7 585.8 379.6 582.9 387.7 582.4 396.8 582.9 405.5 581.6 407.4 580.3 408.9 579 411.6 565 400.7 568.9 378.1 574 362.4z" style="fill-rule:evenodd;fill:#fed325;stroke-width:2"/>
        <path d="M529.2 611.5C527.6 610.8 534.1 589.9 541 594.8 545.6 598 532.1 612.4 529.2 611.5z" style="fill-rule:evenodd;fill:#fed325;stroke-width:2"/>
      </g>
        <path d="M199.5 610.6C201 609.9 194.5 589 187.6 593.9 183.1 597.1 196.5 611.5 199.5 610.6z" style="fill-rule:evenodd;fill:#fed325;stroke-width:2"/>
      <g stroke-width="2">
        <path d="M525.7 610.6C524.2 609.9 530.6 589 537.5 593.9 542.1 597.1 528.6 611.5 525.7 610.6z" style="fill-rule:evenodd;fill:#fed325;stroke-width:2"/>
      </g>
    <path d="M339.6 164C343.5 165.7 347.2 166.3 352 169.7 356.1 172.2 359.6 173.5 364.5 170.3 367.7 168 373 165.6 378.3 163 377.8 175.9 378.8 182.3 383.1 189 383.4 190.6 383.6 193.3 382.7 194.1 372 199.8 365.3 200.3 358.8 199.9 343.5 198.9 338.1 196.3 333.8 194 332.6 192.3 333 189.8 333.9 188.1 338.5 179.5 338.4 172.2 339.6 164zM437.3 217.9C432.3 218.9 428.8 220.6 427.3 223.4 428.2 227.4 428.2 231.9 432.3 234.8 434.9 235.5 436.5 230.1 441 229.3 440.5 225 441.6 219.6 437.3 217.9zM452.4 208.8C445 212.9 450 216.2 451.2 219.8 455.4 220.7 459.6 221.9 464.3 225.1 467.6 228.5 476.4 223.8 474.6 215.7 467.7 212.3 465.9 199.3 452.4 208.8zM455.7 185.4C458.5 186.9 461.8 186.9 464.6 186.5 468.2 186 469.1 183.5 474.2 181.1 475.8 183.8 477.1 186.8 481 188.8 474.6 197.3 465.4 195.6 457.1 193.7 455.8 194.9 454.9 196.4 454.4 198 449.8 196.9 453.9 190.3 455.7 185.4zM424.4 261.8C424.8 265.8 428.5 270.6 423.5 273.3L424.2 279.7C415.3 281.4 401.6 276.3 401.5 259.9 405.9 255.7 415.8 259.7 424.4 261.8zM432.6 285.9C434.9 289.1 436.6 290.2 439.6 296.1 436.4 299.7 433.7 303.5 428.4 305.7 426.7 308 424.7 306.6 422.6 305.4L419.3 300.2C417.2 297.4 417.7 294.6 421.6 291.8 422.3 288.6 428.5 287.7 432.6 285.9zM469.9 264.1C474 265.7 476.8 270.8 480.6 277.2 481.6 285.1 477.1 290.6 482.3 296.1 478.5 302.5 475.1 309.6 470.2 313.5 468.5 313.9 467.5 316.4 464.8 314.2 460.7 308.7 454.2 307.8 445.9 299.9 442.1 296 437.8 289 433.7 283.8 432.2 277.6 435.6 280.1 437.2 279.2 441.9 284.3 444.2 289.6 451.5 294.3 454.1 295.2 454.1 295.5 453.7 293 447.4 289.7 442.1 282.8 439.7 277.8 438.9 276.5 439.6 271.5 443.2 274.6 448.2 280.6 454.9 286.2 458.2 290.2 460.7 290.5 460.8 290.7 460.3 288.4 453.5 283.7 447.8 276.1 444.3 273.3 442.9 268.7 446 269.1 448.5 269.5 454.4 274.8 459.3 279.5 466 284.9 467.7 286.8 471.2 284 468.8 283 460.8 281.2 450.5 267.7 450.6 267.8 451.8 266 452.3 263.6 459.2 266.9 462.2 270.5 466.2 273.1 470.7 275.3 475.3 272.2 466 271.2 469.9 264.1zM303.8 265.5C309.1 264.1 315.2 270 312.3 279.8 310.7 281.8 309 281.8 307.3 280.5 308.9 276.4 304.4 270.3 303.8 265.5zM292.5 258.9C299.4 256.8 299.7 260.1 296 264.3 292.9 265.6 289.8 267.9 286.8 271.3 278.9 273.9 283.4 265.9 284.5 264.7 286.4 261.4 289.1 260.4 292.5 258.9zM297.7 265.8C300.8 265.4 302.8 266.1 300.7 270.5 296.6 274.4 290.8 278.2 288.5 282.3 285 286.1 281.4 282.6 284.7 276.8 287.9 272 297.3 264.5 297.7 265.8zM300 274.6C303.5 274.1 305.1 274.7 303.8 279.4 299.4 283.8 294.8 287.1 291.4 294.7 288.1 296.1 283.6 295.5 287.1 287.7 290.5 282.1 294.7 277.8 300 274.6zM305 282.5C307.6 281.8 310.5 284.3 307.4 288.2 303.7 291.3 300.1 294.3 297.5 300.3 290.7 302.6 292.1 299.2 293.2 296.1 296 289.7 300.3 285.9 305 282.5zM309.3 288.9C310.7 288.2 312.1 288.5 313.5 288.9 314.2 290.6 314.2 292.3 313.4 293.8 312.8 294.5 312.1 295 310.7 294.2L309.3 288.9z" style="fill-rule:evenodd;fill:#fff;stroke-width:1px"/>
    <path d="M273.4 69.4C270 69.4 267.2 72.1 267.2 75.4 267.2 77.9 268.8 80.1 271.1 81L274 106.1 257.1 107 258.1 122 275.9 121 277.6 134.5C275.3 135.9 273.9 138.1 274 140.5 274.1 143.2 276.2 145.5 279.1 146.4L292 256.5C294.5 255.4 297.1 255.5 299.6 255.7L286.7 145.5C288.9 144.2 290.4 142 290.3 139.5 290.1 136.4 287.4 133.9 283.9 133.4L282.3 120.7 299.8 119.7 298.9 104.7 280.5 105.7 277.5 79.9C278.8 78.8 279.6 77.2 279.6 75.4 279.6 72.1 276.8 69.4 273.4 69.4zM327 97.3C349 88.6 372.9 90.1 395.9 99.8 402.7 81.4 409.8 60.6 420 46.9 417.3 46.4 412.7 45.1 409.7 49.7 407.6 42.7 399.1 40.9 399.4 49.9 394.4 49.9 388.4 55.5 395.7 61.5 401.2 64.8 399.6 73.7 393.4 75.3 382.8 76.3 385.5 71.7 382.5 69 382.2 73.1 373.6 78.3 368.4 72.2 364.6 68.8 366.6 62.2 370.8 59.9 378.3 61.7 384.4 51 371 48.8 376.2 42.6 370.3 38.4 365.7 38.2 366.5 33.2 364.1 31.5 361.4 30.2 359.2 31.5 356.8 32.8 356.8 38.6 348.2 36 349 42.8 352.1 47.9 345.8 46.2 339.1 55 349.4 58.8 354 57.7 362.1 65.4 355.7 71.7 347.6 77.2 344.3 72.1 340.3 68.2 339.1 71.6 332.7 78.3 326.7 71.7 321.4 63.8 324.6 61.6 328.3 58.6 333.2 56.8 330.7 47.9 323.3 50.5 327.1 43 316 38.8 315.1 46.2 310.8 44.3 306.8 43.6 304.3 46.2 313.8 56.3 321.1 76.9 327 97.3zM434.8 115.5C441.8 120 443.8 126.3 441.4 134.3 442.4 135.3 445.8 138.2 448.5 132.6 452.4 135.4 456.3 136.4 460.2 129.9 447.6 122.1 460.9 115.9 462.6 109 465.7 115.7 478.6 125.3 464.6 128.8 465.7 136.4 470.8 135.6 476.9 132.6 477.8 137.3 481.4 136.7 485.2 135.7 479.1 119.8 493.2 121.9 497.8 115.5 496.5 138.3 486.3 134.9 486 150 472 144.1 457.4 143.3 442.1 150.1 440.5 128.9 426.2 138.6 434.8 115.5zM481.8 151.6C483.4 157.6 481.8 167.7 479.7 173.8 478.4 176.1 477.1 178.5 475.5 180 476.3 182.5 477.4 186.2 481.7 187.2 485.6 185.8 495.4 184 488.9 173.4 486.9 171.4 486 169 487.9 165.9 490.7 156.5 485.3 154.3 481.8 151.6zM440.5 168C441.5 171.4 442.6 174.6 444.7 176.8 442.8 179.4 440.8 177.8 438.9 177.1 437.7 173.4 438.6 170.5 440.5 168zM440.5 181C444.2 182 445.5 180.8 447.7 179.4 450.2 180.4 452.6 182.4 454.8 184.9 451 189.8 451.2 200.8 442 198.9 444.3 198 444.7 194.7 445.6 192 440.9 190 436.5 187.9 440.5 181zM457.2 195.9C465.7 197.5 473.7 197.3 480.5 192.6 499.2 198.9 500.1 219.8 487.3 233.3 481 234.9 479.2 237.3 476.8 239.5 473.4 236 466.2 233.4 471.1 228.1 478.5 225.1 476.1 215.8 477.8 207 477.4 209.9 476.7 211.9 475 211.4 467.8 208.7 465.4 200.9 458.2 203.9 454.1 201.6 455.4 198.8 457.2 195.9zM466.4 227.2C463.2 234.3 472.1 238.4 478.3 242.6 479 239.4 482.6 238.2 486.6 236.7 482.4 248.3 496.1 262.3 482.2 276 478.4 264.6 470.3 261.4 462.9 256.5 453 249.7 445.7 249.6 438.7 254.5 435.5 247.4 443.2 244.6 448.2 241.4 450.6 237.9 445.7 234.8 449.1 230.9 453.5 231.2 457.8 231.4 459.7 227.2 462 224.9 464.2 226.9 466.4 227.2zM427.6 261C427.3 265.6 430.2 271.8 425.5 274.1 426.3 278.1 427.8 283.2 432 279.2 438.6 273.8 445 265.1 452.9 263.6 457.4 262.8 461.4 264.8 468.2 269.7 468 267.6 468.8 266.1 467.2 262.9 458.5 255.8 449 249.6 438.9 257 435.1 253.8 429.8 258.2 427.6 261zM334.2 199.4C348.9 200.6 343.2 203.1 359 203.1 375.3 202.9 370.7 199.4 384 197.4 386.9 203.5 385.5 209.7 384.3 215.8 383.9 219.7 383.7 224.5 380.4 227.6 375.1 231.2 376.8 237.7 373.8 238.7 368.3 248.1 357.1 246.2 355.3 240.4 349.6 232.8 348.9 233 346 230.5 337.2 230.1 337.4 220.9 336.3 213.3 333.6 209.1 333.1 204.4 334.2 199.4zM285.4 237.3C287.2 242.3 288.4 248.7 289.2 256.2 284.3 262.4 275.9 269 282.7 273.9 281.9 277.4 281.7 282.5 279.6 282 270.4 289.2 267 299.4 263.4 309.4 263 302.9 261.1 297.4 268.4 285.9 272.4 271.1 278.6 254.4 285.4 237.3zM303.6 256.1L305.4 263.6C316 264.9 316.9 276.7 313.1 282.3L312.6 286.1C320.3 288.5 314.3 301.4 312 299.6 309.6 318 313.3 329 314.7 342.7 318.5 343.6 317.4 351.4 317.6 357.2 322.6 351.6 318.7 330.4 323.3 320.4 329.8 305.4 329.5 292.2 325.3 276.2 320.4 264.1 314.2 254.9 303.6 256.1zM281.4 284.7C281.9 285.9 282.1 287.1 284.7 287.1 283.7 290.3 282.8 293.8 284.6 295.9 273.4 312.1 278.6 327.3 276.1 349.9 279.9 360.5 287.7 383.9 271.4 386.9 268.8 391.5 268.2 413.1 262.5 415.9 258.6 408.6 258 393.6 262.5 375.7 267.6 359 265.5 334.9 266.4 313.9 267.8 303.2 272.5 292 281.4 284.7zM306.3 292.3L312.2 340.8C310.3 343.8 307.9 344.8 305.2 344.8L299.6 302.7C300.3 297.8 303.5 295.8 306.3 292.3zM285.8 298.4C286.9 299.6 288.3 299.8 289.9 299.4 290 303.2 293.2 303.8 296.4 304.4L302.8 349.4 285 457.1C282.1 471.2 284.2 492.1 272 499.8 266.7 495.7 262.9 486.6 266.4 471.5 269 462 266.8 451.4 266.8 440.4 266.7 426.5 265.9 421.3 264.6 418.5 269.2 419.3 271.5 401.1 274.7 390.3 287 383.5 288.4 370.2 280.7 351.5 280.3 332.9 278 313.5 285.8 298.4zM305 348.8C307.5 348.3 309.7 348.3 313 345 317.3 344.8 316.2 354.4 316.4 359L313.9 512.2C312.7 534.9 305.3 554.3 283.9 565.8 281.6 555.2 283 542.2 283.9 529.5 300.4 520.7 297.7 506.4 300 496.1 300.6 493.3 297 492.3 296.6 495.8 296.9 508.5 293.4 524.7 281.8 526.5 269.6 519.2 274.2 510.4 274.6 502.1 281.4 496.2 285 485 286 472.6 288 440.7 301.3 393 305 348.8zM483.7 297.4C479.7 305.1 475.8 313.2 470.9 315.9 470.9 330 473.1 325.6 473.4 349.3 477.2 354.4 483 356.3 488.8 361.1 492.9 362.1 496.6 357.7 491.9 350.3 487.2 350.5 493.5 303.1 483.7 297.4zM467.1 319.6C468.8 327.9 470.3 337.4 470.4 355 473.1 365.7 472.6 381.8 473.9 402.2 471.9 410.8 467.3 413.1 463.2 413.5 464.5 382.2 461.4 338.9 467.1 319.6zM473.3 353.6L490 365C490.4 381.6 487.1 401 491.4 414.7 486.5 423.4 479.5 430.7 482 443.8 483.2 448.7 481.4 450.3 478.4 450.5 473.8 448.3 475.6 442.1 474.7 437.6 474.3 425.3 468.9 427.7 465.7 423.3 462.8 422.6 463.9 418.8 464.5 416.1 471.1 415.3 475 410.1 476.9 401.6L473.3 353.6zM462.9 426.1C481.3 430.2 463.6 445.3 478.4 453.2 478.1 466.7 476.7 482.1 477.9 493.1 471.6 488.3 462.7 486 461.5 476.2L462.9 426.1zM450.4 530.8C446.2 534.7 440.7 537.2 434.4 539.5 439.7 546.5 446.8 549.1 450.8 557L450.4 530.8zM440.2 550.1C444 563.4 434.9 574.2 438.8 590.3 454.7 586.5 457.5 560.9 440.2 550.1zM454.9 577.1C453.1 596.6 456.4 621.1 443.5 635.4 438.8 623.6 446 602.7 440.7 592.9 445.8 590.5 450.4 586.3 454.9 577.1zM436.4 593.6C444.5 596.1 434.4 625.7 441.3 638.1 440.7 649.7 440.9 665.1 439.4 672.4 428.5 653.3 433.8 611.7 436.4 593.6zM449 307.2C455.2 310.1 460.8 313.4 463 318.8L457.5 470.8C458.2 477 455.5 482 467.7 492 474 494.1 479.7 496.9 478 507.8 477.5 517 478.4 529.1 476.4 535.4 473.7 543 472 552.1 463 550.3 469 565.1 461.8 572.6 455.1 580.3 451.7 553.2 454.6 524.6 454.3 496.8 453.1 492.1 451.6 490.9 449.6 496.8 454.4 508.6 448 517.3 447.2 527.5 443 534.6 439.7 534.5 436.2 535.4 454.3 457 452.7 388.1 457.2 345.2 454.4 343.2 454.1 347 452.8 347.8 437.5 391 451.6 433.2 426.1 449 402.4 454.1 391.7 440.5 378.4 428.6 394.3 412.9 410.2 398.1 427.5 375 434.6 365.5 436.1 358.5 446.3 345.6 434.2 358.4 422 358.4 414.7 368 405 378.3 393.2 382.2 380.6 380.6 379.4 382.2 376.9 382.6 381.1 384.2 414.7 386.2 418.5 360.3 433.3 359.6 418.9 387.1 396.2 407.4 376.4 427.1 330.1 383.4 338.5 351.9 325.3 330.6 324.6 323.1 326.7 320.8 329.9 317.2 336.9 327.8 346.2 339.1 356.4 350.5 366.8 358.3 378.5 360.4 394.8 352.2 409.7 335.7 449.5 338.2 449 307.2zM450.5 377.6C445.6 401.5 448.8 432 433.4 445.7 408.2 516 393.5 590.3 333.4 647.8 309.8 667.7 265.8 704 267.1 705 266.8 707.3 266.5 709.7 266.1 712 294.3 699.5 325.4 693.1 358.9 691.8 359.7 690.4 360.1 689.1 356.1 687.4 350.2 684.5 351.5 680.1 355.6 675.4 417.4 608.2 417.6 527.2 440.1 447.4 441.1 445.2 443.4 445.7 442.9 448.5 422.8 524.2 421 601.6 364.3 670.5 361.7 674.4 355 679.9 356.5 682.1 355.3 684.6 365.7 688.2 374.7 690.2 401.3 690.9 421.4 696 442.3 700.5 445.8 696.3 445.5 692.9 439 690.7 435.1 691 434.7 680.9 433.6 672.7 418.8 607.4 444.4 561.2 436.9 547.2L428.7 538.5C432.4 539.3 432.7 535.6 433.6 532.5 444.1 483.3 449.2 431.4 450.5 377.6zM323.5 336.9C333.5 351 325.2 376.5 370 426.5 382.3 436.4 395 455.4 420.5 453.1 409.8 464.3 371.4 474.5 344.2 485.2 334.9 479.2 369.5 473.9 384.1 463.3 386.2 461.1 380.9 458.5 379.4 462.1 365.4 473 337.4 472.8 337.5 488.7 359.2 483.5 383.5 473.8 407.6 465.6 391.4 479.7 376.4 495.4 362.2 512.2 350.8 530.1 333.9 546 345 572 356.2 600.3 337.5 613 322 627.4 317.9 632.6 322.3 633.6 324.7 631.4L345.5 609.2C354.7 597.6 354 580.9 349.1 569.7 340.9 550.3 352.6 535.2 362.2 519.6 383.8 493.2 408.6 464.8 429.5 450.8 407.5 511.2 390.1 576.5 350.5 623.2 319.2 661.8 298 668.8 271.4 697.7 270.6 687.8 282 671.1 285.2 658.8 285.1 627 285.2 611.5 296.9 595.5 298.5 591.9 296.1 589.6 294.3 592.3 293.2 597.3 291.4 600.4 289.5 602.9 288 586.4 286.6 578.4 285.2 570.1 304.5 559.5 318.7 541.9 318.4 504.3L320 361.2C324.9 361.3 323.5 347.7 323.5 336.9zM326.8 393.7L350 432.3 373.3 449.2C375.4 451.5 373.5 453.9 371 452.8L346.1 434.7 331.7 410C337.4 453.5 333.4 497 328.8 540.5L292.2 653.1C290 656.2 287.1 653 289.2 649.7L324.3 540.5C330.5 491.6 329.7 442.6 326.8 393.7zM297.2 210.9L303.2 252.3C325.8 254.4 335.3 280.5 331.3 312.7 337.4 323.9 345.7 333.9 354.6 343.7 364.9 356.7 378 360 395.4 347.3 401.8 340.9 411.1 337.2 421.7 333.2 439 329 446.8 319.3 445 303.9L440.8 299.8C434.9 302 430.2 309.8 425.3 310.1 418.6 307.3 416.6 303.2 415.5 297.2 415.7 291.4 419.7 287.8 425.8 285.3L424.5 281.5C407.4 284.5 400 274.6 396.9 259 404.5 251.1 415.3 257.7 424.7 260 428.3 257.3 430.7 252.5 435.7 253.3 431.7 248.5 438.4 244.2 444.4 239.8 445 237 444.6 234.7 442.4 233.6 435.6 234 436.4 239.5 432.2 238.6 425.6 234.3 422 231.4 424.3 221.2 426.2 218.8 428.4 216.6 433.1 216.1 427.4 211.9 433.6 206.6 436.7 201.6 435.8 199.9 434.3 199.1 431 201.1 427.2 214.4 418.9 216.8 417.6 230.5 410.8 229.8 409.7 234.5 410.9 242.6 391.6 234.6 386.4 264.3 361.3 261.5 356.4 260.2 359.4 258.8 361.3 257.4 385.8 258.6 389.2 235.7 407.8 238.3 406.3 232.1 407.7 227.5 415.5 226.4 416.3 216.4 424.5 212.9 428.4 200.1 425.4 197.9 422.5 194.8 418.6 197.5 413.6 201.6 403.5 201 405.2 211.4 403.3 210.7 399 214.5 400 208.3 401 201.7 407.4 197.5 418.6 194.6 419.5 193.3 411.7 179.2 410.3 179.4 407.7 179.8 410.3 163.4 410.3 163.4 413.6 159.9 412.8 157.2 410.9 154.6 409 151.4 411.3 149.5 412.3 146.8 415.8 129.6 409.9 124.4 404.1 120.5 399.4 134.2 406.5 139.6 399.8 145.3 393.1 150.5 391.9 158.5 396.9 162.4 387.5 161.3 383 170.9 386.1 183.5 385.1 197.7 392.7 198.9 390.2 213 387.1 216.5 385.5 221 386.1 226.9 380.8 230.7 378.5 235.1 378.3 239.8 372.8 246.9 358.9 253.2 351.5 242.4 346.5 231 341 236.5 334.4 225.4 334.7 212 327.5 208.8 330.3 197.5 326.4 191.2 330.8 181.6 328.7 174.8 316.4 173.3 319.2 164.5 318.8 157.3 310.6 153.6 315.5 144 312.7 141.2 310.6 141.3 308.3 150.3 306.6 155.7 305 160.6 302.4 165.7 304.4 167.5L307.5 175.3C302.8 184.4 306.2 191.8 308.1 199.5 313.7 195.8 318.9 196.6 324.1 200.6 323 201.8 323.5 204.8 319.4 202.6 316 200.6 312.6 199 308.2 203 306.5 196.9 294.3 202.2 297 208.7 326.6 207.2 308.3 245.1 341.6 241.9 347 239.1 347.6 247 342.9 246.7 306.7 249.5 321.4 210 297.2 210.9z" style="fill-rule:evenodd;fill:#fed325;stroke-width:1px"/>
    <path d="M356.9 94.4C346.9 94.6 337.9 96.2 335.8 98 333.8 102.8 331.4 106 327.8 111.3 325.7 120.5 327.5 127.4 329.1 134.5 328.8 146.8 333.8 154.2 339.3 161.1L351.9 165.9C356.9 169.7 361.9 168.9 365.3 166.3 366.7 164.6 370.3 162.4 373.8 160.2 383.3 157 385 147.6 386.7 138.1 388 131.4 388.3 125.2 388.2 119.2 380.1 119.2 378.5 115.5 372.6 115.4 368.2 115.3 368.8 116.4 366.8 117.6 365.4 118.2 364.4 118.4 363.5 116.9 363.7 113.8 367.8 111.6 372.9 111.9 378.2 111.8 383 116.1 388.2 119.2 388.2 114.7 388 110.3 387.9 105.9 388.1 96.7 371.5 94.1 356.9 94.4zM357.1 128.3C357.2 128.2 357.4 128.5 357.9 129.5 358.1 129.5 358.4 133.6 355.1 137.1 353.4 138.8 356.1 140.2 359.7 140 363 140.2 365.1 139 364.7 136.7 364.6 134.9 361.5 133.9 361.4 130.7 361.3 129.6 361.7 129.1 363.8 130.9 364.2 134.7 366.4 134.8 366.6 137.2 366.9 140 364.5 143 359.7 142.1 353.4 142.2 352.4 139.9 352.9 137.1 353.3 134.9 357.1 133.2 356.7 129.5 356.9 128.8 357 128.4 357.1 128.3zM357.2 147.8C358.2 147.8 359.1 148.1 359.9 148.8 360.2 147.2 365 148.1 368.4 148.1 366.1 150.5 364.9 153.1 359.9 153.3 353.6 152.8 353.8 149.5 351.7 148.3 353.5 148.3 355.5 147.7 357.2 147.8zM338.1 123.5C342.9 121.5 342 119.5 346.4 119.8 350.9 120.1 353 122.6 354.6 125.2 352.6 123.3 352.1 123.2 351.1 124.2 349.1 126.4 344.3 125.9 342.3 125 340.8 124.2 339.7 123.8 338.1 123.5zM348.9 123.7C348.9 124.4 348.4 124.9 347.8 124.9 347.1 124.9 346.6 124.4 346.6 123.7 346.6 123.1 347.1 122.5 347.8 122.5 348.4 122.5 348.9 123.1 348.9 123.7zM381.2 124.9C376.7 122.3 378.3 120.9 373.9 120.6 369.4 120.3 367 122.5 365.1 124.8 367.2 123.3 367.8 123.3 368.7 124.4 370.4 126.8 374.6 126.6 376.7 126 378.3 125.4 379.6 125 381.2 124.9zM373.1 124.2C373 124.9 373.4 125.5 374.1 125.6 374.7 125.7 375.3 125.2 375.4 124.5 375.5 123.9 375 123.3 374.4 123.2 373.7 123.1 373.1 123.6 373.1 124.2zM334 118.6C337.3 112.9 342.5 109.6 347.8 109.7 353.5 110 356.3 112 356.6 115.1 355.6 116.7 354.6 116.5 353.2 115.8 351.2 114.6 351.8 112.6 347.5 112.6 338.6 112.6 335 120.6 334 118.6z" style="fill-rule:evenodd;fill:#fff;stroke-width:1px"/>
    <path d="M444.7 152.6C456.4 144.6 475.1 147.2 479.5 150.5 480.9 158.5 482.6 174.3 467.9 182.3 463.5 185.7 459 185.1 455 181.9 445.1 175.4 438.4 168.9 444.7 152.6zM455.7 173.1C457.3 172.9 459.9 172 461.2 173.2 462 171.9 464.4 173.8 466.2 173.9 464.5 175.4 463 176.9 460.5 176.6 458 176.8 457.2 174.2 455.7 173.1zM446.2 158.6C449.9 157.2 454 155.4 457.2 158.7 455.7 151.9 448.2 156 446.2 158.6zM478.3 160.8C475 158.9 471.4 156.5 467.9 159.2 470.3 153 476.8 158.1 478.3 160.8zM458.6 167.5C454.9 172.2 468.8 170.5 463.5 165.3 462.4 167.6 458.4 170.3 458.6 167.5zM449.3 160C452 159.8 452.9 158.4 454.7 160.3 453.1 163.3 450.3 161.8 449.3 160zM474.1 161.8C471.2 161 470.4 159.3 468.1 161.1 469.3 164.7 472.7 163.5 474.1 161.8z" style="fill-rule:evenodd;fill:#fff;stroke-width:1px"/>
</svg>