<svg xmlns="http://www.w3.org/2000/svg" width="673" height="800">
  <path d="M319.6 799.3C298.8 798.1 283.9 796.1 263.7 791.8 238 786.3 208.4 775.8 183.8 763.3 176.3 759.4 174.6 758.5 168.3 754.7 166.3 753.6 164.5 752.6 164.4 752.6 164.1 752.6 155.2 747 151.2 744.2 149.3 742.9 145.5 740.3 142.8 738.5 140.1 736.7 136.7 734.2 135.3 733.1 133.9 731.9 131.1 729.8 129.2 728.4 117.8 719.9 94.7 698.4 85.9 688 84.6 686.6 82.5 684.1 81 682.5 72.8 673.5 57.1 652.1 48.6 638.4 41.4 626.6 31.8 608.2 28.3 599.4 27.9 598.5 26.1 594.1 24.3 589.7 19 576.6 16.7 569.9 13 557.2 7.1 536.6 4.5 524.1 1.7 502.1L0.3 491.1 0.3 245.7 0.3 0.3 332.2 0.3 664.2 0.3 668.6 3.8 673 7.3 672.8 242.8C672.6 501.9 672.9 483.9 669.2 509.1 664.5 541 658.9 562.3 647.6 591.1 640.9 608.1 628 632.4 616.4 650 604.7 667.5 593 681.9 576.1 699.1 558.3 717.2 543.4 729.5 521.2 744.3 514.3 748.9 508.6 752.6 508.4 752.6 508.2 752.6 505.6 754 502.7 755.7 492.5 761.6 466.2 774.5 464.4 774.5 464.2 774.5 460.5 775.9 456.1 777.7 432.6 787 395.5 795.8 371 797.9 368.7 798.1 365.9 798.3 364.6 798.5 353.2 799.7 333.6 800.1 319.6 799.3z" style="stroke-width:0.6;stroke:#000"/>
  <path d="M328.4 410.6C328.6 410.6 328.6 56.1 328.6 38.4L328.6 6.1 167.5 6.2 6.3 6.3 6.3 236.5C6.3 363.1 6.4 472.8 6.7 480.3 7.5 507 13.4 539.2 21.9 564.2 22.4 565.7 23 567.4 23.1 567.9 23.3 568.8 24.8 573.2 28.7 583.3 29.8 586.1 31.8 590.7 33.1 593.5 34.4 596.3 35.5 598.8 35.5 598.9 35.5 599.4 44.3 616.9 45.8 619.3 46.4 620.4 47.5 622.4 48.1 623.7 50.5 628.4 63.3 648.2 67.9 654.4 73.2 661.5 75.2 664 80.8 670.5 83.6 673.8 87 677.8 88.2 679.2 89.4 680.7 95.1 686.7 100.9 692.5 110 701.8 113.8 705.2 126.1 715.7 136 724.1 155 737.3 166.2 743.6 166.8 744 168.3 744.9 169.6 745.7 175.6 749.6 204.5 763.6 210 765.3 211.3 765.7 212.6 766.2 212.9 766.4 213.2 766.6 214.8 767.3 216.3 767.8 217.9 768.4 219.6 769 220.1 769.2 220.6 769.4 221.1 769.6 221.3 769.6 221.4 769.7 222.2 770 223 770.3 226 771.5 244.2 777.4 246.9 778 248.5 778.4 250.3 778.9 251 779.1 252.1 779.6 261.8 781.8 269.8 783.4 283.2 786.1 302.8 788.6 316.2 789.3 320.3 789.5 323.8 789.8 323.9 789.9 324.1 790 325.1 790.1 326.2 790L328.3 789.8 328.4 770.2 328.4 410.6z" style="fill:#fdd208;stroke-width:0.6;stroke:#000"/>
  <path d="M328.1 685.5C320.7 693.9 304.2 691.3 292.6 685.5 283.6 681 275.2 691.2 272.2 694.2 266.4 700 263.7 700.5 256.2 698.6 249.4 696.9 244.5 689.9 241.6 686.9 236.7 682 247.4 677 247.4 668 247.4 657.4 242.1 658.8 238.7 652 237.2 649 227.8 645.2 224.1 640.4 219 633.5 219.3 629.6 222.7 622.9 226.4 615.6 233.7 627.7 238.7 630.2 244 632.8 256.1 632 260.5 633.1 267.9 634.9 279.5 624.7 283.8 621.4 290.9 616.1 291.3 605.2 296.9 599.6 302.6 594 304.7 591.6 302.7 583.6 299.9 572.3 295 581.1 298.4 567.6 301.1 556.8 301.7 554.9 296.9 550.1 293.3 546.5 298.8 534.1 298.8 529.7 298.8 522 299.8 516.9 299.8 507.9 299.8 501.5 307.4 495.8 310 490.4 312.3 485.9 310 473.9 310 468.6 310 460.9 307.3 457.8 305.7 451.1 304 444.6 295.5 441.7 292.6 441 292.2 440.9 280.1 456.3 278 458.4 275.8 460.6 278 478 278 481.7 278 484.3 270.5 494.4 269.3 499.2 266.5 510.1 266.2 515.6 256.1 509.7 250.9 506.7 245.1 516.1 237.2 518.1 227.5 520.5 224.7 517.8 221.2 510.8 218.2 504.7 213.7 501.4 211 494.8 207.6 486.1 217.2 480 218.3 478.8 223.8 473.3 223.1 470.2 223.1 459.9 223.1 457.5 239 444 240.2 438 241.7 430.4 239.3 423.3 237.2 419.1 234.3 413.2 243 410.7 244.5 404.6 246.2 397.8 248.4 391 251.8 384.2 255.5 376.7 255.2 371.6 250.3 366.7 245.2 361.6 245.7 353.2 242.6 345.3 240.5 339.9 240.1 338.9 238.7 333.2 238.7 333.1 229.8 349.8 228.5 355.1 226.3 363.9 217.8 368.9 215.4 378.4 213.1 387.4 218.2 396.9 219.8 403.1 222.2 413 216.8 417.8 212.5 422 205.1 429.5 204.4 423.5 200.9 414.8 198.7 409.2 201.5 396.3 202.3 392.9 204.2 385.3 201.9 376.1 199.4 371.1 197.3 366.9 198.7 353.9 197.9 350.7 196.1 343.5 189.6 340.1 189.2 333.2 188.1 315.4 183 330.6 179.4 335.7 175.1 342 173.5 352.5 171.7 359.4 170 366.5 171.7 376.8 171.7 384.2 171.7 396.6 169.7 399 167.4 410.4 165.8 418.3 161.6 422.4 161.6 433.7 161.6 442.7 158.2 443.7 160.1 451.1 162.4 460.5 161.6 472 161.6 481.7 161.6 488.3 150.4 503.4 147 507.9 141.8 514.9 137.3 518.7 135.4 528.3 133.9 535.3 125.1 542.9 120.8 547.2 115.7 552.3 95.2 546.6 103.3 538.5 110 531.8 117.7 527.5 123.7 519.6 127.2 515 129.6 500.5 131 494.8 132.5 488.9 135 478.8 136.8 471.5 139.3 461.7 142.2 453.6 144.1 443.9 145.9 434.8 147 425.5 147 416.2 147 405.3 146 400 142.6 391.5 140.2 385.5 140.8 375.7 142.6 368.2 144.9 358.9 143.9 360.3 141.2 352.2 136.3 337.8 132.5 337.6 129 332.2 124.6 325.2 120.6 326.3 115 337.6 111.9 343.7 110.6 351 110.6 359.4 110.6 367.7 109.1 375.5 103.3 379.8 98.2 383.7 97.5 389.7 97.5 398.7 97.5 409.3 96.4 411.8 90.2 422 84.1 432.2 78.1 431.2 71.3 427.9 63.7 424 85.3 406.6 85.9 406 91.5 400.4 91.7 390.2 91.7 382.7 91.7 375.4 93.4 367.7 91.7 360.9 89.4 351.6 87.3 349.3 87.3 337.6 87.3 331.7 81.5 325.9 81.5 317.2 81.5 309.5 82.6 301.1 84.4 293.9 86.9 284.1 82.4 282.9 75.7 289.6 70.6 294.7 67.1 298 64 304.1 58.8 314.5 50.6 311.1 46.6 307 42.3 302.8 52.3 285.3 53.8 282.3 56.2 277.5 53.8 264.4 53.8 259 53.8 250.3 56.8 245.4 56.8 235.7 56.8 224.1 57.7 220.3 64 213.9 70.6 207.3 74.5 203.4 80 197.9 83.1 194.8 85.1 181.9 85.9 178.9 87.9 170.9 93.5 173.8 101.9 171.7 110 169.6 109.8 165.1 116.4 171.7 121.2 176.4 110.8 181.2 125.2 184.8 132.6 186.6 131.5 170.6 135.4 186.2 136.7 191.5 145.2 196.2 148.5 197.9 156.6 202 156.6 202 163 209.5 164.4 211.1 171.5 218.3 173.9 218.3 180.3 218.3 185.5 220.3 189.9 224.8 192.9 227.8 205.3 228.1 208.9 229.9 218.1 234.5 214.9 237.2 219.8 245.9 221.6 249.2 230.2 253 232.5 253.6 233.9 253.9 235.8 254.6 237.2 254.6L328.3 259.7" fill="#fff"/>
  <path d="M328.8 747.6C325.6 742.7 318.7 737 311.3 730.4 302.2 722.4 299.1 718.9 296.6 714L294.2 709 294.2 699.7 294.3 690.4 291.6 692.8C290.2 694.2 287.3 696.5 285.3 698 283.2 699.5 281.3 700.9 281 701.1 278.7 702.9 269.4 706 264.5 706.7 253.5 708.1 246.1 707.4 235.7 704.1 225 700.6 210.7 689.4 203.9 679.1 199.9 673.1 199.7 672.2 202.4 672.7 203.4 672.8 207.7 673.2 212 673.4 221.5 673.8 227.6 673 234.1 670.6L238.7 668.8 234.3 667.4C223.1 663.8 213.3 654.6 210.1 644.4 208.3 638.5 208.3 627.1 210.2 621.1 212.5 613.7 216.3 607.2 221.3 601.9 223.8 599.3 229.8 595 230.5 595.2 230.8 595.3 231.2 597.7 231.2 600.6 231.5 609 233.8 612.8 241 616.4 247.4 619.6 255.3 620.1 264.4 617.8 275.3 615.1 284.6 606.9 290.9 594.2 294.3 587.6 298.7 571.4 297.7 569.7 297.5 569.3 299.1 569.1 302.3 569.1L307.4 569.1 307 573.5C306.3 581.8 304.4 591.9 302.7 596.8 297.5 611.7 293.9 619.5 288.6 627.5 282.1 637.2 277.1 640.3 264.7 642.1 260.2 642.8 258.5 642.8 253.5 642.1 241.6 640.6 233.7 637 227.6 630.5 223.7 626.4 223.2 626.4 226 630.7 230.5 637.3 237.1 641.7 247.2 644.7 253.9 646.7 264.4 646.6 272.8 644.4 274.7 643.9 276.3 643.6 276.4 643.7 276.8 644.1 267.3 653.2 263.9 655.7 262.2 657 258.2 659.6 255.1 661.6 252 663.5 249.6 665.2 249.8 665.3 249.9 665.5 251.6 665.1 253.4 664.3 267.5 658.9 277.8 649.3 291.3 629.1 297.4 620 304.5 603.5 307.2 592.2 308.3 587.6 309.5 579.8 310.4 572.5L310.8 569.1 313.1 569.1 315.4 569.1 315 572.7C312.4 596.9 305.3 625.6 298.3 640.2 295.4 646.5 289.3 656.5 285.2 661.8 280.4 668.2 274.5 673.7 266.6 678.9 257.7 684.9 254.3 686.3 244.6 687.8 241.9 688.2 242 688.3 246.8 688.4 252.5 688.6 254.8 688.1 262.5 684.7 268.2 682.1 272.4 679.3 277.1 674.8 279 673 281.6 670.5 282.9 669.4 289.6 663.3 297.8 650.3 304 635.8 306.4 630.3 311.6 611.9 313.5 602.6 314.2 599.3 314.9 596 315 595.4 315.2 594.8 315.6 592.4 315.9 590.2 316.2 588 316.6 585.5 316.8 584.7 316.9 583.9 317.3 580.1 317.7 576.2L318.4 569.1 320.3 569.1 322.3 569.1 322 572.5C321.8 574.3 321.5 581.2 321.3 587.9 320.5 619.1 317.7 634.2 308.8 656.3 307.1 660.5 305.2 665.5 304.6 667.2 304.1 669 303.4 670.6 303.2 671 302.9 671.3 302.3 673 301.7 674.7 301.2 676.5 300 679.4 299 681.3L297.4 684.8 298.9 683.1C300.8 680.8 306.5 669.4 311.4 658 315.3 648.8 318.5 638.8 320.5 629.9 321.5 625.3 321.8 622.5 323.1 609.5 323.8 603.1 324.3 592.3 324.5 583 324.7 575.4 324.8 572.1 325.1 569.6 325.1 569.3 325.9 569.1 326.8 569.1 328.4 569.1 328.6 568.9 328.6 567.4 328.6 566.5 328.4 565.7 328.1 565.7 327.9 565.7 319.4 565.6 309.2 565.5L290.7 565.4 286.4 563.3C278.5 559.3 275.1 554.2 274.5 544.9 273.8 534.8 278.3 525.5 285.4 522.4 289.4 520.7 296.1 520.1 313.7 520.1L328.6 520.1 328.6 518.7C328.6 517.2 328.5 517.2 323.7 517.2 321 517.2 318.8 517 318.8 516.7 318.8 516 321.3 512.7 322.9 511.4 323.8 510.8 325.3 509.2 326.3 507.9 327.8 506 328.2 505 328.3 502.2 328.3 500.3 328.2 498.8 327.9 498.8 327.6 498.8 327.4 499.1 327.4 499.6 327.4 501.3 325 504.9 321.8 508 319.9 509.7 317.8 512 317 513.1L315.5 515 314.4 513.4C313.8 512.5 311.3 509.6 308.7 507 304.4 502.5 304.1 502.2 303.6 503.4 302.9 505.3 303.5 506.4 306.4 509.2 310.1 512.8 312.7 516.6 311.7 517 311.2 517.1 308.3 517.2 305.2 517.1L299.4 516.9 299.3 495.9 299.3 474.8 296.9 470.2C294.1 464.4 293.2 459.6 293.5 450.7 293.6 447 293.5 444 293.4 444 292.8 444 287.9 450.6 285.8 454.2 281.1 462.3 280.3 467.5 281.4 484.5 282 492.9 282.1 492.8 277.3 490.1 275.5 489.1 274 488.4 273.9 488.4 273.7 488.4 273.7 491.4 273.9 495.1 274.3 502.5 276 510.5 277.7 513 278.3 513.9 279.6 515.8 280.6 517.3 281.6 518.8 282.4 520.1 282.4 520.3 282.4 521 276.7 521.9 272.2 522 267.9 522 266.4 521.7 262.5 520.2 256.6 517.9 252.7 515.5 249.9 512.4 247.8 510 244.9 505.6 244.9 504.7 244.9 504.4 247 502.6 249.5 500.5 252.1 498.5 254.1 496.6 254.1 496.3 254.1 495.4 255.3 495.9 255.7 496.9 256.8 500.3 258.6 503 261.8 506.1 263.7 508.1 265.4 509.6 265.6 509.4 265.7 509.3 264.9 507.9 263.7 506.4 260.9 502.8 258.7 498.1 258.4 495.1 258.2 492.8 258.3 492.6 263 487.6L267.9 482.6 270.2 485.3C273.9 489.4 273.3 486.5 269.4 480.9 267.7 478.4 265.4 474.6 264.4 472.4 262.5 468.6 262.5 468.3 262.5 460.6L262.5 452.7 264.2 450.9C266.2 448.8 274.9 442 274.9 442.5 274.9 442.7 274.4 444.7 273.7 447 270.4 458.3 269.6 464.8 270.6 471.2 271.1 474.9 272.1 475.4 271.9 471.8 271.3 464.8 277.4 444.3 283.7 431.4L286.7 425.5 287.9 429.7C289 433.4 290.5 436.4 293 439.6 293.9 440.6 294 440.6 295 439.7 296.1 438.7 296.1 438.6 294.5 436.3 290.7 430.4 288.3 417.5 290.1 412.6 291 410.2 296.9 404 304.5 397.4L307.2 395.1 307.3 397.9C307.3 399.4 307.4 400.9 307.5 401.1 307.7 401.9 308.6 425.2 308.4 425.8 308.3 426.1 308.5 426.1 308.7 425.9 309.3 425.3 309.3 425.4 309.8 413.5 310 407.7 310.3 402.5 310.4 401.9 310.5 401.4 310.6 399.6 310.6 397.8L310.7 394.7 312 395.9C312.7 396.5 314 397.4 314.8 398 315.7 398.5 318 400.5 320.1 402.4 322.9 405 324.2 406.8 325.7 410.1 326.8 412.5 327.8 414.5 328 414.5 328.2 414.5 328.3 413 328.2 411.1 328.1 405.8 326.1 403.1 317.2 396.3 310.5 391.2 310.7 391.7 310.7 380.4 310.7 370.2 311 368.7 313.4 366.1 328.3 350.7 328.6 350.3 328.6 345.3L328.6 342.2 326.9 345.6C325.7 347.9 322.7 351.6 317.7 356.9 313.6 361.3 309.9 365.7 309.5 366.7L308.7 368.5 307.6 366.3C306.5 364.1 302.2 359.7 295.3 353.5 289.6 348.5 289.3 347.9 289.3 336.8 289.3 329.2 289.5 327.4 290.3 325.9 291.7 323.4 293.7 321.2 296.9 318.6 299.4 316.6 299.9 316.4 303.4 316.4L307.1 316.4 307.4 318.9C307.6 320.2 307.9 325.2 308.1 330 308.5 339 308.9 343.7 309.3 344.1 309.4 344.2 309.5 343.1 309.5 341.5 309.5 339.9 309.7 336.4 309.9 333.8 310.1 331.1 310.4 326.1 310.6 322.8L311 316.7 314.5 316.6C317.7 316.4 318.1 316.5 320.8 318.5 324.8 321.5 327.4 324 328 325.4 328.4 326.2 328.5 325.8 328.5 323.8 328.6 321.2 328.4 320.8 326.1 318.7L323.7 316.5 326.1 316.4 328.6 316.4 328.6 300.3C328.6 287.8 328.4 284.1 327.8 284.1 327.4 284.1 319 284.1 309.1 284.1 289.7 284.2 263.7 283.3 259 282.4 257.5 282.1 254.9 281.7 253.3 281.5 248.3 280.9 239.9 279.5 231.5 277.7L228.2 277.1 228.2 269.2C228.2 260.8 228.9 252.2 230 247.5 231.6 240.4 237.5 230.5 244.2 223.7 249.6 218.2 254.5 214.7 262.4 210.7 263.4 210.2 263.8 209.7 263.5 209.5 263.2 209.3 258.4 209.1 252.9 209 243.6 208.9 242.7 208.9 240.1 210.1 238.4 210.9 235.8 213 233.6 215.3L229.9 219.1 229.8 216.9C229.7 215.6 229.6 213.8 229.6 212.9 229.5 210.6 230.6 205.8 231.8 203.5 234.4 198.7 243.5 195.3 257 194.4 265.6 193.9 274.4 190.5 278.8 186 282.6 182.2 287.4 175.1 288.5 171.6 289.2 169.3 289.5 166.7 289.5 161.8 289.5 154.3 289.4 153.1 287.6 147.4 286.4 143.7 286.1 143.2 283.9 142.1 278.4 139.4 267.9 131.2 255.3 120.1 241 107.4 239.2 106.1 233.8 104.1 230.5 102.9 226.2 102.7 223.8 103.6 222.3 104.1 222.3 104.1 222.7 102.3 223.3 99.5 223.9 98.6 226.3 96.8 228.3 95.3 228.7 95.2 234.5 95.2 240.4 95.2 240.7 95.3 246 97.7 253.8 101.3 255.3 102.4 265.3 112.7 273.8 121.4 283.4 129 286.5 129.4 289.4 129.8 291.1 128.4 291.1 125.7 291.1 123 288.2 120.2 284.1 118.9 274.6 115.9 271.9 114.3 264.9 107.5 260.4 103.1 249.7 94.9 248.5 94.9 248.2 94.9 247.6 94.5 247.2 94 246.5 93.2 245 92.4 243.2 91.7 243 91.7 241.6 91.1 240 90.3 238.4 89.6 236.6 88.8 236 88.6 234.3 87.8 229 86.8 226.9 86.8 225.9 86.8 223.6 87.2 221.8 87.5 219.1 88.2 218.1 88.8 214.8 92.1 212.6 94.3 210.2 97.4 209.2 99.3L207.5 102.7 206.9 100.1C206.5 98.7 206 96.7 205.7 95.8 204.1 90.3 203.1 83 203.1 76.7 203.1 70.7 203.2 69.5 204.4 67.2 206 64 206.5 63.4 209.7 60.8 213.8 57.5 216.6 56.7 224.4 56.4 230.2 56.2 232.1 56.3 236.3 57.4 242.5 59 250.4 62 258.5 65.9 262.1 67.6 265.1 68.9 265.3 68.9 265.5 68.9 265.7 68.1 265.7 67.1 265.8 65 266.6 62.6 268.2 60 272 53.7 290 53.5 307.2 59.6 313.9 62 324 67.9 328.9 71.5" style="stroke-width:0.6;stroke:#000"/>
  <path d="M172.2 658C165.4 656.5 162.7 654.6 160 649.4 158.3 646 158.2 639.3 159.9 635.2 161 632.6 161 632.1 160.3 631.2 159.4 629.9 159.3 626.7 160.3 624.1 161.2 621.6 163.6 619.2 170.7 613.6 175.4 609.8 177.6 607.6 179.7 604.4 182.5 600.3 183.1 599.1 182.2 599.2 181.9 599.2 180.2 599.5 178.3 599.9 175.1 600.6 174.7 600.8 173.5 603.1 172.7 604.4 170.9 606.4 169.5 607.5 166.7 609.6 165.7 609.8 158.6 609.6 155.5 609.5 154.9 609.6 154.6 610.6 154.4 611.2 153.3 612.8 152.1 614 148.2 618 141.5 618.5 138.7 615.1L137.7 613.8 136.4 615.1C134.7 616.8 134.8 619.4 136.8 624.3 137.6 626.4 138.2 628.2 138 628.3 137.6 628.7 131.8 626.7 128.9 625.2 125.2 623.2 124 621.9 122.6 618.6 120.8 614.4 121.1 607.4 123.3 603.7 124.7 601.3 127 599.2 129 598.4 129.5 598.3 130.2 597.1 130.6 595.8 131.4 593.1 135.1 589.6 137.5 589.1 138.4 588.9 143.2 588.5 148.3 588.2 157.9 587.6 166.1 586.2 167.4 585 167.9 584.5 167.5 584.4 165.3 584.6 163.5 584.8 161.3 584.5 159.5 583.9 156.7 583 156.3 583 154.1 583.9 147.5 586.5 140.6 583.8 139.6 578 139.3 576.8 138.8 576 138.3 576 137.7 576 136.9 575.9 136.4 575.8 133.1 575.5 127.7 579.6 126.9 583 126.4 585.5 125.4 584.8 123.9 580.9 122.6 577.2 122.5 571.9 123.7 567.9 124.6 565 126.9 562.4 129.4 561.3 132.3 560.1 138.7 559.6 141.2 560.4 143.1 561.1 143.5 561 144.6 559.9 147 557.7 150.6 558.4 160.2 563 170.4 567.9 178.9 569 187 566.6 191.6 565.2 192.8 563.5 198.5 550.2 201.3 543.7 204.1 537 204.9 535.4 205.6 533.8 207.1 530.3 208.3 527.6 209.4 524.9 210.9 521.6 211.5 520.2 212.2 518.8 213.2 516.3 213.8 514.7 214.4 513.1 215.5 510.7 216.1 509.4 216.7 508 217.2 506.6 217.2 506.3 217.2 505.9 217.7 505.9 218.8 506.3 220.4 507 226.6 507.1 229.7 506.6 230.6 506.4 232.6 505.9 233.9 505.4 237.2 504.2 237.4 504.3 237.4 505.9 237.4 507.7 237.8 508 239.6 507.1 242.2 505.8 242.4 505.9 244.8 509.1 247.4 512.5 247.5 512 244.2 517.2 243.5 518.4 241.4 521.9 239.5 525 237.6 528.2 235.6 531.4 235.1 532.2 234.5 533 233.5 534.7 232.9 536 232.2 537.2 231 539.2 230.3 540.3 229.6 541.5 227.5 545 225.6 548.1 219.9 557.8 218.8 559.5 217.3 561.8 216.5 563 216 564.1 216.2 564.3 216.4 564.5 221 563.4 226.5 561.8 234.5 559.6 237.4 559 241 559 245.3 559 245.5 559.1 247.5 561 248.6 562.1 249.5 563.3 249.5 563.7 249.5 564.1 250.8 564.8 252.3 565.3 258.6 567.2 262.9 570.1 264.9 573.9 265.6 575.2 265.9 577.1 265.9 579.8 266 583.2 265.7 584.3 264.4 586.5 262.8 589.2 259.7 591.2 255.9 591.9 254.1 592.2 254 592.1 254.4 590.8 255.5 586.3 255.4 584.3 254.2 583.1 253.5 582.4 252.4 581.8 251.7 581.8 251 581.8 249.9 581.7 249.4 581.5 248.6 581.4 248.1 582 247.4 583.6 246.3 586.5 243.6 587.9 240.2 587.4 237.8 587 234.1 585.3 232.7 584 229.9 581.4 229.3 581.1 228.6 581.7 226.9 583.2 221.3 584.1 217.9 583.5 215.1 583.1 214.5 583.1 214 583.9 212.2 586.9 208.9 590.5 207.2 591.3L205.2 592.2 205 597.3C204.8 601.5 204.5 602.8 203.2 604.9 201.7 607.5 199.8 609.5 198.8 609.5 197.7 609.5 196.4 611.8 196.4 613.7 196.4 618.1 194.3 621.8 190.5 623.9L188 625.3 187.3 630.2C186.7 634.9 186.5 635.3 184.4 637.4 182.6 639 181.5 639.5 179.9 639.6 178.7 639.7 177.4 639.8 177.1 639.8 176.8 639.9 176.2 640 175.9 640 174.9 640.1 173.4 644.5 173.4 647.3 173.4 650.3 174.3 652.6 176.8 656 179.5 659.6 179.3 659.7 172.2 658z" style="stroke-width:0.6;stroke:#000"/>
  <path d="M175.8 636.1C175.6 633.6 174.8 632.7 171.7 631.4 168.4 629.9 164.1 629.9 162.8 631.3 161.5 632.7 162.1 633.2 164.8 633.2 167.4 633.2 172.5 635.5 173.5 637.2 174.6 639.1 176 638.4 175.8 636.1z" style="fill:#fff;stroke-width:0.6;stroke:#000"/>
  <path d="M140.9 607.6C141.3 603.1 140.6 601 137.8 598.6 134.7 595.9 129.2 596.3 131.9 599 132.3 599.4 133 599.7 133.4 599.7 133.8 599.7 134.8 600.3 135.7 601.1 136.9 602.2 137.2 603.3 137.7 607 138.5 613.3 138.6 613.4 139.7 612.3 140.3 611.7 140.7 609.9 140.9 607.6z" style="fill:#fff;stroke-width:0.6;stroke:#000"/>
  <path d="M247 575.9C246.9 571.6 247.1 570.3 247.9 569.2 249.3 567.2 249.3 565.1 247.9 565.1 244.6 565.1 242 573.9 243.8 578.8 244.4 580.5 246 582 246.7 581.5 247 581.3 247.1 578.8 247 575.9z" style="fill:#fff;stroke-width:0.6;stroke:#000"/>
  <path d="M145.1 574.2C145.9 573.6 146.9 572.5 147.2 571.8 149 568.7 147.3 562.3 144.7 562.2 144.3 562.2 144.2 562.8 144.6 564.4 145.6 568.9 145.3 570.6 142.8 572.8 140.4 575 140.2 576.4 142.4 575.7 143.1 575.5 144.3 574.8 145.1 574.2z" style="fill:#fff;stroke-width:0.6;stroke:#000"/>
  <path d="M75 564.8C61.3 562.5 55.2 560 49.5 554.3 47.5 552.3 45.9 550.4 45.9 550 45.9 549.4 47.3 549.2 51.5 549.2 56.7 549.2 57.4 549 62 547 69.6 543.6 72.9 541.5 81.4 534.8 86.2 531.1 98.7 518.7 101.6 514.8 108.1 506.4 112.8 495.3 117.3 477.8 118.6 473 119.8 468 120 466.7 120.1 465.5 120.6 463.1 120.9 461.5 121.8 456.9 124.2 441.4 125.2 433.6 125.7 429.6 126.7 422.1 127.5 416.8 131.2 390.9 135.3 351.9 135.3 341.7 135.3 338.6 135.5 338.1 137.5 335.9 144.2 328.4 149.5 321.1 151.5 316.6 151.9 315.6 152.4 314.7 152.6 314.7 152.8 314.7 153.4 315.9 153.9 317.5 154.4 319 155.5 322.1 156.3 324.5L157.9 328.8 157.2 340.3C156.9 346.7 156.5 354.9 156.3 358.6 156 365.7 153.9 396.6 153.5 400.4 153.3 401.7 153.1 404.6 152.9 407 152.7 409.4 152.2 414.3 151.7 418 150.6 426.6 148.6 441.4 148.2 443.9 148.1 445.1 147.3 450.1 146.5 455.2 145.7 460.3 144.8 465.7 144.5 467.3 144.2 468.9 143.8 471.1 143.6 472.2 142.1 481.7 138.8 495 136.2 501.8 131.3 514.8 124.6 524.9 112 538.4 109.4 541.2 110.5 540.7 114.6 537.3 120.2 532.7 128.2 524.1 130.9 519.8 137.6 509.5 142.2 497.5 145.9 481.4 147 476.5 148.1 471.7 148.2 470.8 148.4 469.8 149.1 466.3 149.7 463 152.4 449.4 157.3 412.6 158.6 395.8 160.5 373 160.5 373.5 161.5 359.1 162 352.3 162.5 345.8 162.7 344.7 162.8 343.6 163 342.2 163 341.5 163 340.8 163.5 341.4 164.5 343.3 165.3 344.9 166.4 346.8 166.8 347.5L167.7 348.9 170.6 346.1C172.2 344.5 174.9 341.5 176.7 339.2 178.4 337 180.1 334.9 180.4 334.6 180.8 334.3 180.8 337.6 180.6 343.6 180.4 348.8 180.1 356.7 180 361.2 179.8 365.6 179.6 370.4 179.4 371.8 179.3 373.3 179 377.7 178.8 381.6 178.5 388.6 177 408.3 176.6 411.9 176.3 413.5 176 417.1 175.4 424.6 174.9 430.7 174.4 435.6 174.2 437.3 174.1 438.3 173.7 442.2 173.4 446 171.3 468.4 168.8 485.1 166.4 493.8 164.8 499.3 163.4 503.7 162.8 504.4 162.5 504.8 162.4 505.1 162.6 505.1 162.7 505.1 162 507.2 161 509.7 152.8 529.4 135.6 550.1 121.6 557 107.2 564.1 89.1 567.1 75 564.8z" style="stroke-width:0.6;stroke:#000"/>
  <path d="M217.5 505.2C217.3 505 216.5 504.8 215.6 504.7 214.7 504.6 211.7 503.3 208.8 502 204.8 500 202.7 498.5 199.3 495.2 195 491 193.1 487.9 190.7 481.6L189.6 478.5 195.5 478.9C200.4 479.2 202 479.1 204.6 478.3 207.8 477.2 212.8 474.2 215.8 471.5 217.8 469.7 222.1 461.7 221.6 460.8 221.4 460.5 219.8 460.1 218.1 459.8 216.3 459.6 214.8 459.2 214.6 458.9 214.4 458.6 216.3 456.8 218.8 454.9 221.2 452.9 223.7 450.9 224.1 450.4 229 445.1 232.2 439.3 235.5 429.9 236.6 426.7 237.6 424 237.7 423.9 237.8 423.8 239.6 423.3 241.7 422.9 243.8 422.4 246.3 421.7 247.3 421.2 248.6 420.5 248.9 420.5 248.9 421.1 248.9 422.7 247.2 430.7 246.3 433.4 245.1 437.1 241.4 444 239.1 446.8 236.1 450.5 237.4 450 241.7 445.8 244.7 442.9 246.1 440.8 247.8 437.3 249 434.8 250.1 432.3 250.2 431.9 250.5 430.7 253.7 445.1 253.5 446.8 253.3 448.3 252.2 449.1 243.2 454.9 238.8 457.7 233.6 459.4 228.1 459.9 225.3 460.2 224.1 460.5 224.1 461 224.1 461.6 225.2 461.8 228.5 461.8 230.8 461.8 232.8 462 232.8 462.3 232.8 462.5 232.4 464.7 232 467 231.5 469.4 231.1 472.7 231 474.2 230.9 476.4 230.4 477.6 228.7 479.7 225.2 484.2 220 486.5 213.6 486.6 212.4 486.6 211.4 486.9 211.4 487.2 211.4 488.4 217.1 488.9 220.9 488.1 224.1 487.5 226.1 486.4 229.1 483.6L231.6 481.3 231.6 483.2C231.6 484.3 232.4 488.3 233.4 492.1 236.2 502.9 236.4 501.7 231.8 503.3 229.7 504.1 226.2 504.8 224.1 504.9 222.1 505 219.8 505.2 219.1 505.3 218.4 505.4 217.7 505.4 217.5 505.2z" style="stroke-width:0.6;stroke:#000"/>
  <path d="M239.4 503.8C239.3 503.4 238.5 501.3 237.7 499 235.3 492 234.4 487.3 234.4 480.9 234.4 476.1 234.9 468.5 235.4 466.4 235.4 466.3 235.8 464.9 236.2 463.3L237 460.4 243 457.5C246.4 455.9 250.2 453.8 251.6 452.7L254.1 450.8 254.1 453C254.1 456.1 251.6 465.4 246 482.8 245.5 484.6 245.2 485.9 245.5 485.7 245.8 485.6 246.1 485.2 246.1 484.9 246.1 484.7 247.5 481.4 249.3 477.6 251.1 473.8 253.7 468.2 255.1 465 256.5 461.8 257.9 459 258.1 458.8 258.4 458.5 258.7 460.3 258.9 462.8 259.2 467.9 260.7 472.1 263.8 476.4 265.7 479 265.8 479.3 265 481 264.2 483.1 250.1 497.8 247.1 499.7 246 500.3 244 501.7 242.4 502.7 240.5 503.9 239.6 504.3 239.4 503.8z" style="stroke-width:0.6;stroke:#000"/>
  <path d="M184.9 456.1C184.9 455.8 185.7 449.8 186.6 442.7 189.2 423.2 189.7 414.4 189.8 392 189.8 363.9 188.7 345.8 186 330.2 185.5 327.1 185.5 326 186 324.6 186.8 322.7 187.8 322.2 187.8 323.6 187.8 325 192.3 337.9 194.3 342.1 195.4 344.4 197.4 347.8 198.7 349.8L201.2 353.4 204.6 350.5C206.5 348.9 208.3 347.6 208.6 347.6 209.4 347.6 208.4 388.4 207.4 397.8 207.1 400.5 206.7 404.6 206.5 407 206.3 409.4 205.7 413.9 205 417.1 203.7 424.3 203.7 425.5 205.1 421.4 207.6 414.2 210.6 395.9 211.7 380.8 211.9 378.2 212.2 374.9 212.3 373.3 212.4 371.7 213 363.5 213.5 355.1L214.5 339.8 219.7 333.2C225 326.5 227 323.5 228.9 319.9L229.9 317.9 229.6 321.1C229.4 322.8 228.3 326.5 227.2 329.3 226.1 332.1 225.3 334.5 225.4 334.6 225.5 334.6 228.6 334.3 232.2 333.8 238.8 332.9 238.8 332.9 239 334 239.4 336 236.6 362.6 235.4 368.8 235.3 369.5 235 371.2 234.8 372.8 234.4 375.8 232 386.1 230.8 390.3 230.4 391.7 229.5 394.8 228.8 397.2 227.6 401.3 225.2 407.3 222.1 414.4 220.6 417.8 214 427.8 211.6 430.4 210.7 431.3 209.4 432.9 208.6 433.8 206.8 436.2 201.7 441.4 195.2 447.7 186.9 455.5 184.9 457.2 184.9 456.1z" style="stroke-width:0.6;stroke:#000"/>
  <path d="M256.9 448.1C256.7 445.3 255.9 440.5 255 437.3 253.4 431 252.6 423 253.4 419.6 253.7 417.9 254.6 416.8 257.3 414.7 261.8 411 265.6 406.2 267.4 401.9L268.8 398.4 270.3 399.8 271.7 401.2 270.4 408C269.1 414.5 266.6 424.5 263.6 434.4 262.9 436.9 262.4 439.1 262.5 439.2 263.3 440.1 274.3 411.7 274.3 408.7 274.3 408.5 274.6 407.6 274.9 406.7L275.5 405.2 280 409.7C285.5 415.2 285.9 416.4 284.1 421.9 281.1 431 277.1 436.4 268.3 443.2 265.7 445.1 262.2 448.1 260.4 449.9L257.2 453.1 256.9 448.1z" style="stroke-width:0.6;stroke:#000"/>
  <path d="M51.3 450.2C42 449.5 32.3 446.4 25.6 442.1 22.4 440 15.7 434.2 16 433.8 16.2 433.6 17.3 433.4 18.5 433.3 32.3 431.7 35 431.1 41 428.3 51.3 423.6 56.5 418.2 64.3 404 69.1 395.2 74.3 376.6 76.1 361.2 76.6 357.3 77.2 352.5 77.5 350.5 77.8 348.4 78.2 345 78.4 343 78.6 340.9 78.9 338.3 79.1 337.2 79.4 334.4 82.8 290.3 82.8 288.3L82.8 286.7 81.6 288.2C81 289 80.1 290.4 79.6 291.4 79.1 292.5 76.9 295.7 74.7 298.6 61.7 316 52.2 323.6 38.1 327.8 32.9 329.4 31.2 329.7 24.8 330.1 19.5 330.4 14.1 329.5 10.7 327.7L9.2 326.9 11.4 326C22.1 321.5 32.2 309.8 36.9 296.5 39.4 289.3 40.8 282.8 42.8 269.4L45 255 45 223.3C45 205.8 44.8 188.9 44.5 185.8 44.3 182.6 43.7 174.9 43.2 168.8 42 153.3 42 128.4 43.2 119.4 45.5 101.3 48.6 93 57.2 81.6 63.8 72.9 76.2 64.2 86.3 61.2 91.8 59.6 101.7 58.8 107.1 59.7 118.7 61.4 126.5 65.2 133.5 72.4 141.5 80.6 145.9 88.1 147.8 96.7 149.6 105.2 148.7 119.9 146 126.3 143.1 133 141.5 136 140.2 137.3 139.4 138.1 138.8 139 138.8 139.3 138.8 139.5 137.3 141.3 135.4 143.2 131.8 146.9 125.9 151.2 123 152.1 122 152.5 120.8 153 120.5 153.3 120.1 153.6 117.9 154 115.6 154.2 108.9 154.7 102.1 152.5 97.4 148.4L95.3 146.5 95.6 149.4C95.9 151.3 97.2 154.7 99.5 159.2 102.6 165.4 103 165.9 103 164.1 103 163 103.6 160.9 104.3 159.5 106 156.1 108.3 155.3 113.3 156.1 117.9 156.9 121 159.1 121.9 162.2 122.3 163.5 122.7 167.2 122.9 170.5 123.4 178.5 123.4 178.5 125.6 176.3 128 174 130.7 173.1 134.4 173.6 140.1 174.3 142.3 177.6 142.8 186.2 142.9 189.2 143.3 191.9 143.5 192.2 143.7 192.4 143.9 192.3 143.9 192 143.9 191.7 144.8 190.6 145.8 189.6 147.4 188 148 187.8 150.6 187.8 153 187.8 154.2 188.1 156.4 189.7 158.8 191.3 159.4 192.1 160.5 195 161.6 198.4 162.3 202.4 162.4 207.1L162.5 209.4 163.3 207.6C165.2 203.2 170.2 201.3 174.6 203.2 178.8 205.1 179.6 206.5 181 213.7L182.3 220.2 184.3 218.1C185.4 216.9 187.1 215.9 188.2 215.7 190.9 215.2 194.9 216.4 196.6 218.3 198.3 220 200.2 224.2 200.8 227.4L201.3 229.6 202 227.8C203.5 224.1 207.9 221.8 212.2 222.6 215.1 223.2 219.1 227 220.7 230.6 221.4 232.3 222.4 235.8 222.8 238.5 223.3 241.2 224.1 244.5 224.5 245.8 226 249.6 226.1 250.9 225.2 250.5 224.8 250.3 222.1 249.5 219.3 248.6 215 247.2 213.7 246.6 211.2 244.1 209.5 242.5 206.9 239 205.4 236.4 202.1 230.7 200.4 229 202.8 233.7 203.7 235.6 204.9 238.2 205.5 239.4 206 240.7 207.1 242.6 207.9 243.6 208.6 244.6 209.1 245.5 209 245.5 208.8 245.5 206.9 244.8 204.7 244 202.6 243.2 200 242.2 199 241.9 193.6 239.9 188.5 234.4 184.5 226.3 183.7 224.5 182.7 223 182.5 223 181.6 223 184.3 229.2 186.9 233.3 190.1 238.3 190.1 238.3 180.6 233.6 169.4 228.2 168.4 227.4 166.4 223.5 165.5 221.6 164.4 218.5 164.1 216.7 163.2 211.9 162.3 211.6 162.7 216.2 162.9 218.3 163.3 220.9 163.6 221.9 163.9 222.9 164 223.9 163.9 224 163.8 224.1 162 223 159.9 221.4 157.8 219.9 154.1 217.4 151.6 215.8 146.1 212.3 145.4 211.1 144.2 201.9 143.7 198.4 143.2 195.3 143 195 142.9 194.7 142.9 197.8 143 201.8 143.3 208.8 143.2 209.2 142.3 208.5 141.8 208 139.5 206.1 137.3 204.2 135.1 202.3 131.8 199.6 130.1 198.1 126.6 195.2 125.7 193 124 184L123.2 180 123.4 184.9C123.5 187.6 123.8 190.5 124.1 191.4 124.4 192.9 124.2 192.7 121.6 190 120.1 188.3 117.1 185 115.1 182.6 111.5 178.3 110.9 177.7 106.7 173.1 104.5 170.7 111.2 179.9 116.8 186.9 124.3 196.5 136.8 207.6 152 218.5 167.2 229.3 175.6 234 190.7 240.2 194.6 241.9 198.7 243.6 199.6 244 202.9 245.4 215.2 250 220.1 251.6L225 253.3 224.9 256.2C224.9 257.7 224.6 262.9 224.4 267.6 224 276 224 276.2 222.8 275.9 206.4 272.3 196.7 269.5 184.3 264.5 175.3 260.9 159.8 253 151.2 247.6 144.6 243.5 133.5 235.9 131.6 234.2 131.2 233.9 128.7 231.7 126 229.4 109.9 215.2 97 199.3 89.4 184.1 87.7 180.7 86.3 178.4 86.3 179 86.3 181.3 88 193.5 88.8 197 91.7 209 97.7 222.7 104.9 233.4 115.6 249.4 135.3 267 158.1 280.8 163 283.8 187 295.7 188.1 295.7 188.3 295.7 189.5 296.2 190.8 296.7 195 298.6 201.5 300.9 208.2 303 219.1 306.4 228.2 308.9 229.1 308.9 230.1 308.9 230.1 309.5 229.1 311 228.7 311.6 227.5 313.7 226.4 315.6 224.1 319.9 214.2 334.1 209.7 339.7 207.9 342 205.2 344.8 203.8 346L201.2 348.1 198.6 343.1C195.8 337.6 193.5 331.1 190.4 319.7 189.3 315.6 188.3 312.2 188.2 312 188.1 311.9 187.7 312.4 187.4 313.1 187 313.8 186.1 315.9 185.3 317.6 183.7 320.8 182 324 180 327.1 176.3 333 172.5 338.4 170.5 340.6L168.3 343.2 166.1 338.6C160.8 327.2 156.3 314.9 154.9 307.4 154.5 305.4 154 303.8 153.8 303.8 153.6 303.8 151.6 307.4 149.3 312 145.3 319.8 141.4 325.4 135.8 331.3 134.5 332.7 133.2 333.6 133 333.4 132.1 332.4 124.7 312.8 123.1 307.1 121.1 300 120.3 295.4 120.3 290.4 120.3 287.7 120 286.4 119.4 285.8 118.3 284.9 117.9 285.4 116.2 289.3 113 296.9 110.4 300.7 103.3 308.6 101.1 311.1 99 313.5 98.8 313.9 98.5 314.4 98.1 314.7 97.8 314.7 97 314.7 93.2 301.4 92.3 295.4 92.2 294.1 91.8 291.1 91.4 288.8 90.1 279.2 89.3 267.9 89.5 261.1L89.7 253.8 88.7 257.6C86.1 267 80.1 275.9 72.9 281.3L69.9 283.6 69.2 280.2C68.8 278.4 68.1 275.7 67.6 274.3 67.2 272.9 66.6 270.6 66.4 269.1 66.1 267.7 65.5 265.1 65.1 263.4 64.6 261.6 64 257.3 63.7 253.8 63.5 250.4 63.1 247 63 246.3 62.8 245.7 62.6 242.1 62.4 238.3 61.7 227 60.9 221.3 60.9 228.2 60.8 229.9 60.6 235.8 60.3 241.2 60 246.5 59.7 253.7 59.7 257 59.3 273.5 56.2 289.4 51.2 300.3 45.8 312.1 45.7 312.7 50.7 305.2 56.8 296.1 62.5 281.8 62.6 275.3 62.7 274.3 62.9 273 63.1 272.4 63.6 271.2 64.5 274.7 66.4 284.3L67.4 289.3 70.8 286.9C74.4 284.5 81.6 277.7 84 274.4L85.5 272.5 87.1 284C89.4 300.5 91.5 310 94 315.6 94.4 316.5 95.2 318.3 95.7 319.6 96.2 320.8 96.8 321.7 96.9 321.5 97.1 321.4 98.1 320 99.2 318.4 101.2 315.6 107 309.4 107.4 309.7 107.4 309.8 106.6 317.1 105.5 326 99.8 372.5 95.9 392.5 90 404.1 86.8 410.6 83.4 414.9 74.5 424.2 71 427.9 70.3 428.8 71.6 428.2 79.5 424.2 89.4 413.2 94.1 403.3 99.9 390.8 102.8 377.2 109.1 331.4 109.4 328.9 110 325.1 112.2 310.1 113.1 303.9 113.8 301.4 115.3 298.4L117.2 294.6 117.8 299C118.7 304.6 120.6 311.3 124.6 322.4L127.8 331.1 127.2 339.8C124.7 375.6 119 399.6 108.4 419.1 103.1 428.8 89.4 441.3 79.3 445.8 74.7 447.8 65.3 450.2 60.6 450.4 58.4 450.6 54.2 450.5 51.3 450.2z" style="stroke-width:0.6;stroke:#000"/>
  <path d="M232.3 418.2C236.8 409.4 240.1 399.6 242.6 387.4 244.7 377 244.9 375.1 244.9 362.6L244.9 351.9 246.2 354.2C247 355.5 249.6 359.2 252.1 362.5 259.3 371.9 259.6 372.4 259.5 375.3 259.5 378.3 257.4 385.2 253.4 395.7 251.9 399.8 250.7 403.2 250.9 403.4 251.4 403.9 258 391.5 261.4 383.4 262 382 262.1 382.1 263 385.4 263.6 387.3 264.7 390 265.4 391.5 266.2 393.1 266.8 394.7 266.8 395.1 266.8 396.9 261.4 406.4 258.8 409.3 255.5 412.9 245.9 419.3 241.9 420.6 240.2 421.2 238.7 421.8 238.6 422 238.2 422.4 231.9 423.8 230.3 423.8 229.6 423.8 230 422.5 232.3 418.2z" style="stroke-width:0.6;stroke:#000"/>
  <path d="M280.2 405.3C271.6 396.6 269 392.2 265.9 381.4 265.1 378.5 265.1 377.6 265.7 375.9 267.1 371.9 270.2 368 277.6 360.5L285.2 353 285.5 355.6C285.7 357.1 286 362.7 286.2 368.1 286.4 373.5 286.7 378.7 286.7 379.6 286.8 380.6 286.9 382.1 287 383 287.1 387.7 287.5 382.6 288.2 368L288.9 351.8 291 354.1C292.1 355.3 294.2 357.1 295.6 358.1 299.3 360.6 303.4 364.9 305.5 368.5 307.2 371.5 307.2 371.5 307.2 381L307.2 390.4 304.7 392.8C303.4 394.1 299.8 397.4 296.8 400.2 293.8 402.9 290.3 406.6 289 408.3 287.8 410.1 286.6 411.6 286.4 411.5 286.3 411.5 283.5 408.7 280.2 405.3z" style="stroke-width:0.6;stroke:#000"/>
  <path d="M262.8 371.2C262.8 370.5 259.1 365.2 257 362.9 254.5 360.1 251.9 356 249.2 350.4 246 343.7 244.8 339.2 245 334.2L245.1 330.4 247.9 328.2C251.5 325.5 256.8 319.7 258.3 316.8 259.6 314.2 260.5 313.8 262.8 314.7L264.5 315.4 264.5 329.9C264.5 337.8 264.6 344.2 264.8 344.1 264.9 344 265.8 338.3 266.8 331.4 268.8 317.9 269.1 315.7 269.3 315.5 269.4 315.4 271.2 315.5 273.4 315.8 278 316.3 279.7 317.7 282.9 323.4L285 327.1 285 336.6C285 346 285 346.2 283.4 348.9 282.5 350.4 278.4 355 274.3 359.2 270.2 363.3 266.2 367.9 265.3 369.3 263.7 371.7 262.8 372.5 262.8 371.2z" style="stroke-width:0.6;stroke:#000"/>
  <path d="M231.3 329.3C233.1 324.8 233.9 321.1 234.2 316.3 234.5 312.6 234.9 310.7 235.3 310.7 235.7 310.7 238.6 311.1 241.7 311.5 244.9 312 248.7 312.5 250.1 312.7 254.2 313.3 254.4 313.3 254.7 313.6 255.1 314 250.8 320.2 248.4 322.7 244.9 326.5 241.9 327.9 232.6 330 231.1 330.3 231 330.2 231.3 329.3z" style="stroke-width:0.6;stroke:#000"/>
  <path d="M286.3 323.2C285.8 321.8 284.7 319.6 283.9 318.4L282.4 316.2 285.3 316C286.9 315.9 289.5 315.9 291.1 316L293.9 316.2 291.6 318.9C290.3 320.4 288.8 322.6 288.2 323.7L287.2 325.8 286.3 323.2z" style="stroke-width:0.6;stroke:#000"/>
  <path d="M357.7 789C382 787.2 405 783 429.8 775.8 435.9 774 452.6 768.2 455.2 767 456.4 766.4 457.6 765.9 457.9 765.9 458.1 765.9 460 765.1 462 764.2 463.9 763.3 469.7 760.8 474.8 758.6 479.9 756.5 484.4 754.4 484.9 754 485.7 753.4 488.1 752 497.3 746.8 499.2 745.8 506.6 741.3 511.4 738.5 512.3 737.9 521.2 731.9 524.7 729.5 526.5 728.3 534.3 722.4 539.9 718 554.5 706.7 575.7 685.8 588.8 670 596 661.2 605.5 648.4 609.5 641.8 611 639.4 613.3 635.7 614.7 633.5 618.4 627.6 619.9 625.1 623.8 618.2 625.2 615.6 631 604.3 631.2 603.8 631.3 603.4 633.9 597.7 636 593.1 643.5 577.2 653.5 544.9 657.2 525 658.4 518.5 660.1 506.8 661.3 497.6 662.2 490.4 662.3 471.8 662.4 247.9L662.6 6.1 498.5 6.1 334.3 6.1 334.3 398.2 334.3 790.3 342 789.9C346.2 789.7 353.3 789.3 357.7 789z" style="fill:#fdd208;stroke-width:0.6;stroke:#000"/>
  <path d="M572.9 591.6C571.5 590.1 570.3 587.1 569.7 584 568.7 579 568.9 563.2 570 553 570.1 551.9 570.4 548.9 570.6 546.5L571 542 502.3 542 433.6 542 432.7 545C431.6 548.8 430.1 551.2 426.9 554.1L424.4 556.4 412 556.4 399.6 556.4 399.2 552.8C399 550.9 398.9 547.7 399 545.8L399.2 542.3 396.5 542.1C393.8 542 393.8 542 393.8 543.6 393.8 544.5 394.1 547 394.6 549.2 398.5 567.5 398.3 580.6 394.1 587 391 591.5 389.7 591.9 375.4 592 365.2 592 363 591.9 362.4 591.2 362 590.6 361.7 588.3 361.8 584.2 361.8 576.6 363.6 568.7 368.4 554 370.3 548.2 371.8 543.2 371.8 542.8 371.8 542.2 369.8 542 364 541.9L356.1 541.7 356.2 533.4C356.2 526.2 356.3 525 357.2 524.1 357.8 523.6 367.5 516.6 378.8 508.5L399.2 493.9 522.4 494.1C590.1 494.1 645.6 494.3 645.8 494.4 646.1 494.6 646.2 503.9 645.9 510.3 645.9 510.8 645.2 511.6 644.3 512.1 643.4 512.7 640.7 514.5 638.4 516.3 636 518 633.1 520.2 631.9 521 629.3 522.9 629.3 523.5 631.1 530 631.9 532.7 633 537.3 633.5 540.3 634.9 548.7 633.8 556.4 630.9 557.3 630.3 557.5 629.7 557.9 629.7 558.2 629.7 558.5 624.8 558.8 617.7 558.8L605.8 558.8 604.2 555.8C602.8 553.2 602 550.3 601.2 544.3L600.9 542.3 597.1 542.1C595.1 542 593.4 542.2 593.4 542.4 593.4 542.7 594 544.8 594.9 547.2 601 565 603.7 582 601.2 587.8 599.5 591.8 599.2 591.9 585.8 592.2 575.5 592.5 573.6 592.4 572.9 591.6z" style="stroke-width:0.6;stroke:#000"/>
  <path d="M594.4 587.4C594.6 586.6 594.4 586.4 593.9 586.8 593.3 587.1 593.2 587.1 593.7 586.4 594.3 585.6 594.3 579.9 593.8 577.8 593.6 577 593.2 575.3 592.5 571.2 591.9 568 591.8 567.7 591.3 567.8 591 567.8 590.7 566.7 590.7 565.3 590.6 563.8 590.3 562.4 589.9 562.2 589.5 562 589.3 561.6 589.3 561.3 589.4 561 589 559.2 588.4 557.3 587.9 555.4 587.5 553.7 587.6 553.6 587.6 553.5 587.4 553.2 587 553 586.6 552.7 586.2 551.8 586.1 550.9 586.1 550 585.6 548.3 585.1 547.1 584.5 545.9 584.1 544.7 584.1 544.5 583.8 542.8 583.2 542.6 578.9 542.6 573.7 542.6 574.1 542.2 573.5 549.8 573.3 552 573 555.7 572.8 557.9 572.6 560.1 572.4 566.6 572.4 572.4 572.4 580.5 572.7 583.5 573.4 585.7L574.4 588.6 584.3 588.5C593.5 588.5 594.2 588.4 594.4 587.4z" style="fill:#e22b25;stroke-width:0.6;stroke:#e22b25"/>
  <path d="M384.1 587.6C384.8 587.6 386.4 583.5 386 582.7 385.9 582.3 385.9 581.8 386.1 581.6 386.8 580.9 386.8 578.8 386.2 578.1 385.8 577.5 385.8 577.2 386.3 576.9 386.8 576.6 386.9 576.7 386.5 577.2 386.2 577.7 386.3 577.8 386.7 577.6 387.3 577.2 387.2 565.7 386.6 558.8 386.4 557 386.1 554 386 552.1 385.6 546.7 385 542.9 384.5 542.6 383.9 542.2 375.9 542.4 375.5 542.8 375.3 542.9 375.1 543.4 375.1 543.8 375 544.3 374.7 545 374.5 545.4 374.1 546 374.2 546.1 374.8 545.8 375.3 545.4 375.3 545.6 374.6 546.4 374.1 547 373.6 548.3 373.4 549.2 373.2 550.2 372.7 551.7 372.4 552.7 372 553.6 371.6 554.7 371.5 555 371.4 555.3 371.1 556.4 370.8 557.5 370.4 558.5 370.3 559.3 370.5 559.3 370.7 559.3 370.5 559.7 370.2 560.1 369.9 560.5 369.5 561.5 369.3 562.4 369.1 563.2 368.8 564.2 368.6 564.6 368.4 564.9 368 566 367.8 567 367.5 568 366.9 570.4 366.4 572.3 365.8 574.2 365.3 577.7 365.1 580.1 365 582.5 364.8 584.7 364.6 585.1 364.5 585.5 364.6 586 364.9 586.2 365.2 586.4 365.3 586.8 365.1 587.1 364.9 587.5 365 587.6 365.4 587.4 365.7 587.2 366.1 587.2 366.3 587.4 366.5 587.8 381.4 588 384.1 587.6z" style="fill:#e22b25;stroke-width:0.6;stroke:#e22b25"/>
  <path d="M392.8 582.3C393.9 579.2 394.4 567.8 393.6 562.8 393.4 561.4 393.1 559.3 392.9 558.2 392.3 553.6 391.9 551.8 391.5 551.8 391.3 551.8 391.1 550.9 391 549.7 390.8 546.7 390.6 545.9 390 545 389.7 544.4 389.7 544.3 390.2 544.6 390.8 544.9 390.7 544.7 390.2 543.8 389.8 543.1 389.2 542.6 389 542.6 388.7 542.6 388.6 542.8 388.8 543.1 389 543.4 388.9 543.8 388.5 544.1 388.2 544.3 388.1 544.7 388.5 545.1 388.7 545.5 389.2 547.5 389.4 549.6 389.6 551.8 389.9 554.6 390.1 556 390.7 559.6 390.7 574.9 390.1 581.2L389.6 586.7 391 585C391.8 584 392.6 582.8 392.8 582.3z" style="fill:#e22b25;stroke-width:0.6;stroke:#e22b25"/>
  <path d="M598.2 575.3C597.8 571.2 596.6 564.7 595.7 561.9 595.3 560.9 595 559.6 594.8 558.9 594.4 556.8 592.3 550.1 591.6 548.8 591.2 548.1 590.8 547 590.8 546.3 590.6 544.2 589.9 542.8 588.8 542.8 588 542.7 587.8 543 588 544.2 588.2 545.1 588.5 546.3 588.8 546.9 589.8 549 593.9 561.7 594.3 563.5 594.4 564.5 594.9 565.7 595.3 566.1 595.6 566.6 596 567.5 596.1 568.2 596.4 570.8 596.8 573.5 596.8 573.5 596.9 573.5 597 573.9 597.1 574.5 597.7 577.5 598.5 578.1 598.2 575.3z" style="fill:#e22b25;stroke-width:0.6;stroke:#e22b25"/>
  <path d="M626 554.1C626.5 553.7 626.7 550.4 626.3 550.4 626.2 550.4 626.1 548.8 626 546.9 625.8 543.4 625.4 540.6 624.7 538 624.5 537.2 624.3 536 624.2 535.4 624.2 534.8 623.9 533.7 623.7 533 623.5 532.3 623.2 531.2 623.1 530.4 622.9 529.7 622.7 529 622.5 528.9 622 528.4 619.3 530 619.7 530.6 619.9 531 618.6 531.3 617.4 531.1 617.1 531.1 617.1 531.3 617.3 531.6 617.5 531.9 617.4 532.2 617 532.2 616.7 532.2 615.8 532.7 615.2 533.4 614.5 534 613.6 534.5 613.1 534.5 612.7 534.5 612.5 534.7 612.6 535 612.8 535.3 612 535.8 611 536.3 609.9 536.7 609.1 537.2 609.3 537.5 609.5 537.8 609.3 538 609 538 608.7 538 607.8 538.4 607.2 539 606.6 539.5 605.7 540 605.3 540 604.2 540 604.5 548.8 605.7 549.9 605.9 550.1 606.1 550.7 606.1 551.2 606.1 551.7 606.4 552.7 606.9 553.3 607.7 554.4 608.3 554.5 616.5 554.5 621.4 554.5 625.7 554.3 626 554.1z" style="fill:#e22b25;stroke-width:0.6;stroke:#e22b25"/>
  <path d="M422.5 551.2C423.2 550.5 423.6 549.7 423.4 549.5 423.3 549.2 423.4 548.9 423.8 548.6 424.2 548.4 424.1 548 423.6 547.3 423 546.6 423 546.5 423.7 546.9 424.2 547.2 424.4 547.1 424.2 546.6 424.1 546.1 424.1 545.1 424.4 544.2 424.8 542.7 424.7 542.6 422.7 542.5 416.3 542.3 403.5 542.5 403.2 542.8 402.7 543.2 402.3 550.6 402.6 551.6 402.8 552.1 405.3 552.3 412.1 552.4 420.9 552.4 421.4 552.4 422.5 551.2z" style="fill:#e22b25;stroke-width:0.6;stroke:#e22b25"/>
  <path d="M630.5 547.1C630.4 543.4 630.2 541.3 629.4 536.8 629.1 535.4 628.9 534.1 628.9 533.8 628.9 533.6 628.7 533.3 628.4 533 628.2 532.8 628 531.8 628 530.7 628 529.7 627.6 528.6 627.1 528.2 626.6 527.8 626.4 527.3 626.6 527 626.7 526.7 626.6 526.4 626.3 526.2 625.7 525.8 625.8 527.3 626.4 527.9 626.6 528.1 626.6 528.6 626.5 529 626.3 529.4 626.5 530.5 626.9 531.4 627.3 532.3 627.7 533.3 627.7 533.5 627.8 533.7 627.9 534 627.9 534.1 628 534.2 628.1 535.5 628.2 537.1 628.3 538.7 628.5 540.3 628.7 540.7 628.9 541 629.3 543.5 629.5 546.3 629.9 551.9 630.7 552.5 630.5 547.1z" style="fill:#e22b25;stroke-width:0.6;stroke:#e22b25"/>
  <path d="M429.3 543.9C429.3 542.7 428.4 541.9 428.3 543 428.3 543.3 428.2 543.9 428.1 544.4 428 544.9 428.2 545.3 428.6 545.3 429 545.3 429.3 544.7 429.3 543.9z" style="fill:#e22b25;stroke-width:0.6;stroke:#e22b25"/>
  <path d="M600.9 534.5C600.9 532.6 600.6 531.1 600.3 531.1 600.1 531.1 599.9 530.6 600.1 530 600.3 529.1 600 529 596.7 529.1 592.1 529.3 362.8 529.4 360.9 529.2 359.5 529 359.4 529.1 359.3 533.5L359.1 538 480 538 600.9 538 600.9 534.5z" style="fill:#e22b25;stroke-width:0.6;stroke:#e22b25"/>
  <path d="M605.3 535.2C605.1 535 605.8 534.4 606.8 534 607.8 533.5 609.2 532.7 609.8 532.1 610.4 531.5 611.2 531.1 611.7 531.1 612.1 531.1 612.3 530.8 612.1 530.5 611.9 530.2 612.1 529.9 612.5 529.9 612.9 529.9 615.6 528.1 618.4 526 621.2 523.9 624.8 521.3 626.4 520.3 628 519.3 629.5 518.2 629.7 518 629.8 517.7 631.3 516.6 632.9 515.5 634.5 514.4 635.9 513.3 636 513.1 636.1 512.8 636.5 512.6 637 512.6 637.4 512.6 638.1 512.1 638.5 511.4 638.9 510.8 639.6 510.3 640.1 510.3 640.6 510.3 641.3 509.6 641.7 508.7 642.5 506.7 643 502.2 642.4 502.2 641.7 502.2 637.5 504.7 637.3 505.2 637.2 505.5 636.7 505.7 636.3 505.7 635.8 505.7 635.6 505.9 635.8 506.3 636 506.6 635.8 506.8 635.4 506.8 635 506.8 634 507.4 633.3 508.1 632.5 508.8 632 509 632.3 508.6 632.6 508.1 632 508.3 631.1 509.1 630.2 509.9 629.3 510.8 629.2 511 629.1 511.2 628.7 511.4 628.3 511.4 627.9 511.4 627.1 512 626.5 512.6 626 513.2 625.1 513.8 624.7 513.8 624.3 513.8 623.9 514 623.9 514.2 623.9 514.5 623.2 515.1 622.4 515.5 621.5 516 620 517.1 619 517.9 618.1 518.8 617 519.5 616.6 519.5 616.2 519.5 615.9 519.8 615.9 520.1 615.9 520.4 615.5 520.7 615 520.7 614.5 520.7 614.1 520.9 614.1 521.3 614.1 521.6 613.7 521.8 613.2 521.8 612.7 521.8 612.5 522.1 612.7 522.4 612.9 522.7 612.7 523 612.2 523 611.8 523 611 523.5 610.4 524.1 609.8 524.8 609.1 525.3 608.7 525.3 608.4 525.3 607.3 526 606.4 526.8 604.9 528.1 604.6 528.8 604.6 531.6 604.5 534.7 604.6 535.7 605.3 535.7 605.4 535.7 605.4 535.5 605.3 535.2z" style="fill:#e22b25;stroke-width:0.6;stroke:#e22b25"/>
  <path d="M603.3 523.6C604.4 522.6 605.6 521.8 605.9 521.8 606.2 521.8 606.9 521.3 607.5 520.7 608.1 520 609 519.5 609.5 519.5 610 519.5 610.7 519 611.1 518.4 611.5 517.7 612.1 517.2 612.4 517.2 613.1 517.2 615.9 515.3 618 513.5 618.7 512.9 619.3 512.6 619.3 512.9 619.3 513.1 620 512.6 620.8 511.8 621.7 511 622.6 510.3 623 510.3 623.3 510.3 624.5 509.4 625.6 508.4 626.7 507.4 627.4 506.9 627.1 507.4 626.8 507.9 627.7 507.3 629.2 506.2 632 503.8 636.8 500.8 637.2 500.9 637.4 500.9 637.9 500.5 638.3 499.9 638.7 499.1 638.7 498.8 638.3 498.8 638 498.8 637.9 498.4 638.2 498 638.4 497.6 638.1 497.7 637.5 498.2 636.9 498.7 636.6 498.7 636.8 498.3 637.2 497.7 613.4 497.6 518.7 497.6 400.9 497.6 400.1 497.6 398.9 498.8 398.3 499.4 397.5 499.9 397.2 499.9 396.9 499.9 396.6 500.1 396.6 500.3 396.6 500.6 395.9 501.1 394.9 501.5 393.9 502 393.3 502.5 393.5 502.8 393.7 503.1 393.4 503.4 392.9 503.4 392.4 503.4 392.1 503.6 392.2 503.8 392.4 504.1 392 504.3 391.4 504.4 390.7 504.4 389.7 505 389.2 505.6 388.6 506.3 387.8 506.8 387.5 506.8 387.1 506.8 386.8 507.1 386.8 507.4 386.8 507.7 386.5 508 386.1 508 385.6 508 384.8 508.5 384.2 509.1 383.7 509.8 382.8 510.3 382.4 510.3 381.9 510.3 381.7 510.5 381.9 510.9 382.1 511.2 381.9 511.4 381.5 511.4 381.1 511.4 380 512.2 379 513.1 378.1 514 376.5 515 375.5 515.5 374.5 515.9 373.8 516.5 373.9 516.8 374.1 517 373.8 517.2 373.3 517.2 372.8 517.2 372.4 517.4 372.4 517.7 372.4 518 371.7 518.5 370.8 519 369 519.9 367.5 521.2 368.2 521.3 368.4 521.3 367.7 521.7 366.6 522.3 364.3 523.4 363.1 524.4 363.6 524.9 363.8 525.1 417.3 525.3 482.5 525.3L601.1 525.3 603.3 523.6z" style="fill:#e22b25;stroke-width:0.6;stroke:#e22b25"/>
  <path d="M573.6 440C570.1 436 568.9 424.8 570.3 408.8 570.6 405.1 571 399.5 571.2 396.2L571.6 390.3 503.1 390.4 434.5 390.6 433.6 393.6C432.4 397.2 430.1 400.6 427.3 403L425.3 404.7 412.8 404.6 400.4 404.4 400.3 398C400.2 394.4 400 391.2 399.8 390.9 399.6 390.6 398.3 390.4 396.8 390.4L394.2 390.4 394.6 392.2C394.8 393.2 395.7 398.6 396.7 404.1 398.2 412.7 398.4 415.2 398.2 420.9 397.8 431.1 395.8 436.4 391.4 439 389.6 440.1 388.3 440.2 376.6 440.4L363.8 440.6 363.1 438.9C362.1 436.3 362.9 425 364.5 418.3 365.3 415.1 367.5 407.7 369.5 401.8 373.1 390.7 373.2 390.2 372.5 390.4 372.3 390.4 368.7 390.4 364.5 390.4L356.8 390.3 356.8 381.9C356.8 372.6 356.7 373 361.5 369.9 362.9 369.1 365 367.6 366.1 366.8 367.3 365.9 372.2 362.4 377.1 358.9 385.4 353 391.9 348.3 397.6 344.2L400 342.4 523.5 342.4 647 342.4 647 350.7 647 359.1 642.5 362.5C640.1 364.3 636.4 367 634.4 368.3 632.4 369.7 630.7 371.1 630.5 371.5 630.4 371.9 630.9 374.4 631.7 377 633.8 384.2 634.9 391 634.9 396 634.9 402.1 634.2 404.4 631.7 405.9 629.9 407 629 407.1 618.4 407.1 607.4 407.1 606.9 407.1 606 405.9 604.4 403.9 602.8 399 602.3 394.8 601.8 390.4 601.7 390.3 597.1 390.4L594.1 390.4 594.8 392.8C595.3 394.1 596.3 397.2 597.1 399.7 600.8 410.8 603.5 425.2 603 431.4 602.6 436.4 601.8 438.2 599.3 439.8 597.5 441 596.7 441.1 586 441.1 575.8 441.1 574.4 440.9 573.6 440z" style="stroke-width:0.6;stroke:#000"/>
  <path d="M595 435.7C595.6 434.3 595.1 425.2 594.5 425.2 594.5 425.2 594.3 424.5 594.3 423.8 594.2 423 593.7 420.6 593.1 418.6 592.6 416.5 592.1 414.5 592 414.2 591.9 413.9 591.6 413.3 591.3 412.8 591 412.3 590.7 411.3 590.6 410.5 590.5 409.7 590.1 408.9 589.7 408.6 589.3 408.4 589.3 408.2 589.5 408.2 589.8 408.2 589.7 407.7 589.3 407.2 588.6 406.4 588.6 406.3 589.3 406.7 590 407.1 590.1 407.1 589.5 406.4 589.2 406 588.8 405.4 588.8 405.2 588.7 404.6 588.2 403.1 587.3 400.5 586.8 399.4 586.3 397.6 586.1 396.5 585.4 392.1 584.9 391.7 579.7 391.6 577 391.5 574.9 391.6 574.9 391.9 574.8 392.1 574.7 393.6 574.6 395.2 574.5 396.8 574.3 399.9 574.1 402.1 572.9 415.6 572.7 424.1 573.3 428.7 574.3 435.4 574.5 436 575.6 436.4 576.3 436.6 580.8 436.9 585.7 436.9 594.4 437.1 594.5 437.1 595 435.7z" style="fill:#e22b25;stroke-width:0.6;stroke:#e22b25"/>
  <path d="M386 435.4C386.6 434.7 386.6 434.2 386.1 433.6 385.5 433 385.5 432.9 386.1 433.2 386.5 433.5 386.9 432.9 387.2 431.4 387.8 428.4 387.7 402.4 387 401.9 386.8 401.7 386.6 400.9 386.6 400.1 386.6 399.3 386.3 398.3 386 397.8 385.5 397.2 385.6 397.1 386.2 397.5 386.8 397.8 386.9 397.8 386.5 397.2 386.3 396.8 386 395.4 386 394.1 385.9 392.8 385.8 391.5 385.8 391.1 385.7 390.8 383.9 390.5 381.4 390.4 377.4 390.3 376.4 390.6 376.1 392 375.8 393.7 375 395.9 374.5 396.6 374 397.3 374 397.3 374.7 396.9 375.3 396.6 375.2 396.9 374.5 397.7 373.9 398.4 373.6 398.9 373.8 398.9 374.1 398.9 373.9 399.4 373.5 399.9 373 400.5 373 400.7 373.4 400.5 373.7 400.3 373.5 401.2 372.9 402.5 372.2 403.8 371.6 405.5 371.5 406.3 371.3 407.1 371 408.1 370.8 408.4 370.6 408.8 370.4 409.3 370.3 409.6 369.7 412.4 369.6 413.1 369.5 413.1 369.5 413.1 369.3 413.5 369.2 413.9 369.1 414.4 368.6 416.2 368.1 418 367.7 419.7 367.1 421.9 367 422.9 366.8 423.8 366.4 425.8 366.2 427.2 365.8 429.3 365.7 435.6 366 436.3 366 436.4 370.4 436.4 375.7 436.4 384.1 436.4 385.3 436.3 386 435.4z" style="fill:#e22b25;stroke-width:0.6;stroke:#e22b25"/>
  <path d="M391.7 433.5C391.6 433.3 391.7 432.9 392 432.7 394.2 431.3 395.6 419.1 394.4 411.6 394 409.6 393.6 407 393.5 405.9 393.3 404.8 393.1 403.2 392.9 402.4 392.7 401.6 392.4 399.7 392.3 398.1 392.1 396.5 391.7 395 391.3 394.8 390.9 394.5 390.8 394.3 391.1 394.3 391.4 394.3 391.2 393.9 390.8 393.4 390.4 392.8 390.3 392.6 390.7 392.8 391.1 393 391.2 392.8 391 392 390.9 391.4 390.5 390.7 390.2 390.5 389.5 390.1 389.6 394.4 390.5 400.1 391.2 404.7 391.3 427 390.7 433.1 390.5 434.9 390.6 435.2 391.2 434.6 391.7 434.3 391.9 433.8 391.7 433.5z" style="fill:#e22b25;stroke-width:0.6;stroke:#e22b25"/>
  <path d="M599.5 425C599.3 423.8 599.2 422.8 599.1 422.7 599 422.7 599 422.1 598.9 421.6 598.9 421 598.6 420.2 598.3 419.8 598 419.3 598 419.1 598.4 419.3 598.7 419.5 598.4 417.8 597.9 415.5 596.6 410.7 596.3 409.5 596 407.9 595.9 407.2 595.4 405.7 594.9 404.6 594.4 403.4 594.1 402.4 594.3 402.4 594.5 402.4 594.3 402 593.9 401.5 593.5 401.1 593.4 400.7 593.7 400.7 593.9 400.7 593.8 400.3 593.5 400 593.2 399.6 592.7 398.3 592.5 397.2 592.3 396.1 591.9 394.7 591.6 394 591.4 393.4 591.1 392.6 591.1 392.3 590.9 391.3 589.8 390.3 589.2 390.6 588.6 391 589 394 590 396.4 590.4 397.3 590.7 398.3 590.8 398.5 590.9 398.7 591 399.1 591.1 399.2 591.1 399.4 591.3 399.7 591.3 400 591.4 400.4 592.4 402.8 593.2 404.7 593.4 405.2 593.6 405.9 593.7 406.3 594.1 408.1 595.3 411.4 595.9 412.2 596.4 412.8 596.4 412.9 595.8 412.6 595.3 412.3 595.3 412.6 595.9 414.4 596.2 415.6 596.6 416.8 596.6 417.1 596.7 418.5 597.6 421.4 598 421.4 598.2 421.4 598.4 422.2 598.4 423 598.4 426.9 598.6 427.8 599.1 427.5 599.5 427.3 599.6 426.2 599.5 425z" style="fill:#e22b25;stroke-width:0.6;stroke:#e22b25"/>
  <path d="M627.2 398.5C627 396.1 626.6 393.8 626.2 393.4 625.8 393 625.8 392.6 626.2 392.3 626.5 392.2 626.6 391.4 626.5 390.7 626.2 389 625.9 387.7 625.1 384.2 624.8 382.6 624.4 380.8 624.3 380.2 624.2 379.6 623.9 378.6 623.7 378 623.3 377.1 623.2 377.1 621.6 378 620.7 378.6 619.9 379.2 619.9 379.5 619.9 379.7 619.6 379.9 619.3 379.9 618.3 379.9 613.5 383.4 613.8 383.9 613.9 384.1 613.6 384.3 613 384.4 612.4 384.4 611.3 385 610.6 385.6 609.9 386.3 608.9 386.8 608.5 386.8 608.1 386.8 607.9 387.1 608.1 387.4 608.3 387.7 608.1 388 607.6 388 606 388 605.1 389.9 605.3 392.9 605.5 396 606.9 401.1 607.9 402.3 608.4 402.8 611 403 618 402.9L627.6 402.9 627.2 398.5z" style="fill:#e22b25;stroke-width:0.6;stroke:#e22b25"/>
  <path d="M423.4 400.2C423.8 399.8 424.4 397.9 424.9 395.8 425.5 392.5 425.5 391.9 424.7 391.2 423.7 390.2 421.1 390 420.6 390.8 420.4 391.2 419.7 391.2 419 390.9 418.3 390.7 414.7 390.4 410.9 390.4 403.3 390.3 403.8 389.9 403.3 395.9 403.2 398.3 403.3 399.8 403.8 400.2 404.7 401.2 422.3 401.1 423.4 400.2z" style="fill:#e22b25;stroke-width:0.6;stroke:#e22b25"/>
  <path d="M631.1 390.1C630.7 388.9 630.4 387.9 630.4 387.8 630.6 387.2 629.4 381.1 628.9 380.2 628.6 379.6 628.2 378.3 628.1 377.3 628 376.4 627.5 375.2 627.1 374.8 626.4 374.1 626.4 374.1 626.5 375.1 626.6 375.7 626.8 376.2 626.9 376.3 626.9 376.4 627 376.7 627.1 377 627.2 377.3 627.3 377.7 627.4 377.7 627.6 378 628 380 628.2 381.9 628.4 382.9 628.8 385.4 629.3 387.5 629.8 389.7 630 391.4 629.9 391.4 629.7 391.4 629.9 391.8 630.2 392.2 630.6 392.6 630.7 393.2 630.5 393.3 630.3 393.5 630.3 394.2 630.6 394.7 631.4 396.7 631.9 392.5 631.1 390.1z" style="fill:#e22b25;stroke-width:0.6;stroke:#e22b25"/>
  <path d="M429.9 393.4C429.7 393.2 429.8 392.6 430.2 392.2 430.7 391.5 430.7 391.2 430.1 390.8 429.5 390.5 429.2 390.6 429 391.2 428.8 392.2 429.3 393.8 429.9 393.8 430.1 393.8 430.1 393.6 429.9 393.4z" style="fill:#e22b25;stroke-width:0.6;stroke:#e22b25"/>
  <path d="M601.7 385.5C601.9 384.5 601.8 379.8 601.5 378 601.5 377.8 547.3 377.6 481.2 377.6 385.7 377.6 360.9 377.7 360.5 378.3 360 378.9 360 382.8 360.4 386.1 360.5 386.6 387.5 386.8 480.9 386.8L601.4 386.9 601.7 385.5z" style="fill:#e22b25;stroke-width:0.6;stroke:#e22b25"/>
  <path d="M609.8 381.4C611.2 380.3 612.2 379.3 611.9 379.1 611.7 378.8 611.8 378.7 612.1 378.8 612.9 379.1 615 377.8 617.1 376 618.1 375.1 619 374.4 619.2 374.5 619.4 374.5 621.1 373.3 623 371.7 624.8 370.2 626.6 369.1 626.9 369.3 627.2 369.5 627.4 369.3 627.3 368.9 627.2 368.5 628.2 367.6 629.5 366.9 630.9 366.2 633.5 364.4 635.5 362.9 637.4 361.5 639.2 360.3 639.5 360.3 639.7 360.3 640.8 359.4 641.8 358.2 643.3 356.5 643.6 355.7 643.5 353.6 643.4 351.9 643.1 351.1 642.5 351.1 641.7 351.1 636.5 354.4 636.2 355.2 636 355.5 635.6 355.7 635.2 355.7 634.8 355.7 634.1 356.1 633.7 356.5 633.3 357 632.1 357.8 631.1 358.3 630 358.9 629.1 359.5 629.1 359.8 629.1 360.1 628.7 360.3 628.2 360.3 627.7 360.3 627.5 360.5 627.7 360.9 627.9 361.2 627.6 361.4 627.1 361.4 626.6 361.4 626.3 361.7 626.5 362 626.7 362.3 626.4 362.6 625.7 362.6 625.1 362.6 624.5 362.9 624.5 363.2 624.5 363.5 624.1 363.8 623.6 363.8 623.1 363.8 622.9 364 623.1 364.3 623.3 364.6 623.1 364.9 622.6 364.9 622.2 364.9 621.3 365.4 620.6 366.1 619.9 366.7 619.1 367.2 618.8 367.2 618.4 367.2 618.2 367.5 618.2 367.8 618.2 368.1 617.8 368.4 617.3 368.4 616.8 368.4 616.4 368.6 616.4 368.9 616.4 369.3 616.1 369.5 615.7 369.5 615.2 369.5 614.4 370 613.8 370.7 613.3 371.3 612.6 371.8 612.3 371.8 611.5 371.8 610.1 373.4 610.5 373.8 610.7 374 610.2 374.1 609.3 374.1 608.4 374.1 607.9 374.4 608.1 374.7 608.3 375 608.1 375.3 607.8 375.3 607.4 375.3 606.7 375.7 606.3 376.2 605.8 376.6 605.6 377 605.8 377 606 377 605.9 377.3 605.7 377.7 605.4 378.1 605.2 379.5 605.2 380.8 605.1 383.8 606.4 384 609.8 381.4z" style="fill:#e22b25;stroke-width:0.6;stroke:#e22b25"/>
  <path d="M603.2 372.7C604.3 372 605.9 370.9 606.8 370.1 607.7 369.4 608.4 369 608.4 369.3 608.4 369.6 608.6 369.6 608.8 369.2 609.5 368.3 618 362.6 618.7 362.6 619 362.6 619.6 362.1 620 361.4 620.4 360.8 621.2 360.3 621.7 360.3 622.3 360.3 622.9 359.8 623 359.2 623.2 358.7 624.3 357.8 625.4 357.4 626.5 357 627.2 356.4 627.1 356.2 627 356 627.5 355.6 628.2 355.5 629 355.3 630.7 354.2 632 353.1 634.3 351.2 635.1 350.8 636.2 351 636.4 351 636.6 350.7 636.5 350.4 636.4 350 636.9 349.4 637.6 349.1 638.4 348.7 638.9 348.1 638.9 347.7 638.9 347.3 639.2 347.1 639.5 347.3 639.8 347.5 640.2 347.4 640.4 347 640.6 346.6 601.1 346.5 520.6 346.4L400.4 346.4 398.5 348.2C397.5 349.1 396.4 349.9 396.1 349.9 395.7 349.9 395.6 350.2 395.8 350.5 396 350.8 395.7 351.1 395.2 351.1 394.7 351.1 393.7 351.6 393 352.2 392.4 352.8 391.5 353.4 391 353.4 390.6 353.4 390.3 353.6 390.3 353.9 390.3 354.3 389.9 354.5 389.4 354.5 388.9 354.5 388.7 354.8 388.8 355.1 389 355.4 388.8 355.7 388.4 355.7 388 355.7 387.1 356.2 386.4 356.8 385.7 357.5 384.9 358 384.6 358 384.3 358 384 358.2 383.8 358.4 383.6 359.1 378.2 362.6 377.5 362.6 377.2 362.6 377.1 362.9 377.3 363.2 377.5 363.5 377.2 363.8 376.7 363.8 376.2 363.8 376 364 376.2 364.4 376.5 364.8 376.4 364.9 376 364.7 375.7 364.5 375.2 364.6 375 364.9 374.8 365.2 374.4 365.3 374 365.1 373.6 364.9 373.5 365 373.8 365.4 374 365.8 373.9 366.1 373.4 366.1 372.9 366.1 372.1 366.6 371.5 367.2 371 367.8 370.3 368.4 370 368.4 369.2 368.4 367.8 369.9 368.1 370.3 368.2 370.5 368.2 370.5 368 370.4 367.5 370 364.3 373 364.6 373.5 364.7 373.7 418 373.8 483 373.8 598 373.7 601.3 373.7 603.2 372.7z" style="fill:#e22b25;stroke-width:0.6;stroke:#e22b25"/>
  <path d="M575.6 276.5C572.1 270.8 571.6 261.6 573.5 239.6 573.9 234 574.3 229 574.3 228.6 574.3 227.9 564.3 227.8 505.7 227.8L437 227.8 436.1 231.3C435.2 234.1 434.5 235.4 431.5 238.4L427.9 242 415.5 242 403.1 242 402.7 239.1C402.5 237.5 402.5 234.3 402.7 232L403.1 227.8 400.5 227.8C399 227.9 397.7 228.1 397.5 228.3 397.3 228.5 398 234 399.2 240.7 401.7 255.7 401.6 263.7 398.7 270.5 397.5 273.4 394.5 276.5 392.4 277 390.5 277.4 368.2 277.8 366.5 277.4 365.8 277.2 365.5 276.2 365.2 273 364.5 265.8 366.8 254.7 372.7 237.3 374.1 233 375.3 229.1 375.3 228.6 375.3 227.9 374.1 227.7 367.7 227.8 363.6 227.8 360.1 227.8 360 227.6 359.8 227.3 359.5 214.1 359.7 211.6 359.7 210.4 360.3 210 383.7 193.3 387.7 190.4 391.9 187.4 393.1 186.5 394.2 185.7 396.9 183.8 399 182.4L402.9 179.7 526.3 179.7 649.7 179.7 649.6 188.1C649.5 195.6 649.4 196.6 648.4 197.3 647.8 197.8 644 200.5 640 203.4L632.7 208.6 633.6 211.6C635.7 219.2 636 220.8 636.9 226.4 637.5 229.8 637.8 233.5 637.6 235.1 637.1 239.1 636 242.6 635.2 242.6 634.8 242.6 634.1 243 633.8 243.5 633.2 244.2 631 244.3 621.1 244.3 609.4 244.3 609.2 244.3 608.3 243 606.9 241.1 604.9 234.2 604.9 231.4 604.9 230 604.6 228.6 604.2 228.3 603.8 228 602 227.8 600.3 227.8 597.2 227.9 597.1 227.9 597.3 229.3 597.4 230.1 598 232.1 598.6 233.7 600 237.2 604 252.6 604.9 257.4 605.2 259.4 605.5 263.3 605.5 266.1 605.5 272.5 604.5 275.5 601.6 277.2 599.8 278.3 598.7 278.4 588.2 278.4L576.7 278.4 575.6 276.5z" style="stroke-width:0.6;stroke:#000"/>
  <path d="M597.4 273.1C598.2 271.7 597.7 262.1 596.8 260.4 596.5 259.8 596.4 259.3 596.6 259.3 596.8 259.3 596.7 259 596.3 258.5 595.9 258.1 595.5 256.6 595.4 255.3 595.3 254 594.9 252.6 594.7 252.2 594.4 251.9 594.2 251.1 594.2 250.7 594.2 250.2 593.9 249.2 593.5 248.4 593.2 247.6 592.7 246 592.5 244.9 592.3 243.8 591.9 242.8 591.6 242.6 591.4 242.4 591 241.4 590.9 240.3 590.7 239.3 590.3 238.2 590.1 238 589.8 237.8 589.6 237.3 589.6 236.8 589.7 236.4 589.5 235.7 589.4 235.4 589.2 235.1 589 234.7 589 234.5 589 234.4 588.7 233.7 588.5 233.1 588.3 232.4 587.8 231.2 587.5 230.3 586.9 228.8 586.8 228.8 582.4 228.8 579.6 228.8 577.7 229 577.4 229.4 577.2 229.9 577.3 229.9 577.8 229.6 578.5 229.2 578.5 229.3 578 229.9 577 231.3 576.5 232.9 577.3 232.4 577.7 232.2 577.8 232.3 577.5 232.8 577.3 233.2 577 235.3 576.9 237.6 576.7 239.9 576.4 244.2 576.2 247.2 575.7 253.2 575.7 265.4 576.3 268.4 576.8 271 577.8 273.4 578.5 273.9 578.9 274.1 583.2 274.3 588 274.3 596.4 274.3 596.8 274.3 597.4 273.1z" style="fill:#e22b25;stroke-width:0.6;stroke:#e22b25"/>
  <path d="M389.1 271.6C390.8 264.7 390.9 252.1 389.3 236.3 389.1 233.9 388.9 231.2 388.9 230.3 388.9 229.4 388.6 228.8 388.1 228.8 387.7 228.8 387.5 228.5 387.6 228.3 387.8 228 386.2 227.8 384.1 227.7 380.2 227.6 378.9 228.3 378.5 230.3 378.3 230.9 378.2 231.4 378.1 231.5 378.1 231.6 378 231.8 377.9 232.1 377.8 232.3 377.6 232.9 377.5 233.4 376.9 234.9 375.3 240 375 241 374.9 241.6 374.6 242.3 374.4 242.6 374.2 242.9 374 243.6 373.8 244.2 373.7 244.7 373.4 246 373.1 247.1 372.7 248.1 372.7 248.9 372.9 249 373.1 249 373 249.2 372.6 249.4 372.1 249.7 370.9 253.8 369.7 259 369.2 261.7 368.8 264.5 368.6 268.9L368.4 273.7 378.5 273.7 388.5 273.8 389.1 271.6z" style="fill:#e22b25;stroke-width:0.6;stroke:#e22b25"/>
  <path d="M394.9 270.3C395.7 269.6 396 269.2 395.5 269.4 394.9 269.7 395.1 269.4 395.8 268.6 396.4 267.8 396.6 267.4 396.1 267.7 395.5 268 395.4 268 395.8 267.3 397.6 264.4 398 245.7 396.2 243 396 242.6 395.8 241.9 395.7 241.3 395.7 240.7 395.6 240.2 395.5 240.1 395.4 240 394.8 235.4 394.8 234.1 394.7 233.7 394.5 233.4 394.3 233.4 394 233.4 393.9 232.7 393.9 231.8 394 230.7 393.8 230.2 393.2 230.4 392.5 230.5 392.5 230.4 393.1 229.6 393.8 228.9 393.7 228.8 393.1 228.8 392.6 228.8 392.3 229.3 392.3 230.2 392.3 231 392.5 231.4 392.9 231.2 393.2 231 393.1 231.2 392.7 231.7 392.4 232.2 392.2 232.7 392.3 232.9 392.7 233.3 393 235.7 393.6 242.3 394.5 251.9 393.8 269.7 392.6 271.2 391.5 272.5 393.4 271.8 394.9 270.3z" style="fill:#e22b25;stroke-width:0.6;stroke:#e22b25"/>
  <path d="M601.9 262.4C601.7 260.2 601.4 257.8 601.2 257 600.6 254.5 600.2 252.2 600.1 251 600 250.3 599.8 249.5 599.6 249.2 599.4 248.8 599 247.7 598.8 246.6 598.6 245.5 598.4 244.4 598.3 244 598.3 243.7 598.1 243.2 597.9 242.9 597.7 242.6 597.3 241.4 597.1 240.3 596.9 239.2 596.4 237.6 596.1 236.8 595.8 236 595.4 235 595.3 234.6 595.2 234.1 594.9 233.6 594.6 233.4 594.3 233.2 594.2 232.7 594.2 232.2 594.5 230.6 593.4 228.8 592.2 228.8 591 228.8 590.9 229.5 592.2 232.5 594.6 238.7 596.3 243.3 596.5 244.9 596.7 245.9 597.2 247.7 597.7 248.8 598.2 249.9 598.6 251.3 598.6 251.9 598.6 252.4 598.9 253.6 599.2 254.5 599.6 255.4 599.9 256.7 600 257.3 600.1 258.4 600.7 261.1 601.2 263.4 601.3 263.8 601.4 264.8 601.4 265.6 601.4 266.3 601.6 266.8 601.9 266.6 602.2 266.5 602.2 264.6 601.9 262.4z" style="fill:#e22b25;stroke-width:0.6;stroke:#e22b25"/>
  <path d="M629.6 239.4C630.2 238.3 629.1 225.6 628.3 224.1 628 223.8 627.7 222.6 627.6 221.6 627.4 219.7 627 217.6 626.8 217.4 626.7 217.3 626.7 216.9 626.6 216.6 626.6 216.2 626.1 215.6 625.6 215.3 624.8 214.8 624.3 214.9 623.2 215.8 622.5 216.5 621.2 217.3 620.3 217.8 619.5 218.2 618.8 218.8 618.8 219 618.8 219.3 618.3 219.5 617.9 219.5 617.4 219.5 617.1 219.8 617.3 220.1 617.5 220.4 617.3 220.7 616.9 220.7 616.6 220.7 615.6 221.3 614.8 222 614 222.7 613.6 222.9 613.8 222.4 614.2 221.7 612.3 223.1 610.7 224.7 610.5 224.9 609.9 225.3 609.2 225.6 607.4 226.7 607.7 233.2 609.8 237.8L610.9 240.3 620 240.3C627.4 240.3 629.2 240.1 629.6 239.4z" style="fill:#e22b25;stroke-width:0.6;stroke:#e22b25"/>
  <path d="M426.4 236.4C426.6 235.5 426.9 234.4 427.1 233.9 427.7 232.4 427.9 230.3 427.6 229 427.3 227.9 427 227.8 417.6 227.9 412.2 228 407.8 228.1 407.7 228.2 407.7 228.3 407.3 228.3 406.9 228.4 406.4 228.4 406.1 230 406 233.2L405.9 238 415.9 238 426 238 426.4 236.4z" style="fill:#e22b25;stroke-width:0.6;stroke:#e22b25"/>
  <path d="M634.1 232.6C633.7 228.4 633.3 225.1 633 223.6 632.9 223.1 632.5 221.2 632.1 219.4 631.7 217.5 631.1 216.2 630.8 216.4 630.5 216.6 630.5 217 630.7 217.4 630.9 217.8 631.1 218.7 631.2 219.5 631.2 220.3 631.4 221.3 631.6 221.7 631.9 222.1 632.1 223.3 632 224.3 631.9 225.3 631.9 226.3 632 226.4 632.4 227.5 632.7 229.5 632.9 232.5 633.1 234.4 633.3 236.3 633.3 236.7 633.3 237 633.6 237.2 633.9 237 634.3 236.8 634.3 235 634.1 232.6z" style="fill:#e22b25;stroke-width:0.6;stroke:#e22b25"/>
  <path d="M433.3 229C433.4 228.6 433 228.4 432.5 228.4 431.9 228.5 431.5 229.2 431.4 230.5L431.2 232.5 432.2 231.1C432.8 230.3 433.3 229.3 433.3 229z" style="fill:#e22b25;stroke-width:0.6;stroke:#e22b25"/>
  <path d="M604.2 219.4L604.4 214.9 483.6 215 362.9 215.2 362.7 219.6 362.5 224 483.3 223.9 604 223.8 604.2 219.4z" style="fill:#e22b25;stroke-width:0.6;stroke:#e22b25"/>
  <path d="M611.8 218.8C612.6 218.1 614 217.1 614.9 216.7 615.7 216.2 616.4 215.6 616.4 215.4 616.4 215.1 616.7 214.9 617 214.9 617.7 214.9 621.6 212.2 629.4 206.2 631.2 204.8 633.7 202.9 634.8 202.1 636 201.2 637.3 200.3 637.8 200.1 638.9 199.6 639.9 198.8 641.1 197.5 641.7 196.9 642.4 196.4 642.8 196.4 643.7 196.4 645.9 194.1 645.5 193.5 645.4 193.3 645.5 192.9 645.7 192.8 646 192.6 646.1 191.8 646.1 190.9 646 190 645.9 188.8 645.9 188.2 645.9 187.7 645.6 187.2 645.3 187.2 644.9 187.2 644.8 187.5 645 187.8 645.2 188.1 645 188.4 644.5 188.4 644.1 188.4 643.3 188.9 642.7 189.5 642.1 190.2 641.3 190.7 640.9 190.7 640.5 190.7 639.8 191.2 639.4 191.8 639 192.5 638.3 193 637.9 193 637.3 193 634 195.3 630.7 197.9 630.2 198.4 629.5 198.8 629.3 198.8 629 198.8 628.1 199.5 627.1 200.4 626.2 201.3 624.6 202.4 623.6 202.8 622.5 203.2 621.8 203.8 622 204.1 622.2 204.3 621.9 204.5 621.4 204.5 620.9 204.5 620.5 204.8 620.5 205.1 620.5 205.4 620.1 205.7 619.6 205.7 618.7 205.7 616.9 207.1 617.3 207.5 617.4 207.6 616.9 208 616.1 208.4 615.1 208.9 614.8 208.9 615.1 208.4 615.3 208 615.1 208 614.5 208.5 614 208.9 613.7 209.5 613.9 209.8 614.1 210.1 613.9 210.3 613.6 210.3 613.2 210.3 612.2 210.9 611.4 211.7 610.6 212.5 609.7 213 609.5 212.8 608.3 212.2 607.4 217 608.1 220 608.4 221.4 609.3 221.2 611.8 218.8z" style="fill:#e22b25;stroke-width:0.6;stroke:#e22b25"/>
  <path d="M630.6 213.8C630.1 212.8 629.6 212 629.5 212 629 212 629.9 214.6 630.5 215 631.5 215.7 631.5 215.6 630.6 213.8z" style="fill:#e22b25;stroke-width:0.6;stroke:#e22b25"/>
  <path d="M604.7 210.3C606.4 209.6 610.4 207.1 611.7 205.8 612.2 205.4 613.2 204.7 614 204.3 614.9 203.8 616.1 202.9 616.7 202.3 617.3 201.6 618.2 201.1 618.6 201.1 619.3 201.1 623.9 197.9 627.4 195.1 627.9 194.7 628.5 194.3 628.7 194.3 629.3 194.1 631.8 192.4 634 190.5 635 189.7 636.1 189.1 636.3 189.3 636.5 189.5 636.6 189.4 636.6 189 636.6 188.7 637 188.4 637.4 188.4 637.9 188.4 639.4 187.3 640.7 186.1L643.3 183.8 522.8 183.8C442.6 183.8 402.5 183.9 402.7 184.3 402.9 184.6 402.6 184.9 402.1 184.9 401.6 184.9 401.3 185.2 401.6 185.6 401.8 186 401.8 186.1 401.4 185.9 401 185.6 400.4 185.9 399.9 186.3 399.4 186.8 398.7 187.2 398.4 187.2 398.1 187.2 397.8 187.4 397.8 187.6 397.8 187.9 396.4 189 394.6 190.1 392.9 191.2 391.4 192.3 391.4 192.5 391.4 192.8 391.1 193 390.7 193 390.2 193 389.4 193.5 388.8 194.1 388.3 194.8 387.4 195.3 387 195.3 386.5 195.3 386.3 195.5 386.5 195.9 386.7 196.2 386.5 196.4 386.1 196.4 385.6 196.4 384.8 197 384.2 197.6 383.7 198.2 382.9 198.8 382.5 198.8 382.1 198.8 381.3 199.3 380.8 199.9 380.2 200.5 379.4 201.1 379 201.1 378.6 201.1 378.2 201.3 378.1 201.5 378 201.7 376.3 203.1 374.4 204.5 372.5 205.9 370.9 207.3 370.8 207.5 370.7 207.8 370.3 208 369.9 208 368.8 208 367.1 209.6 367.5 210.3 368 211.1 602.4 211.1 604.7 210.3z" style="fill:#e22b25;stroke-width:0.6;stroke:#e22b25"/>
  <path d="M316.7 499.4C316.8 498.7 317.1 495.7 317.3 492.6 317.8 485.7 318.7 484 324.5 478.3L328.6 474.3 328.5 470.5C328.5 468.4 328.3 467.1 328.2 467.6 327.1 470.6 325 473.6 321.4 477.4 319.1 479.8 317 482.3 316.8 483 316.4 484.2 316.4 484.2 312.7 482.3 310.7 481.2 308.7 480.3 308.2 480.3 307.8 480.3 306.2 479.5 304.7 478.6 303.3 477.6 301.9 477.1 301.7 477.4 301.3 478.1 303.8 480.3 307.6 482.5 312.3 485.1 314.6 487.2 314.9 489 315.1 489.9 315.4 492.9 315.6 495.8 316 501 316.3 501.8 316.7 499.4z" style="fill:#fff;stroke-width:0.6;stroke:#000"/>
  <path d="M315 462.1C315.2 457 315.5 452.1 315.7 451.2 316.1 448.8 318.2 446.7 323.4 443.2 325.7 441.6 327.8 440.2 327.9 440.1 328.4 439.7 328.4 436.4 327.9 436.4 326.6 436.4 316.7 443.9 315.2 446L313.6 448.4 311.3 446.3C309.3 444.5 306.5 443.1 300.1 440.7 299.3 440.4 299.1 440.7 299.1 442.1 299.1 443.7 299.4 443.9 303 445.1 307.9 446.8 311.5 449.9 312.3 453.3 312.6 454.7 313.1 458.4 313.3 461.5 313.6 464.7 313.8 467.5 313.9 467.7 313.9 468 314 469 314.1 470 314.2 474.1 314.6 470.8 315 462.1z" style="fill:#fff;stroke-width:0.6;stroke:#000"/>
  <path d="M281.8 208C289.3 205.3 294.9 200.1 297 193.7L298 191 296.7 192.7C294.5 195.7 290.5 199.3 286.5 201.8 282.2 204.6 279.6 205.7 274.6 207.1 272.7 207.6 269.7 208.4 268 208.8L264.8 209.7 271.4 209.5C276.4 209.3 279 208.9 281.8 208z" style="fill:#fff;stroke-width:0.6;stroke:#000"/>
  <path d="M302.4 145.1C309.9 141.7 312.6 133.9 308.9 126.2 306.6 121.6 303.5 118.1 291.3 107 286.8 102.9 282.3 98.6 281.4 97.4 278.5 93.7 276.4 87.8 276.2 82.3L275.9 77.5 279.9 77.7 283.8 77.9 284.2 82.8C284.4 85.5 284.8 88.2 285 88.8 286.9 93.6 293.4 97.8 299.7 98.2 305.8 98.7 309.5 97.6 312.7 94.5 314.1 93 315.7 91.1 316.2 90.2 317 88.7 317.2 88.7 320 88.9 321.7 89.1 323.7 89 324.5 88.7 325.7 88.2 325.5 88.1 322.4 87.2 320.5 86.7 316.7 84.8 313.9 83.1 309.4 80.3 304.1 77.8 299.4 76.3 296.5 75.4 285.3 74.2 279.6 74.2 274.8 74.1 273.7 73.9 270.4 72.4 268.4 71.4 266.6 70.7 266.5 70.8 266.3 71 267.6 72.4 269.3 74L272.4 76.9 273.1 82.3C274.5 94 277.2 98.4 288.5 107.7 295 113.2 302.4 121.1 304.5 125.2 305.8 127.5 306.3 129.4 306.5 132.2 306.7 135.8 306.6 136.4 305.1 138.6 302.5 142.5 298.8 143.7 288.2 143.9 287.6 143.9 287.7 144.2 288.5 145.1 289.4 146.1 290.2 146.2 294.8 146.2 298.6 146.2 300.6 145.9 302.4 145.1z" style="fill:#fff;stroke-width:0.6;stroke:#000"/>
  <path d="M295.8 94C290.5 92.4 288.4 89.2 288.1 82.5 287.9 78.6 287.9 78.5 289.2 78.3 290 78.2 291.2 78.2 292 78.4 293.2 78.7 293.4 79.1 293.4 82.2 293.4 86.2 294.1 88.2 296 89 297.2 89.6 297.3 89.5 296.9 88.1 296.3 86 297 82.4 298.2 81.1 299 80.3 299.6 80.1 300.8 80.5 303.7 81.3 312.5 85.8 312.8 86.6 313.3 87.8 309 92.6 306.4 93.8 303.7 95 299.4 95.1 295.8 94z" style="stroke-width:0.6;stroke:#000"/>
</svg>