<svg xmlns="http://www.w3.org/2000/svg" width="543" height="647">
  <defs>
    <marker viewBox="0 0 10 10" refX="0" refY="5" markerUnits="strokeWidth" markerWidth="4" markerHeight="3" orient="auto">
      <path d="M0 0L10 5 0 10z"/>
    </marker>
    <marker viewBox="0 0 10 10" refX="10" refY="5" markerUnits="strokeWidth" markerWidth="4" markerHeight="3" orient="auto">
      <path d="M10 0L0 5 10 10z"/>
    </marker>
  </defs>
    <path d="M0 0L543.3 0 543.3 399.9C528.7 490.4 468.4 529.6 414.9 560.6 358 593.5 313.3 594.2 273.7 647.1 240.4 604.3 173.2 588.6 117.6 558.3 58.4 526 6.3 476 0 399.9L0 0" style="fill-rule:evenodd;fill:#222"/>
    <path d="M210.6 273.2C206.7 274.2 206.1 272 207.3 269.3 211.8 241.1 229.5 234.4 256.1 223 296.9 212.4 329.7 227.4 345.4 262.6 348.3 269.6 346.2 272.8 340.5 271.8 318.4 267 297.9 263.2 277.6 263.2 253.8 263.2 232.5 267 210.6 273.2" style="fill-rule:evenodd;fill:#3184bb"/>
    <path d="M200.9 295.6L204.3 299.3C253.5 285.2 301.3 285.5 347.9 299.1L351.6 295.9C326.3 287.1 300.7 283.4 274.8 283.5 250.5 283.6 225.8 287 200.9 295.6L200.9 295.6zM195.8 284.1C254.9 265.1 307.4 268.3 356 283.9L356.5 289.6C330.3 282.4 305.6 276.5 278.8 276.6 252.9 276.6 226.4 280.9 198.6 288.9L195.8 284.1 195.8 284.1zM273.5 44.1C274 42.3 275.6 41.7 277 41.6 276.8 41.8 276.7 42.1 276.7 42.5 276.7 43.3 277.3 44 278 44 278.8 44 279.4 43.3 279.4 42.5 279.4 42.1 279.3 41.7 279 41.5 280.4 41.5 282 41.8 282.5 43.8 282.5 45.9 279.6 46.7 278.1 46.8 276.6 46.8 273.7 45.2 273.5 44.1L273.5 44.1zM230.6 58.9C214.8 95 257.7 115.3 274.3 114 289.3 112.9 323.8 101.3 323.5 62.5 313.4 77.9 291.4 94.7 275.8 94.1 260.5 93.5 235.4 90.1 230.6 58.9" style="fill-rule:evenodd;fill:#fff"/>
    <path d="M203.9 501.2C206.7 495.7 211 495 216.6 496.4 251.7 505.9 292.4 505.5 337.3 497.7 343.7 496.1 348.9 496 351.6 499.4L363.9 530.1C365.3 533.7 365.4 536.9 360.6 538.2 308.6 553.4 251.7 552.7 197.4 541.7 191.7 540 190.6 538 192.1 533.1L203.9 501.2 203.9 501.2zM348.9 470.7C349.4 422.2 349.3 374 348.6 326.2 346.9 314.8 342.2 308 334.3 305.8 316.2 298.7 296.3 297.3 277.3 297.4 258.3 297.5 239.3 299.6 220.3 306.5 213.3 311.6 210 321 210.4 334.7 209.3 378.6 209 430.5 209.2 474.4 209.4 479.6 210.9 483.1 214.5 485.7 254 496.1 294.4 497.6 335.7 489.4 344.4 486.6 349.4 480.9 348.9 470.7L348.9 470.7zM253.4 349.8C254.7 333 268.3 324.8 275.4 324.6 283 324.3 297.3 334.4 297.5 349.8L297.5 410.3C282.8 411.4 273.2 415.1 253.4 410.3L253.4 349.8" style="fill-rule:evenodd;fill:#f0622d"/>
    <path d="M12.2 10.2L531.1 10.2 531.1 393.1C521.2 479.8 462.7 520.3 411.5 550 357.2 581.5 311.5 579.1 273.6 629.8 241.8 588.8 176.6 575.8 123.5 546.8 66.9 515.8 18.2 466 12.2 393.1L12.2 10.2 12.2 10.2zM363 500C359.8 493.3 358.1 486.3 356.9 480.7 356.4 421.3 356.2 362.4 358.8 310.4 359 303.6 361.4 299 366.1 296.7L366.3 284.2C363.1 282 359.8 279.4 357.4 276.7 349 222.7 302.9 211.2 276.7 211.8 258.7 212.3 234.5 220.3 216.7 238.4 208.4 246.9 204 259.1 197.9 273L189.6 284.2 189.6 293.1C199.5 303.9 202 318.2 201.6 334.9 203.1 382.4 200.6 429.3 200.2 476.5 200.2 483.9 199.6 491.1 197.4 497.7L181.2 536.8C179.6 539.7 180.3 542.1 182.3 544 250 563.3 315.8 558.6 379.2 541.2L378.9 535.4 363 500 363 500zM411.6 416.6C407.7 412.3 406.7 406.6 397.9 405.6 384.5 405.6 381.2 401.3 386.4 391.9 371.1 380.1 367.2 372.1 379.9 369.3 370.9 355.8 367.5 345.2 376.1 341.2 374.1 330.8 380.2 327 383.1 326.4 386.1 325.8 393.5 327 393.9 337.4 407 335.4 409.5 349.3 401.3 359.7 410.8 362.8 410.5 370.8 404.1 384.4 405.9 385.2 409.4 384.4 410.1 386.8 410.9 391.6 409.2 396.9 412.7 400.9 411.9 396.2 411.6 391.4 411 386.7 407.7 359.7 407.8 332.8 412.1 305.8 412.8 302.5 412.6 299.8 410.7 298.4L393.2 277.3C388.9 279.8 382.7 279.1 374.7 275.3 372.7 273.2 376.2 269.9 378.4 267.8 371.7 256.8 368.7 247.9 373.7 243.5 379.1 239.1 386.3 243.5 394.4 251.9 397.4 248.7 403 250.8 404.8 253.4 406.9 256.4 406.8 262.1 404.7 270.6 408.7 276 412.7 281 417 285.6 419.3 277.7 421.9 269.9 425 262.2 416.1 247.1 398.7 251.1 404.1 235.6 389.2 236.1 380.8 232.6 386.7 220.4 376 209.3 372.9 201.3 382.8 198.7 374.5 180.8 379.6 176.1 391.7 178.9 393.8 170.1 398.5 165.8 402 165.8 405.3 165.8 409.6 168.5 411.8 178 418.1 177.6 422.3 177.4 423.4 179.3 425.1 182.4 423.9 187.5 420.1 196.7 432.1 196.5 433.9 202.1 425.2 209.8L422.4 221C425.6 220.6 427.2 219.4 429.6 218.7 432.6 218.2 433.5 219.4 432.3 222.2 430.5 228.1 428.8 234.8 430.7 245.4 432.1 234.5 436.1 227.6 438.1 218.6 441.2 204.6 439.4 181.6 438.6 177.6 437.1 169.8 435 162.7 431.9 157.5 425 156.7 420 152.3 415.8 146.2 416.1 143.8 417.9 141.9 420.4 140.2 413.6 124.4 413.5 112.5 423.2 109.6 432.6 106.8 438.3 118 442.4 134 448.6 136.7 449 143.5 446.1 152.6L452.1 179.8C454.8 193.2 456 206 451.7 216.5L442.6 251.3 447.3 248.7 451.5 237.4C453.6 233.6 454.3 234.6 457.4 234 454.7 217.1 455.8 206.9 467.2 210.7 461.6 197.7 463.3 193.5 465.4 190.4 467.5 187.3 473.6 186.1 478.7 190.4 482.7 178.8 490 177.2 493 179 495.9 180.6 502.4 184.5 496.2 200.6 507.1 208.1 504.3 215.5 492.2 222.8 494 229 494.9 234.4 493.1 238.2 491.8 241 489.2 243 485 243.7 489 254.4 485 256.1 468 255.8 468.1 258.4 468.7 260.5 468.2 263.6 461.4 264.1 453.7 262.3 446.1 261.7 442.3 266.2 439.7 270.8 434.6 275.4 430.2 284.8 427.4 295.9 425.9 308.3L436.7 302.7C435 290.9 439.2 285.8 446.2 283.8 448.1 284.4 449.2 285.5 449.9 286.9 466.7 279.8 478 278.8 480.5 283.6 483.3 289.6 474.9 296.5 463.3 303.8 463.9 305.2 464.1 306.8 462.5 308.7 456.9 315.6 449.6 316 440.5 310.1L424.8 325.3C418.7 339.7 423.9 346.6 423.4 357.3 424.6 373.8 425.1 397.6 432.2 425.8 437.6 416.1 435.1 404.2 436.5 393.4 436.6 391.1 438.3 389.4 440.7 391.1 441.9 393.5 443.7 394.8 445.4 395.5 447.3 392.6 442.5 386.3 442.2 379.5 440.1 367.1 445.3 366.4 453.8 371 448.3 354.6 449.8 345.7 461.3 347.8 463 335.5 468.7 331.4 472.1 331.4 475.5 331.5 481 334.8 481.8 348.1 496.6 348.7 499.1 354.3 489.4 364.8 499.5 372.6 496.3 381.1 479.9 390.4 490.7 396.4 486.6 404.1 467.9 414.2 474.8 429.5 467.5 433.4 448 430.1L440.7 443.7C439.5 446.3 438.5 447.7 439.9 451.7L445.7 469.7 430 479.5C426.3 473.4 426.5 460 416.6 457.4 409.7 466.7 403 469.3 396.6 462 389.1 464.9 382 458.6 386.6 451 398.8 443.9 398.8 437.4 421 443.8 417.8 434.8 417.1 424.2 411.6 416.6L411.6 416.6zM198.6 79.5C204 91.8 211.3 93.9 221 83.7L222.9 85.4C219.6 95.8 222.4 111.8 205.3 116 207.7 123.7 212.8 126.8 216.9 126.3 219.1 126 221.7 125 224.1 122.3 226.1 120 227 114.3 230.1 112 229.8 141.9 222.6 154.2 209.7 151.8 212.2 163.4 222.5 163.6 227.2 162 236 158.8 242.2 141.9 244.8 115.8L248.5 117.6 248.5 134.1C247.1 136.3 244.1 137 244.2 140.9 246.5 139.8 248.8 138.5 251.1 136.7 251.6 138.7 252.5 138.5 253.2 139.4 251.6 145.1 249.6 150.4 245.9 154.4 244.3 156.1 242.1 157 238.8 156 236.4 155 234.9 155.5 234.7 158.1 232.6 160.1 235.8 161.7 236.4 163.5 237.7 161.9 236.6 161 236.7 159.8 237.4 160.5 238.3 159.9 238.7 159 243.8 162.6 244.1 157.1 247.1 156 246.7 157.8 246.6 159.4 246.7 160.9 244.3 161.4 242.4 163.2 239.4 163.3 237.1 163.9 235.8 165.1 236.9 167.1 236.5 169.6 237.7 171.9 239.7 174.4 239.8 172.3 238.7 169.3 240 168 242.8 166.4 243.9 161.7 248.4 163.1 248.7 166.5 243.8 170.3 247.3 172.5 248.7 174.1 251 174.3 253.9 173.5 253 172.7 250.5 172.4 251.2 171 253.1 167.4 250 166.6 251.4 163.9 253.8 162.8 254.1 158.9 256.5 157.8 259.5 157 262.5 156.9 265.6 157.5 264.7 156.1 263.4 156 263.3 155.3 264.5 155 264.4 154.1 264.1 153.2 265 152.6 266 153.6 267 153.8 266.9 151.6 265.6 150.8 263.1 151.3 260.7 150.4 259.2 151.2 258.7 153.6 257.1 154 255.9 153.5 255.3 152.2 252.3 144.8 254.9 142.2 261.2 142.9 259 133.3 259.8 126.4 263.5 122.2 266 121.1 266.3 135.4 267.7 142.1 267.7 143.8 268.5 145 271 145.1 271.3 149.5 272 153.8 273.3 158 265.2 160.4 264.3 167.5 270.8 171.7 271.7 180.2 266.6 183.4 263.5 184.4 260.4 185.5 253 184 252 177.9 246.6 179.7 246 185.9 247.9 188.7 249.3 190.9 252.7 198 260.4 193.2 261.2 195.1 261.2 197.3 262.5 199.3L269.9 190.5C268.3 198.6 272.1 205.1 277.8 210.9 278.5 205.3 279.7 199.9 281.9 195 284.9 200.1 286.4 200.3 289.6 201.4 290.4 198.7 289.8 195.4 288.2 191.7 303.1 193.7 305.6 188.2 299.8 177.5 295.6 183.7 290.5 185.5 286.8 184.3 283.8 183.3 279.2 180.4 279.6 172.2 284.7 170.6 287.3 167.8 287.3 165.3 287.3 162.7 284.8 159.4 279.8 157.8L279.5 144.4C282.5 143.3 282.9 142.4 282.6 141.2 282 130.8 284.1 124.8 287.4 120.7 290.8 126.9 292 134.2 292.4 141.9 294.3 142.4 295.9 140.5 297.6 139.9 298.6 140.5 297.7 147 297.7 150.6 292.9 150.7 288.4 147 287.1 151.4 286.3 152.8 286.3 154.4 287 156L288.8 153.5C290.1 154.9 290.8 153.8 291.7 152.6 293.2 153.9 294.9 154.1 296.7 153.9 297.1 156.2 298.2 158.2 300.1 159.8 301.5 163.4 301.4 167.1 300.4 170.9 300.7 172.4 299.6 173 299.2 174.1 301.2 174.6 303.3 174.6 305.1 173.1 309.3 170.5 303.7 165.1 305.3 161.7 308.2 163.1 310.4 166.1 312.1 170.1L311.5 173.5C313.7 172.8 314.8 171.8 315.8 169.4 321.1 164.3 308.3 161 307.1 157.6 310.7 155.1 312.7 158.5 315.4 158.5 316.7 158.6 316.3 160.3 316.8 161.2 318.1 159.4 318.8 158.2 316.7 155.2 314 152.1 309.6 154.1 306.1 153.6 304.3 148.4 300.7 153 300.8 138 303 137.5 304 139.5 305.6 140.2 304.7 131.6 301.9 134.3 302.8 114.5 304.2 114 305.1 115.2 305.6 118 308.3 128.7 307 135.5 313.8 149.9 324.9 163.7 334.1 159.4 342.4 146.8 336.3 147.7 332.6 148.9 329.8 146.4 323.3 140.5 321.2 129.2 320.6 125.2 319.7 117.7 316.7 108.1 318 102.6 327.5 126.4 338.3 124.7 347.4 107.7 342.3 108.4 338.5 109.6 333.2 105.5 328.9 102.2 327.8 93.5 326.3 83.6 337.6 86.8 345.1 92.5 350.3 77.4 345.3 78.3 341.2 77.9 338.4 75.5 330.3 68 334.4 60.8 330.7 49.3 326.2 37.5 313.5 42 310.3 44.6 306.8 47.4 301.8 58.1 314.4 62.2 315.5 63.7 315.2 65.5 315.6 67.1L311 67.8 311.3 73.4 304.8 73.5 304 79.3C301.9 79.2 300.4 78.5 299.5 77.3 298.4 79.1 297.1 80 295.7 80.7 294.3 78.3 292.3 76.3 289.9 74.5 291.9 73.3 293.7 71.7 295.5 70.1 290.1 70.1 286.2 68.4 287.3 60.6 288.3 54.4 292.9 50.9 289.9 42.1 286.1 33.5 280 31.9 271 36.6 264.2 33.1 258.6 33.6 256.8 36 255.1 38.1 252.3 45.9 259.6 48.7 259.7 43.9 260.3 41.4 263.3 43.8 264.8 45.6 266.8 45.9 268 44.4 269.4 41.5 272.2 46.6 274.2 47.7 275.2 50.7 275 52.2 273.8 53.3 271.8 50.6 270.1 49.2 268.3 48.4 265.9 47.3 261.6 46.4 261.7 47.9 263.4 48 264.3 49.6 265.6 50.3 266.9 50.9 268.8 51.3 269.8 52.9 269.8 56.9 270.3 61 271.5 65.1 269.5 69.1 266.1 71 262.1 70.6 263 71.8 264.3 72.6 266.4 72.5 265.3 75.5 263 78.4 262.4 82 260.3 81.4 258.8 80.1 257.8 78.4 256.5 79.9 254.9 80.8 253 81.2 250.3 76.6 248.4 73.9 246.4 75.2 245.6 73.5 245.7 71 246.4 69.1 245.1 69.7 243.7 69.7 242.3 68.6 241.1 67.3 241 65.5 242.7 63.1 247.8 54.2 246.3 48 241.1 43.5 231.7 39 225.3 43.4 220.5 52.8 218.6 56.9 217.3 64 215.6 70.8 214.1 76.5 208.1 79.7 198.6 79.5L198.6 79.5zM143.9 416.6C147.7 412.3 148.7 406.6 157.6 405.6 170.9 405.6 174.2 401.3 169 391.9 184.3 380.1 188.3 372.1 175.6 369.3 184.5 355.8 187.9 345.2 179.3 341.2 181.4 330.8 175.3 327 172.3 326.4 169.3 325.8 162 327 161.5 337.4 148.4 335.4 145.9 349.3 154.1 359.7 144.6 362.8 145 370.8 151.4 384.4 149.6 385.2 146.1 384.4 145.4 386.8 144.6 391.6 146.2 396.9 142.7 400.9 143.5 396.2 143.9 391.4 144.4 386.7 147.8 359.7 147.6 332.8 143.3 305.8 142.6 302.5 142.8 299.8 144.7 298.4L162.2 277.3C166.5 279.8 172.7 279.1 180.8 275.3 182.7 273.2 179.2 269.9 177 267.8 183.7 256.8 186.8 247.9 181.8 243.5 176.3 239.1 169.1 243.5 161 251.9 158 248.7 152.4 250.8 150.6 253.4 148.5 256.4 148.6 262.1 150.7 270.6 146.8 276 142.7 281 138.4 285.6 136.2 277.7 133.5 269.9 130.5 262.2 139.3 247.1 156.7 251.1 151.3 235.6 166.2 236.1 174.6 232.6 168.7 220.4 179.4 209.3 182.6 201.3 172.6 198.7 180.9 180.8 175.9 176.1 163.7 178.9 161.6 170.1 156.9 165.8 153.4 165.8 150.2 165.8 145.8 168.5 143.6 178 137.3 177.6 133.2 177.4 132.1 179.3 130.3 182.4 131.5 187.5 135.3 196.7 123.3 196.5 121.5 202.1 130.3 209.8L133 221C129.9 220.6 128.3 219.4 125.9 218.7 122.8 218.2 121.9 219.4 123.2 222.2 124.9 228.1 126.6 234.8 124.8 245.4 123.3 234.5 119.3 227.6 117.3 218.6 114.2 204.6 116 181.6 116.8 177.6 118.3 169.8 120.4 162.7 123.6 157.5 130.4 156.7 135.4 152.3 139.6 146.2 139.3 143.8 137.5 141.9 135 140.2 141.8 124.4 141.9 112.5 132.3 109.6 122.8 106.8 117.1 118 113 134 106.8 136.7 106.4 143.5 109.3 152.6L103.3 179.8C100.6 193.2 99.5 206 103.7 216.5L112.8 251.3 108.1 248.7 103.9 237.4C101.8 233.6 101.1 234.6 98 234 100.8 217.1 99.6 206.9 88.2 210.7 93.8 197.7 92.1 193.5 90 190.4 87.9 187.3 81.8 186.1 76.8 190.4 72.7 178.8 65.5 177.2 62.4 179 59.5 180.6 53 184.5 59.2 200.6 48.4 208.1 51.1 215.5 63.2 222.8 61.4 229 60.6 234.4 62.3 238.2 63.6 241 66.2 243 70.5 243.7 66.4 254.4 70.4 256.1 87.4 255.8 87.4 258.4 86.7 260.5 87.2 263.6 94 264.1 101.8 262.3 109.3 261.7 113.1 266.2 115.8 270.8 120.8 275.4 125.3 284.8 128 295.9 129.6 308.3L118.7 302.7C120.5 290.9 116.2 285.8 109.2 283.8 107.4 284.4 106.3 285.5 105.5 286.9 88.8 279.8 77.5 278.8 75 283.6 72.1 289.6 80.6 296.5 92.1 303.8 91.5 305.2 91.4 306.8 92.9 308.7 98.5 315.6 105.8 316 114.9 310.1L130.7 325.3C136.7 339.7 131.6 346.6 132 357.3 130.8 373.8 130.3 397.6 123.2 425.8 117.8 416.1 120.3 404.2 118.9 393.4 118.8 391.1 117.1 389.4 114.8 391.1 113.6 393.5 111.8 394.8 110 395.5 108.1 392.6 112.9 386.3 113.3 379.5 115.3 367.1 110.1 366.4 101.6 371 107.1 354.6 105.7 345.7 94.1 347.8 92.4 335.5 86.8 331.4 83.3 331.4 79.9 331.5 74.5 334.8 73.7 348.1 58.9 348.7 56.3 354.3 66 364.8 55.9 372.6 59.1 381.1 75.6 390.4 64.7 396.4 68.9 404.1 87.6 414.2 80.6 429.5 87.9 433.4 107.5 430.1L114.8 443.7C116 446.3 117 447.7 115.5 451.7L109.7 469.7 125.5 479.5C129.1 473.4 129 460 138.8 457.4 145.7 466.7 152.4 469.3 158.9 462 166.3 464.9 173.4 458.6 168.8 451 156.6 443.9 156.6 437.4 134.5 443.8 137.6 434.8 138.3 424.2 143.9 416.6" style="fill-rule:evenodd;fill:#fff100"/>
    <path d="M438.8 136.4C435.5 140.2 430.9 141.9 425.1 141.5 424.1 137.5 421.8 133.3 420.6 128.6 418.8 121.9 418.7 114.9 423.8 112.5 429.7 111.4 434.8 119.4 438.8 136.4L438.8 136.4zM451.2 290.1C463.1 284.6 471.9 282.4 476.3 284.9 479.3 287.9 470.1 294.5 459 301.6 455.4 299.3 452.8 295.5 451.2 290.1L451.2 290.1zM394.3 257.5C388.4 253.4 381.8 242 376.7 245.3 372.3 250.9 380.3 260.9 383.2 267.1 388.4 264.6 392.1 261.4 394.3 257.5L394.3 257.5zM397.5 357C396.1 359 395.6 361.6 398.2 362 407.7 363.2 406.4 371 400.3 381.7 399.4 384 400.3 386.2 402 387 406.8 387.4 407.5 389.4 406.9 394 408.2 399.3 410.1 404.5 414.4 409.3 416.9 411.1 418.1 410.9 417.9 407.8 416 387.3 411.7 367.7 412.9 346.3 413.1 332.9 414.4 319.5 416.6 306.1 418.8 296.3 409 291 398.4 276.6 396.2 274.5 393.7 273.9 390.9 274.8 384.8 276.8 380.7 274 377.6 272.3 385.3 268.2 391.3 264.7 395.4 259.6 397.2 257.9 397.9 255.4 397.5 253.4 404.5 253.1 403.9 260.5 399.4 270.6L415.3 290.3C417.3 293.2 419.1 292.8 420.6 289.2 422.6 281.1 425.4 272.9 428.4 264.8 429.8 261.3 428.6 260.2 426.9 258.2 423.6 255.3 423 251.4 416.8 249.4 413.3 247.6 404.7 244.2 408 237 410.2 232.1 409.2 231.5 406.1 231.8 392.7 232.6 385.3 230.4 390.9 221.7 392.1 219.3 391.2 218.9 389.4 217.5 380.8 207.3 376.6 199.9 386 202.7 389.6 203.7 389.8 202.1 388.3 199.5 381.8 185.4 380.6 177.3 391.1 182.3 393.5 184.5 395.1 183.4 396 180 399.9 165.1 403.7 164.6 407.6 178.7 408.3 181.6 409.6 182.2 411.4 181.7 421.9 176.5 421.5 183.3 416.1 195.6 414.5 197.4 415.8 200.5 418.1 200.1 425.4 199.3 427.3 201.2 423.6 205.9 420.4 209 420.1 215.4 417.6 220.7 416.4 223.5 417.7 225.6 420.6 224.7L427.5 222.6C427.9 232.2 423 236.3 428.6 251.3 429.9 252.7 431.6 252.7 432.6 251.1 436.2 236.5 442.9 225.3 443.5 207.4 444.2 190.9 444.7 169.1 435.3 156 433 153 429.6 155.2 426.6 152.1L419.7 146 423.1 141.4C427.1 145.8 434.6 142.4 441.6 136.7 444.4 139.9 444.7 144.2 442.7 149.5 442.1 151.7 442.1 153.9 442.8 156.1 444.8 172.8 453.1 192.3 448.7 211L437.7 253.8C437.8 256.2 439.4 257.1 441.3 256L450.7 250.3 455.8 237.1 458.2 237C460.7 236.2 461.6 235.4 461.2 232.1 458.5 219.2 460.8 210.3 464.5 213.1 465.8 215.6 467.3 216.7 469.2 216L471.8 208.7C465.6 201.3 467.4 195.3 468.2 193 469.2 190.3 473.2 188.5 477.8 195.1L481.3 194.7C484.4 182.2 489.8 180.8 491.5 182 493.2 183.2 497.2 187.8 491.7 201.8 502.1 207.8 499.5 214.1 487.8 221.2 492.3 236 489 242.2 479.3 241L479.3 243.3C482.9 247.6 484.1 249.8 482.3 251.4 480.1 253.4 474.8 252.4 463.8 252.9 462.6 256.2 465.2 258.1 464.2 261 459.2 260 446.9 256.8 441.7 260.8L430.9 274.3C426.3 284.2 423.2 296.2 421.1 309.7 421 312.2 422.2 314.4 424.1 312.9 430.1 310.1 436.1 306.9 442.1 303.1 439.7 298.4 440 293.7 443.1 289 445.1 287.3 446.2 287.4 447.6 289.4 450.6 295.5 454.2 300.3 458.3 303.9 460.9 304.5 460.1 305.7 459 306.9 455.6 311.7 450.2 311.7 442.9 307 441.3 305.5 439.2 306.7 436.7 308.2L421.1 322.6C417.8 332.2 416.4 341.2 418 349.2 419.6 362.4 419.9 376.6 421.6 389.9 423.5 404.5 426.9 418.2 428.8 432.8 429.1 436.2 431.5 436.7 433.7 433.9 437.8 425.9 441.7 417.6 440.8 397.5 448.1 401.4 451.1 399.4 449.8 391.3 444.2 373.7 444 365.3 455.4 378.2 458.6 380.9 460.5 378.3 458.8 373.9 453.2 354.3 453.9 347.3 462.4 352.5 464.2 353.8 465.6 351.5 465.7 349.3 470.1 330.8 474 330.4 477.4 348 477.3 350.7 479 351.8 480.9 351.2 494 351.2 492.6 356 484.7 363 482.9 364.4 483.3 366.2 485.1 366.7 494.1 373.2 492.6 380.1 475.7 387.6 472.7 389.1 472.1 391.7 475.1 392.6 491.1 399.6 471.5 406.8 465.2 411.4 462.4 412.4 461.8 414.1 464.1 416.6 469.9 429.6 463.1 428.1 446.4 425.8L436.1 442.2C434.3 446.2 434.3 450.5 436.1 455.1L440.8 468.4 432.3 473.7C428.3 460.9 423 451.4 413 454.2 406.4 465.2 397.5 465.2 401 455.1L406.1 448C404.1 449 402.9 448.6 400.3 451.2L398 455.8C392.6 463.1 386.4 458.4 391.1 452.5 402.2 443.6 409.2 442.4 421.8 448.5 424.5 449.6 426.3 449 426.3 446.1 422.2 434.9 422.2 423.8 413.7 412.8 410 406.9 405.2 402.9 398.9 402.5 388.9 403.5 386.2 400.2 390.1 393.7 391.8 392.1 392.2 390.3 389.6 389.4 378.1 380.3 370 372.3 382.6 372.7 385.2 373.8 387 371.3 384.7 368.6 375.8 354.8 372 344.9 379.6 343.6 381.2 343.7 381.4 342.3 380.9 339.9 378.2 327.4 389.2 327.1 389.6 340.1 389.8 343.2 392.1 343.3 393.7 342.1 401.2 338.1 404.8 347.8 397.4 357L397.5 357zM484.8 199.5L487.4 200.2C482.2 213 479.4 224.1 473.2 233.6 467.1 243 459.5 250.9 450.6 257L449.5 255.6C462.5 243.6 465.5 240.8 471.4 231.4 477.3 222.1 481 208.9 484.8 199.5L484.8 199.5zM423.9 246.1L421.6 247.9C414.6 233.1 405.7 219.3 401.3 204.8 398.4 195.1 400.4 185.3 399.6 175.4L402.8 175.7C402.1 184.4 402 193.2 403.7 201.9 404.7 207.4 415.2 231.5 423.9 246.1L423.9 246.1zM471.7 350.7L474 350.9C471.1 374.4 459.6 398.7 441.6 423.6L439.8 421.3C456.4 398.9 467.9 375.5 471.7 350.7zM382.1 337.1L384.6 337C384.7 348.8 387.1 360.9 392.2 373.4 397 385.3 404.4 397 414.4 410.2L413 410.7C403.5 397.6 394.6 386.8 389.1 371.7 385.3 361.4 383.7 350 382.1 337.1L382.1 337.1zM116.6 136.4C120 140.2 124.6 141.9 130.4 141.5 131.3 137.5 133.6 133.3 134.9 128.6 136.6 121.9 136.7 114.9 131.6 112.5 125.7 111.4 120.7 119.4 116.6 136.4L116.6 136.4zM104.3 290.1C92.4 284.6 83.5 282.4 79.1 284.9 76.1 287.9 85.3 294.5 96.4 301.6 100 299.3 102.6 295.5 104.3 290.1L104.3 290.1zM161.1 257.5C167 253.4 173.6 242 178.8 245.3 183.1 250.9 175.1 260.9 172.2 267.1 167 264.6 163.3 261.4 161.1 257.5L161.1 257.5zM157.9 357C159.4 359 159.9 361.6 157.2 362 147.8 363.2 149 371 155.1 381.7 156.1 384 155.1 386.2 153.4 387 148.6 387.4 148 389.4 148.6 394 147.2 399.3 145.4 404.5 141.1 409.3 138.6 411.1 137.4 410.9 137.5 407.8 139.4 387.3 143.8 367.7 142.6 346.3 142.4 332.9 141 319.5 138.8 306.1 136.6 296.3 146.4 291 157 276.6 159.3 274.5 161.8 273.9 164.5 274.8 170.6 276.8 174.7 274 177.8 272.3 170.1 268.2 164.1 264.7 160 259.6 158.2 257.9 157.5 255.4 157.9 253.4 150.9 253.1 151.6 260.5 156.1 270.6L140.1 290.3C138.1 293.2 136.4 292.8 134.9 289.2 132.8 281.1 130 272.9 127 264.8 125.6 261.3 126.9 260.2 128.5 258.2 131.9 255.3 132.4 251.4 138.6 249.4 142.1 247.6 150.7 244.2 147.4 237 145.2 232.1 146.2 231.5 149.3 231.8 162.7 232.6 170.1 230.4 164.5 221.7 163.3 219.3 164.2 218.9 166 217.5 174.6 207.3 178.8 199.9 169.4 202.7 165.8 203.7 165.6 202.1 167.1 199.5 173.6 185.4 174.8 177.3 164.3 182.3 161.9 184.5 160.3 183.4 159.4 180 155.6 165.1 151.7 164.6 147.8 178.7 147.1 181.6 145.9 182.2 144.1 181.7 133.5 176.5 133.9 183.3 139.4 195.6 140.9 197.4 139.7 200.5 137.3 200.1 130 199.3 128.2 201.2 131.9 205.9 135 209 135.3 215.4 137.9 220.7 139 223.5 137.7 225.6 134.9 224.7L127.9 222.6C127.6 232.2 132.4 236.3 126.8 251.3 125.5 252.7 123.8 252.7 122.9 251.1 119.2 236.5 112.6 225.3 111.9 207.4 111.2 190.9 110.8 169.1 120.1 156 122.4 153 125.8 155.2 128.8 152.1L135.7 146 132.3 141.4C128.3 145.8 120.8 142.4 113.8 136.7 111.1 139.9 110.7 144.2 112.7 149.5 113.3 151.7 113.3 153.9 112.6 156.1 110.7 172.8 102.3 192.3 106.7 211L117.7 253.8C117.6 256.2 116 257.1 114.1 256L104.7 250.3 99.6 237.1 97.3 237C94.8 236.2 93.9 235.4 94.3 232.1 97 219.2 94.7 210.3 91 213.1 89.7 215.6 88.1 216.7 86.3 216L83.7 208.7C89.9 201.3 88 195.3 87.2 193 86.3 190.3 82.2 188.5 77.6 195.1L74.1 194.7C71 182.2 65.6 180.8 63.9 182 62.2 183.2 58.2 187.8 63.7 201.8 53.3 207.8 56 214.1 67.6 221.2 63.2 236 66.4 242.2 76.1 241L76.1 243.3C72.6 247.6 71.4 249.8 73.2 251.4 75.3 253.4 80.7 252.4 91.7 252.9 92.9 256.2 90.3 258.1 91.3 261 96.2 260 108.5 256.8 113.7 260.8L124.5 274.3C129.1 284.2 132.2 296.2 134.3 309.7 134.5 312.2 133.3 314.4 131.3 312.9 125.3 310.1 119.3 306.9 113.3 303.1 115.8 298.4 115.4 293.7 112.4 289 110.3 287.3 109.2 287.4 107.9 289.4 104.8 295.5 101.3 300.3 97.2 303.9 94.5 304.5 95.4 305.7 96.4 306.9 99.8 311.7 105.2 311.7 112.6 307 114.1 305.5 116.2 306.7 118.8 308.2L134.3 322.6C137.7 332.2 139 341.2 137.4 349.2 135.8 362.4 135.6 376.6 133.8 389.9 131.9 404.5 128.5 418.2 126.6 432.8 126.3 436.2 124 436.7 121.8 433.9 117.7 425.9 113.7 417.6 114.6 397.5 107.4 401.4 104.4 399.4 105.6 391.3 111.2 373.7 111.4 365.3 100 378.2 96.8 380.9 94.9 378.3 96.6 373.9 102.2 354.3 101.6 347.3 93.1 352.5 91.2 353.8 89.9 351.5 89.7 349.3 85.3 330.8 81.4 330.4 78.1 348 78.2 350.7 76.4 351.8 74.5 351.2 61.4 351.2 62.8 356 70.7 363 72.5 364.4 72.2 366.2 70.4 366.7 61.3 373.2 62.8 380.1 79.7 387.6 82.7 389.1 83.3 391.7 80.3 392.6 64.3 399.6 83.9 406.8 90.3 411.4 93.1 412.4 93.6 414.1 91.4 416.6 85.5 429.6 92.3 428.1 109 425.8L119.3 442.2C121.1 446.2 121.1 450.5 119.3 455.1L114.6 468.4 123.1 473.7C127.1 460.9 132.4 451.4 142.4 454.2 149 465.2 157.9 465.2 154.4 455.1L149.4 448C151.3 449 152.5 448.6 155.2 451.2L157.4 455.8C162.8 463.1 169.1 458.4 164.4 452.5 153.2 443.6 146.2 442.4 133.6 448.5 131 449.6 129.1 449 129.1 446.1 133.3 434.9 133.2 423.8 141.8 412.8 145.5 406.9 150.3 402.9 156.5 402.5 166.6 403.5 169.2 400.2 165.3 393.7 163.6 392.1 163.2 390.3 165.9 389.4 177.3 380.3 185.4 372.3 172.8 372.7 170.2 373.8 168.4 371.3 170.7 368.6 179.7 354.8 183.4 344.9 175.8 343.6 174.2 343.7 174 342.3 174.5 339.9 177.2 327.4 166.2 327.1 165.9 340.1 165.6 343.2 163.3 343.3 161.7 342.1 154.2 338.1 150.6 347.8 158 357L157.9 357zM70.6 199.5L68 200.2C73.2 213 76 224.1 82.2 233.6 88.3 243 95.9 250.9 104.8 257L105.9 255.6C93 243.6 89.9 240.8 84 231.4 78.1 222.1 74.4 208.9 70.6 199.5zM131.5 246.1L133.8 247.9C140.8 233.1 149.7 219.3 154.1 204.8 157 195.1 155 185.3 155.8 175.4L152.7 175.7C153.3 184.4 153.4 193.2 151.8 201.9 150.7 207.4 140.2 231.5 131.5 246.1zM83.7 350.7L81.4 350.9C84.3 374.4 95.8 398.7 113.8 423.6L115.6 421.3C99 398.9 87.6 375.5 83.7 350.7zM173.3 337.1L170.8 337C170.7 348.8 168.3 360.9 163.3 373.4 158.4 385.3 151 397 141 410.2L142.4 410.7C151.9 397.6 160.8 386.8 166.3 371.7 170.1 361.4 171.7 350 173.3 337.1" style="fill-rule:evenodd;fill:#84be62"/>
</svg>