<svg xmlns="http://www.w3.org/2000/svg" width="545" height="646">
  <defs>
    <marker viewBox="0 0 10 10" refX="0" refY="5" markerUnits="strokeWidth" markerWidth="4" markerHeight="3" orient="auto">
      <path d="M0 0L10 5 0 10z"/>
    </marker>
    <marker viewBox="0 0 10 10" refX="10" refY="5" markerUnits="strokeWidth" markerWidth="4" markerHeight="3" orient="auto">
      <path d="M10 0L0 5 10 10z"/>
    </marker>
  </defs>
    <path d="M0 0L545 0C545 119.8 545 239.6 545 359.4 545.5 415 523.2 473.1 450.6 536.7 364.3 619.3 308 646.3 269.4 646.3 227.4 646.3 169.2 613.6 89.3 537.8 36.7 484.7 3.9 426 0 359.4L0 0" fill-rule="evenodd"/>
    <path d="M255.9 260.7L286.5 260.7 286.5 265.4 255.9 265.4 255.9 260.7zM268.7 272.4L273.6 272.4 273.6 278.6 268.7 278.6 268.7 272.4zM242.5 296.2L299.9 296.2C301.7 296.2 303.1 297.7 303.1 299.5L303.1 299.5C303.1 301.3 301.7 302.8 299.9 302.8L242.5 302.8C240.7 302.8 239.2 301.3 239.2 299.5L239.2 299.5C239.2 297.7 240.7 296.2 242.5 296.2zM260 253.9L282.4 253.9 282.4 257.8 260 257.8 260 253.9zM282.4 268.3L282.4 280.8 277.7 284.7 273.8 281.4 276.5 281.4 276.5 269.5 265.9 269.5 265.9 281.4 268 281.4 263.9 284.7 260 281 260 268.3 282.4 268.3 282.4 268.3zM244.6 281.9L251.7 288.3 257.8 281.9 264.2 288.3 271.1 281.8 277.5 288.2 284.4 282.1 291.2 288.3 297.8 282.1 297.8 293.4 244.6 293.4 244.6 281.9 244.6 281.9zM235.2 335L307.2 335C309.1 335 310.6 336.5 310.6 338.4 310.6 340.2 309.1 341.7 307.2 341.7L235.2 341.7C233.3 341.7 231.8 340.2 231.8 338.4 231.8 336.5 233.3 335 235.2 335zM248.3 311.1L252.3 311.1 252.3 327.1 248.3 327.1 248.3 311.1zM277.3 311.1L281.2 311.1 281.2 327.1 277.3 327.1 277.3 311.1zM260.6 311.1L264.5 311.1 264.5 327.1 260.6 327.1 260.6 311.1zM289.5 311.1L293.5 311.1 293.5 327.1 289.5 327.1 289.5 311.1zM242.3 305.7L300 305.7 300 332.1 242.3 332.1 242.3 305.7zM245.5 308.2L255.2 308.2 255.2 329.9 245.5 329.9 245.5 308.2zM257.7 308.2L267.4 308.2 267.4 329.9 257.7 329.9 257.7 308.2zM274.4 308.2L284.1 308.2 284.1 329.9 274.4 329.9 274.4 308.2zM286.7 308.2L296.3 308.2 296.3 329.9 286.7 329.9 286.7 308.2zM260.6 500.5L260.6 483.2C260.6 468.4 281.8 468.4 281.8 483.2L281.8 500.5 260.6 500.5zM246.1 391.7L246.1 383C246.1 375.5 257.6 375.5 257.6 383L257.6 391.7 246.1 391.7zM282.3 391.7L282.3 383C282.3 375.5 293.8 375.5 293.8 383L293.8 391.7 282.3 391.7zM238.8 344.6L230.2 513.6 313.3 513.6C312.3 512.5 310.9 511.4 309.2 510.4L301.7 344.6 238.8 344.6 238.8 344.6zM257.7 503.4L257.7 482.6C257.7 464.8 284.6 464.8 284.6 482.6L284.6 503.4 257.7 503.4 257.7 503.4zM243.9 394.5L243.9 382.3C243.9 371.9 259.7 371.9 259.7 382.3L259.7 394.5 243.9 394.5zM280.2 394.5L280.2 382.3C280.2 371.9 296 371.9 296 382.3L296 394.5 280.2 394.5zM224.9 516.5L317.5 516.5C320.1 516.5 322.3 518.7 322.3 521.3 322.3 524 320.1 526.2 317.5 526.2L224.9 526.2C222.2 526.2 220.1 524 220.1 521.3 220.1 518.7 222.2 516.5 224.9 516.5zM227.8 529.1L316.4 529.1 337.9 547.4 337.9 594.7 190.8 594.7 190.8 585 199.1 585 227.8 529.1" style="fill-rule:evenodd;fill:#d1d2d3"/>
    <path d="M7.2 7.2L269 7.2 269 93.5C269 304.4 149 417.7 23.2 429.6 14.1 407 8.6 383.4 7.2 358.6L7.2 7.2zM194.3 216.9C167.5 202.1 155.1 183.4 145.6 163.9 149.2 165.8 153.3 166.3 157.9 165.3 169.6 172.9 182.4 172.8 196.1 165 207.3 170.3 217.6 170.1 226 158.1 183.5 146.4 153 125 144.2 86.4 148.5 87 152.7 87.2 156.1 83.9 163.5 87.9 170.9 86.6 178.4 82.8 162.3 61.3 137.8 58 130.8 14.4 122.3 44.7 111.3 62.4 99.9 67.7 93.9 71.9 87.9 76.1 81.9 80.3 89.8 90.4 99.1 90.9 109.9 81.8 114.5 83.8 119.1 84.4 123.6 83.6 104.9 120.6 78.8 145.1 47.6 161 52.3 170 60.8 172.3 73.2 167.9 79.9 175.2 88.6 173.9 99.1 163.9 102.4 166.1 106.6 167.3 111.7 167.5 98.8 193.6 84.8 209.7 70 217.6 58.9 223.8 47.9 230.1 36.8 236.3 38.7 240.3 44.5 243.4 62 241.3 74.2 249.9 86.7 249.9 99.9 237.4 105.6 239.5 111.9 239.1 118.6 237.4 95.8 274.5 60.3 294.7 20.2 308.7 22.9 319.6 32.2 322.9 48.3 318.4 63.2 331.5 80.5 329.7 100.2 313 110.4 321.2 120.6 317.5 130.8 305.5 134.8 325.5 118.9 343.4 116.8 362.4 128.1 357.4 139.4 352.3 150.6 347.3 143.6 332.1 139 316.6 143.4 300.4 149.6 305.4 155.8 309.6 162.9 308.7 173.2 321.7 185.5 323.6 199.6 314.5 171.5 293.1 152.8 268.6 147.8 239.6 154.5 244 161.7 244.1 169.4 239.9 180.4 248.9 193.3 251.9 210.1 241.7 218 244.5 225.9 246.1 233.9 239.2 220.7 231.7 207.4 224.3 194.2 216.9L194.3 216.9zM276.1 7.2L537.8 7.2C537.8 124.3 537.8 241.5 537.8 358.6 538 381.9 534.1 405.7 524 430.2 397.4 422.2 276.1 311.4 276.1 93.5L276.1 7.2zM389.5 235.2C391.1 222.4 390 212.4 387.7 203.5 385.4 195.7 383.1 188 380.8 180.2 372.1 185.3 365.4 184.4 358.6 176.9 340.7 182.5 347.1 195.7 328.8 191.1 315.1 204 303.3 196.8 307 183.8 310.7 172.3 324.1 156.4 332.5 142.7 328.5 134.3 334.1 122.1 361.2 101.1 362.7 77.9 371.6 59.8 396.4 53.1 421 47.9 435.8 55.4 444 71.6 452.2 73.8 460.5 79.4 468.7 88.4 483.9 107.2 486.5 136.1 462.2 151 470.8 170.6 486.3 189.6 506.5 208.2 500.1 215.7 495.3 223.6 495.9 229 499.8 280.5 475.7 283.1 482.1 311.3 487.7 343.4 495 378.2 487.6 385.3 472.1 388 461.7 377.9 452 366 427.4 370.6 414 364 411.7 346.3 406 311.4 390.2 309.4 381.9 320.1 364.4 274.6 385.1 263.5 389.5 235.2L389.5 235.2zM398.2 101.5C407.2 92.1 418 86.4 432.7 88.7 438.1 97.7 439.1 105.7 430.9 111.7 423.8 106.8 417.2 103.4 412 103.3 411.9 101.6 411.8 99.9 411.7 98.2 407.2 97.7 402.7 99.1 398.2 101.5L398.2 101.5zM454.9 105.9C458.8 115.8 458.4 125.8 448.7 135.7 445.7 132.1 443.2 128.4 441.1 124.8 450.1 120.9 454.7 114.6 454.9 105.9" style="fill-rule:evenodd;fill:#0026f7"/>
    <path d="M400.4 56.3C377.9 58.9 365.4 80.2 365.2 102.2 338.5 124 329.9 136.5 337.2 142.7 326.6 156.9 316.8 170.7 312.1 182 306.3 193.1 313.4 199.8 327.4 187.5 343.7 193.8 337.1 177.1 359.7 172.5 365.9 181 373.5 181.3 382.6 173.3 388.7 192.4 394 210.6 394.2 221 394.6 260.4 368.8 269.3 383.3 312 396.1 305.5 410.3 314.2 415.3 345.9 418.1 359.5 427.9 367.1 453.1 361.2 462.3 372.7 471.6 383.8 484.7 381.6 489.7 372.2 482.3 339.4 478.2 312 471.6 281.4 492 283.3 492.3 241 490.7 226.4 494.3 215.7 501.4 207.9 482.1 192.6 465.5 169.6 457.8 152.5 446.2 158.2 435.4 157 424.7 153.9 433.1 150.3 441.1 146.2 446.5 138.6 434.1 124.3 431.5 111.4 412 107.3 412.5 114.8 409.1 120.9 401.9 125.5 398.5 127.1 395.6 123.2 399.7 121.5 406.8 117.5 409.6 111.1 408 102.2 400.5 103.7 395.6 107.7 391 112.1 388.2 114.1 384.9 111.1 387.7 108.4 402.1 87.3 427.5 75.9 450.9 93.5 468.4 112.5 461.3 137 435.6 152.9 465.3 156.3 488.8 125.2 468 96 448.4 65 390.1 53.4 371.7 102.2 370.5 105.3 367.5 104.7 368.1 101.5 377.7 74.5 393.4 68.8 409.9 66.2 419.9 64.9 428.6 66.4 436.7 69.1 431.9 58.3 419.8 53.5 400.4 56.3L400.4 56.3zM368.8 144.1C358.1 125.1 344.9 134.2 346.6 143.4 354 143.6 361.4 143.9 368.8 144.1zM437.5 90.2C444.2 93.6 450.5 97.2 453.4 102.6 452.2 111.6 448.6 118.7 439.6 121.9 437.5 119.3 435.3 116.8 433.1 114.2 441.4 109.2 442.7 101.1 437.5 90.2" style="fill-rule:evenodd;fill:#d1d2d3"/>
    <path d="M220.6 159.6C214 167.3 205.5 166.5 196.1 161.7 182.4 169.7 169.6 169.9 157.9 162.4 152.5 163 147.1 162.2 141.7 159.9 147.3 179.9 160.4 200.2 193.9 221.2 205.2 227.2 216.5 233.2 227.8 239.2 223.1 242.2 217.6 242.8 210.1 238.1 195.6 248.4 182 247.7 169.4 235.9 161.6 242.2 152.9 239.2 144.2 234.9 147.2 260.8 157.6 286.9 194.3 313.8 183.3 320.6 173.4 316.6 164.4 305.1 155 306.3 148.3 301.5 142.7 293.9 137.1 310 138.2 327.1 146 345.1 137.8 348.8 129.7 352.6 121.5 356.3 124.8 337.7 140.5 320.1 131.6 300.4 118.2 316.7 108.2 318.1 100.6 309.4 78.2 327.5 62 328 50.2 316.3 35.6 318.7 25.3 318.1 24.2 310.9 72.2 292.8 112.9 264.9 122.6 233.1 115 235.5 107.4 236.5 99.9 234.1 86.8 245.7 74.7 247.1 63.5 238.5 56.4 238 49.3 237.5 42.2 237 53.6 230.7 65.1 224.3 76.5 217.9 98.3 199.7 110.5 181.4 116.1 163.2 110.2 165.9 104.3 163.9 98.4 159.9 87.7 171.2 80.2 170.6 74.3 164.6 61.8 167.5 54.6 166.5 52.7 161.7 86.3 143.1 115.9 111.6 126.9 80.7 117.9 81.3 112.3 80.4 110 78.2 101.2 86 93.4 87 86.6 81.4 92.6 77.6 98.6 73.7 104.6 69.9 115.8 60.9 123.7 45.3 130.1 26.6 139.2 61.9 159 63.4 173.4 81.8 166.1 84.8 160.2 83.9 155.7 79.2 154.5 84.2 147.4 84.1 139.5 83.2 146.8 120.7 173.9 146.1 220.6 159.6L220.6 159.6zM521 437.2C507 467.6 483.4 499 445.9 532 361.9 612.7 307.1 639.2 269.5 639.2 228.6 639.1 171.9 607.2 94.1 533 64.4 502.8 41.1 470.8 26.1 436.5 141.4 424.4 251.3 329.3 272.5 154.1 293.3 335.3 404.6 428.6 521 437.2L521 437.2zM232.6 332.1L239.4 332.1 239.4 305.6C237.7 305.2 236.4 302.6 236.4 299.5L236.4 299.5C236.4 296.1 238 293.4 239.9 293.4L242.2 293.4 242.2 276.8 251.5 284.8 257.1 279.3 257.1 268.3 253 268.3 253 257.8 257.1 257.8 257.1 251.1 285.2 251.1 285.2 257.8 289.4 257.8 289.4 268.3 285.2 268.3 285.2 279 291 284.7 300.1 277.5 300.1 293.4 302.4 293.4C304.4 293.4 306 296.1 306 299.5L306 299.5C306 302.6 304.7 305.2 302.9 305.6L302.9 332.1 309.8 332.1C311.8 332.1 313.4 334.9 313.4 338.3 313.4 341.8 311.8 344.6 309.8 344.6L305.3 344.6 312.8 508.6C315.3 509.4 316.9 511.1 317.7 513.6L320.1 513.6C322.9 513.6 325.2 517.1 325.2 521.3 325.2 524.8 323.7 527.7 321.6 528.7L341.2 546.3 341.2 592.9 348 592.9 348 597.6 187.6 597.6 187.6 582.1 195.8 582.1 198.7 576.7C197.5 577.2 196.3 577.5 194.9 577.5 189.1 577.5 184.4 572.4 184.4 566.2 184.4 560 189.1 554.9 194.9 554.9 200.1 554.9 204.5 558.9 205.4 564.3L224.1 529 222.3 529C219.5 529 217.2 525.6 217.2 521.3 217.2 517.1 219.5 513.6 222.3 513.6L227.2 513.6 235.6 344.6 232.5 344.6C230.5 344.6 228.9 341.8 228.9 338.3 228.9 334.9 230.5 332.1 232.5 332.1" style="fill-rule:evenodd;fill:#26850d"/>
</svg>