<svg xmlns="http://www.w3.org/2000/svg" width="543.301" height="651.804">
    <defs>
        <marker id="ArrowEnd" viewBox="0 0 10 10" refX="0" refY="5" markerUnits="strokeWidth" markerWidth="4" markerHeight="3" orient="auto">
        <path d="M 0 0 L 10 5 L 0 10 z"/>
        </marker>
            <marker id="ArrowStart" viewBox="0 0 10 10" refX="10" refY="5" markerUnits="strokeWidth" markerWidth="4" markerHeight="3" orient="auto">
            <path d="M 10 0 L 0 5 L 10 10 z"/>
        </marker>
        </defs>
    <g>
        <path style="stroke:none; fill-rule:evenodd; fill:#222222" d="M 543.301 0L 543.301 381.839C 543.301 741.792 0 741.792 0 381.839L 0 0L 543.301 0"/>
        <path style="stroke:none; fill-rule:evenodd; fill:#ffffff" d="M 337.145 116.089C 338.528 114.168 336.086 112.394 334.321 114.785C 330.192 122.48 326.063 130.183 321.93 137.882C 316.497 145.582 311.575 138.027 314.977 132.871C 318.309 129.386 321.645 125.898 324.973 122.414C 326.641 120.16 324.911 119.066 323.02 121.109C 319.403 125.171 315.778 129.242 312.157 133.312C 306.364 138.687 304.629 134.324 306.942 128.734C 308.532 128.156 310.129 127.281 311.719 126.121C 318.383 121.98 323.747 121.328 333.024 107.16C 335.497 106.449 337.442 102.671 339.325 98.445C 339.176 92.418 339.243 86.464 340.844 81.011C 342.938 81.152 343.879 78.109 343.668 71.859C 343.664 69.613 341.059 69.832 341.063 71.859C 341.864 81.406 337.082 80.668 334.758 77.523C 333.239 73.601 331.715 69.679 330.196 65.757C 318.68 72.441 307.161 74.984 295.637 74.691C 281.442 93.433 280.789 81.015 272.161 91.035C 270.211 92.558 271.661 94.519 273.68 92.996C 275.055 91.765 276.434 90.531 277.809 89.293C 277.594 90.382 277.379 91.472 277.161 92.558C 276.586 95.246 279.7 95.683 279.981 92.558C 280.125 91.546 280.27 90.527 280.414 89.507C 281.793 89.367 283.172 88.937 284.543 88.203C 283.403 100.05 281.247 111.902 268.461 118.496C 261.219 121.664 256.149 121.273 250.204 121.324C 246.442 121.031 245.864 117.394 248.465 116.968C 252.036 117.386 257.309 116.914 260.215 115.652C 263.121 114.867 262.637 112.449 259.563 113.234C 256.25 114.242 251.137 114.898 247.602 114.308C 244.551 113.441 243.469 109.781 246.297 108.91C 256.407 109.675 261.192 104.812 260.641 96.707C 261.008 90.828 264.559 86.394 271.289 83.414C 274.114 82.445 273.77 79.621 271.075 80.148C 267.45 81.668 263.903 83.558 260.86 87.992C 254.051 96.343 263.539 107.75 245.645 106.515C 244.707 105.503 241.739 101.289 243.036 98.671C 240.43 91.554 240.942 85.382 247.602 84.074C 254.34 81.535 266.942 85.527 270.422 71.218C 274.696 63.156 282.45 56.765 294.332 50.515C 307.973 42.046 318.735 43.011 330.196 54.656C 343.832 60.05 349.153 65.824 349.539 78.191C 349.621 85.968 346.864 91.269 343.454 98.457C 343.418 117.199 339.434 133.179 331.282 140.3C 325.926 143.277 321.797 142.988 324.762 138.777C 328.891 131.222 333.02 123.668 337.149 116.113L 337.145 116.089zM 257.805 89.937C 253.973 89.867 250.25 91.605 249.926 95.574C 249.52 98.3 247.063 98.617 247.371 96.035C 248.024 90.367 251.532 87.609 257.391 87.753C 260.149 87.675 259.516 90.054 257.801 89.933L 257.805 89.937zM 272.309 100.781C 271.039 103.371 269.371 105.71 267.125 107.668C 265.371 109.074 267.239 111.168 269.297 109.601C 271.551 107.703 273.309 105.164 274.594 101.992C 275.883 100.019 273.551 99.257 272.309 100.785L 272.309 100.781zM 266.161 94.015C 265.762 95.867 264.879 97.48 264.473 99.332C 263.793 101.46 266.36 102.105 267.243 99.687C 267.68 98.078 268.364 96.707 268.805 95.097C 269.684 93.086 266.957 92.683 266.157 94.011L 266.161 94.015zM 297.977 68.519C 297.336 69.722 296.696 70.933 296.051 72.144C 295.129 73.148 296.293 75.355 298.098 73.714C 298.973 72.707 299.692 71.375 300.266 69.73C 300.829 67.195 298.981 66.793 297.977 68.523L 297.977 68.519zM 301.352 56.195C 304.731 56.035 303.77 53.418 301.352 53.539C 289.266 54.46 281.352 61.179 277.614 73.718C 276.887 77.062 279.375 77.261 280.262 74.683C 284.493 63.992 291.34 57.535 301.352 56.199L 301.352 56.195zM 290.024 69.367C 289.332 71.824 292.223 72.261 292.793 70.089C 296.137 60.878 304.586 56.949 317.258 57.402C 320.707 57.761 321.391 54.668 318.219 54.261C 302.176 53.906 292.567 58.769 290.02 69.363L 290.024 69.367zM 323.043 60.062C 320.157 59.699 317.907 60.3 316.297 61.871C 314.016 60.937 311.723 61.14 309.43 61.507C 305.981 61.507 305.981 64.441 309.071 64.164C 310.957 63.843 312.852 63.636 314.735 64.281C 313.129 70.16 317.668 69.109 317.262 67.3C 317.379 64.402 319.317 62.949 323.289 62.953C 325.618 63.308 326.141 60.41 323.047 60.054L 323.043 60.062zM 333.168 63.441C 334.594 65.128 335.715 66.816 336.18 68.515C 336.977 70.363 339.95 70.078 339.071 67.308C 338.766 65.652 337.477 64.32 336.539 63.324C 334.567 60.468 332.364 61.476 333.164 63.441"/>
        <path style="stroke:none; fill-rule:evenodd; fill:#39a66d" d="M 449.039 344.011C 448.829 345.761 448.688 347.652 449.039 348.847C 447.02 346.957 443.528 345.906 439.817 345.695C 441.219 343.593 444.852 342.753 449.039 344.015L 449.039 344.011zM 449.457 358.515C 449.805 360.543 450.153 362.578 450.504 364.613C 445.196 363.21 441.844 360.964 440.442 357.886C 443.657 358.726 446.801 359.363 449.457 358.515zM 482.582 395.933C 481.817 397.121 481.051 398.312 480.282 399.507C 486.829 403.074 492.797 406.644 497.68 410.226C 506.618 409.875 512.207 406.445 514.45 399.929C 499.071 401.957 488.45 400.625 482.582 395.937L 482.582 395.933zM 466.231 375.546C 470.633 378.765 471.684 385.421 466.86 388.578C 463.086 386.265 463.086 379.609 466.231 375.546zM 451.457 341.714C 452.68 333.789 457.286 334.359 461.063 340.586C 464.352 347.187 466.707 353.8 466.997 360.414C 482.321 358.836 486.223 390.793 476.317 400.074C 481.868 402.914 484.911 404.371 491.86 409.421C 504.946 416.972 495.899 426.511 488.469 418.484C 482.914 414.707 479.332 408.949 471.801 407.156C 468.793 406.117 468.508 409.043 471.801 409.988C 483.664 413.101 490.164 430.097 499.77 421.886C 507.633 427.445 509.797 431.984 509.375 436.046C 500.149 438.261 488.559 433.636 471.797 413.949C 469.629 424.71 464.45 430.945 456.262 432.644C 442.137 432.55 434.793 429.433 434.223 423.296C 420.231 421.003 412.813 405.378 414.164 391.285C 415.579 385.144 422.356 385.808 422.356 390.718C 421.414 404.273 428.192 415.984 451.454 409.132C 460.395 404.976 461.618 391.285 456.821 380.519C 453.903 371.171 450.133 351.906 451.454 341.707L 451.457 341.714zM 463.715 365.871C 463.297 362.234 466.575 362.8 466.86 365.664C 467.063 368.183 467.063 370.707 467.274 373.23C 473.661 377.636 473.594 387.589 468.532 390.253C 468.532 394.664 465.391 394.242 464.969 390.253C 459.864 385.07 461.961 377.57 463.922 373.441C 463.852 370.921 463.782 368.398 463.711 365.875L 463.715 365.871zM 459.52 409.597C 455.121 416.882 448.762 419.683 440.442 418.003C 436.532 416.957 436.817 420.316 440.024 421.156C 448.731 421.894 456.688 420.421 462.036 411.07C 463.43 408.054 460.704 407.144 459.52 409.601L 459.52 409.597zM 464.133 400.347C 464.274 401.746 463.852 402.863 462.875 403.71C 460.707 405.597 463.286 407.418 465.598 406.019C 466.922 404.265 467.274 402.515 467.485 400.765C 467.555 397.543 464.34 397.398 464.133 400.347zM 276.497 559.687C 285.426 546.359 276.942 538.472 260.571 542.031C 252.051 542.242 250.512 538.527 255.957 530.89C 262.196 517.558 263.028 510.628 263.086 504.617C 263.368 497.398 259.883 500.55 259.524 503.988C 256.313 503.429 253.379 501.746 250.719 498.945C 248.621 496.843 246.321 498.316 248.621 501.046C 251.274 504.48 255.75 506.582 259.52 507.773C 259.379 514.636 257.844 521.007 253.231 529C 249.614 537.191 239.028 534.953 233.106 530.05C 237.524 524.234 234.207 515.543 228.075 509.871C 221.438 506.23 226.121 485.769 225.141 473.718C 232.45 469.429 246.914 469.101 265.395 470.988C 269.036 459.632 263.375 452.281 251.348 447.66C 265.883 439.562 281.329 432.839 298.098 428.113C 297.094 436.199 297.231 444.679 297.895 453.336C 283.094 457.269 272.942 464.808 265.403 474.355C 263.59 475.96 265.754 478.625 267.497 476.668C 275.864 467.257 285.821 460.355 298.102 457.117C 298.774 462.222 299.047 467.343 299.149 472.46C 287.801 475.941 285.075 483.753 294.961 497.894C 303.262 499.531 311.332 498.906 319.071 494.957C 321.446 499.226 325.219 502.378 330.391 504.414C 334.375 507.14 339.196 508.753 344.856 509.246C 352.125 511.761 360.512 511.203 370.012 507.57C 365.618 499.91 360.309 493.855 353.661 490.125C 350.696 485.464 346.571 482.734 341.922 480.878C 339.207 476.386 335.497 473.863 331.653 471.628C 329.911 470.226 328.161 468.828 326.411 467.429C 328.715 465.886 331.024 464.347 333.329 462.804C 335.707 461.82 333.606 459.441 332.071 460.703C 329.77 462.171 327.461 463.644 325.153 465.117C 328.825 455.304 332.247 445.496 334.797 435.687C 339.899 435.406 344.997 435.128 350.098 434.847C 341.579 440.656 339.973 446.05 340.879 450.613C 342 453.968 344.442 453.832 343.809 450.613C 342.95 446.195 344.465 442.625 351.981 437.371C 364.293 425.875 360.586 415.441 350.516 403.949C 347.516 401.285 346.559 403.523 348.418 405.628C 355.43 414.949 360.543 424.121 352.399 432.324C 346.809 432.535 341.219 432.742 335.629 432.953C 338.829 420.71 341.793 408.699 344.434 397.007C 348.559 396.734 352.957 397.293 357.637 398.687C 372.594 402.175 379.301 428.554 359.528 439.886C 344.364 448.46 342.055 456.378 347.786 461.957C 350.375 464.265 352.329 463.007 351.137 460.277C 350.02 457.964 350.793 458.175 351.555 455.656C 360.153 441.503 390.34 455.097 408.368 462.378C 431.621 469.171 453.618 472.3 469.582 457.753C 475.981 450.621 473.536 437.902 464.344 432.953C 468.676 429.378 471.614 425.246 473.149 420.55C 478.645 426.273 486.301 432.195 493.485 437.367C 494.11 444.089 494.528 450.183 494.532 456.914C 494.672 486.66 477.696 500.168 446.524 500.214C 429.829 501.57 413.125 500.609 396.418 499.164C 392.825 481.359 379.278 476.421 369.793 474.781C 367 474.355 365.528 477.441 369.793 477.722C 381.539 478.582 396.567 490.558 392.223 506.73C 386.895 520.363 363.188 520.558 340.442 517.027C 324 515.695 309.168 516.812 296.629 519.968C 296.954 515.789 296.465 511.378 296.211 507.781C 296.352 503.574 292.86 505.394 293.278 507.57C 293.844 518.347 294.125 528.714 285.106 526.484C 286.934 539.386 297.735 535.988 299.571 544.351C 300.829 548.273 300.829 552.195 303.34 556.121C 307.707 549.57 315.399 543.187 330.383 537.203C 336.602 534.89 337.368 523.328 349.457 529.847C 352.743 531.457 353.864 537.128 350.504 538.464C 338.555 544.277 336.039 559.554 314.653 555.91C 309.696 555.351 308.926 557.515 313.606 559.269C 330.68 562.578 337.356 557.007 348.829 542.875C 353.93 538.738 362.317 540.277 358.262 548.128C 343.204 568.109 334.957 568.144 299.563 565.152C 290.727 564.238 289.192 567.175 290.969 571.878C 291.672 577.511 285.454 582.765 276.086 587.851C 276.192 579.597 272.215 574.308 262.25 573.351C 266.793 566.753 271.77 566.949 276.5 559.691L 276.497 559.687zM 265.594 526.683C 268.114 522.976 264.34 522.418 262.454 525.632C 258.028 534.437 260.653 539.375 273.563 538.664C 278.032 538.035 275.789 534.32 273.145 535.093C 264.477 536.488 261.965 533.691 265.602 526.683L 265.594 526.683zM 272.305 560.32C 266.93 563.613 262.668 567.46 259.52 571.878C 254.985 568.308 243.731 571.25 247.153 567.464C 251.047 563.75 252 560.043 251.973 556.328C 254.137 550.097 262.313 553.109 272.305 560.32zM 304.379 550.015C 303.055 546.586 301.727 543.148 300.399 539.714C 306.547 535.168 315.844 543.007 318.008 530.257C 318.774 526.753 330.301 525.707 333.938 530.468C 330.235 536 322.551 535.441 314.653 542.027C 310.391 544.128 306.965 546.793 304.383 550.011L 304.379 550.015zM 409.36 503.199C 414.067 505.464 415.668 509.808 415.856 515.097C 411.809 512.925 407.758 513.019 403.707 515.378C 397.957 516.324 392.871 516.707 392.407 513.113C 394.856 509.902 396.176 506.312 396.36 502.347C 400.688 502.628 405.02 502.914 409.352 503.199L 409.36 503.199zM 417.93 514.378C 420.434 513.402 424.051 512.539 427.489 513.781C 428.457 509.324 428.075 505.398 423.207 503.328C 419.985 503.8 416.77 503.652 413.547 503.328C 416.75 506.312 418.707 509.8 417.926 514.382L 417.93 514.378zM 427.989 503.621C 429.582 505.093 430.512 506.988 429.981 509.796C 436.914 508.613 440.793 506.765 439.243 503.722C 435.243 504.183 431.454 504.21 427.989 503.625L 427.989 503.621zM 298.954 398.175C 298.528 401.082 298.102 403.992 297.676 406.906C 276.075 407.16 254.473 407.418 232.864 407.675C 240.997 397.558 243.856 386.043 239.012 372.488C 255.821 383.519 275.997 391.937 298.954 398.171L 298.954 398.175zM 234.911 410.507C 255.829 410.589 276.493 409.652 297.418 409.48C 297.586 414.101 298.012 420.007 298.184 424.632C 277.133 432.078 263.129 437.468 246.18 446.98C 241.817 449.117 239.926 446.375 243.875 444.156C 257.821 430.836 245.997 416.539 234.911 410.511L 234.911 410.507zM 49.1758 358.628C 69.1836 354.031 67.7813 380.863 77.0856 391.984C 71.9805 394.793 69.5625 397.601 67.5274 400.418C 61.4102 386.488 67.5274 374.476 49.1758 358.628zM 104.621 491.285C 96.1636 495.293 77.7226 485.429 76.3246 490.902C 82.6366 493.492 87.4806 497.312 82.0586 509.687C 79.1486 518.523 94.9766 514.21 98.8786 513.796C 110.188 509.136 116.309 516.648 117.235 535.367C 116.25 543.269 129.504 549.75 132.911 539.964C 135.075 536.515 137.243 533.066 139.411 529.617C 132.805 527.343 135.692 521.171 129.086 523.761C 124.68 525.98 122.875 520.253 122.204 515.82C 121.336 502.695 132.145 498.332 137.114 478.632C 138.094 475.953 141.188 476.605 139.579 480.828C 135.243 494.906 126.774 503.632 126.825 509.925C 129.891 513.726 134.5 515.668 140.172 514.281C 145.032 512.597 151.309 512.902 150.739 519.093C 159.305 514.421 170.868 513.046 189.426 518.359C 190.606 515.8 193.621 513 196.762 510.449C 196.207 497.203 193.704 490.769 192.176 480.929C 182.723 480.164 172.457 483.25 160.407 488.976C 154.172 473.781 144.121 458.16 136.594 454.406C 128.204 449.117 119.731 453.449 116.536 481.281C 112.524 489.269 113.801 489.988 104.618 491.277L 104.621 491.285zM 98.5036 489.367C 89.8356 489.746 75.5706 481.613 72.2617 491.246C 58.8125 484.57 47.2266 452.171 54.5352 427.64C 58.7383 413.125 66.3867 400.816 80.3246 392.789C 96.7036 384.339 117.582 385.41 126.418 401.949C 136.598 416.121 130.223 443.847 115.332 446.91C 99.8516 449.628 87.4496 443.586 75.9456 426.105C 78.0466 420.199 81.4376 415.75 84.1836 413.734C 93.3636 426.437 104.649 427.218 107.09 417.289C 109.223 405.386 96.5156 399.332 82.1016 411.539C 69.1172 422.168 68.2266 448.253 79.9136 465.949C 85.2886 473.953 95.6486 480.761 113.762 481.269C 110.481 489.527 107.813 488.921 98.5076 489.363L 98.5036 489.367zM 135.723 461.214C 130.618 460.566 128.75 463.156 130.125 469.003C 131.262 470.949 133.375 470.949 132.801 469.003C 131.672 465.027 132.727 463.156 135.477 464.136C 137.668 464.863 138.805 462.675 135.719 461.214L 135.723 461.214zM 141.079 526.949C 142.614 524.847 145.129 522.734 148.625 520.621C 149.036 517.293 147.426 514.445 139.375 516.972C 133.903 517.867 129.278 515.355 125.012 511.863C 125.086 516.246 125.743 521.933 128.418 520.867C 138.563 518.597 136.047 526.55 141.075 526.953"/>
        <path style="stroke:none; fill-rule:evenodd; fill:#fff100" d="M 243.403 108.363C 243.387 108.308 243.371 108.253 243.356 108.195C 243.383 108.234 243.407 108.269 243.438 108.312C 243.43 108.328 243.418 108.343 243.407 108.359L 243.403 108.363zM 240.606 85.257C 242.524 50.214 271.7 22.218 307.211 22.218C 343.954 22.218 373.922 52.187 373.922 88.929C 373.922 114.519 359.383 136.82 338.149 148.003C 335.649 146.253 332.993 144.734 330.2 143.398C 341.34 135.75 345.016 119.726 345.297 99.902C 357.762 77.359 353.836 62.203 334.993 53.765C 329.672 52.558 326.743 47.468 322.618 45.718C 312.848 40.816 302.586 41.89 292.809 48.718C 280.707 54.019 272.883 62.234 267.168 72.027C 266.395 78.605 257.196 80.687 246.797 82.117C 243.571 81.914 241.641 83.101 240.614 85.253L 240.606 85.257zM 102.473 21.406C 100.379 19.71 95.9996 23.097 97.7536 25.261L 114.368 43.5C 115.997 41.804 117.86 40.808 119.961 40.519L 102.473 21.406zM 150.204 73.824L 348.231 290.734C 348.352 293.949 347.219 295.652 344.836 295.839L 143.715 75.605C 145.879 75.015 148.043 74.863 150.207 73.828L 150.204 73.824zM 366.149 319.117C 367.641 319.05 369.555 318.324 372.086 316.632L 452.918 405.093C 451.27 406.832 449.395 407.769 447.313 407.906L 366.149 319.117zM 272.305 588.484C 272.719 580.71 269.235 576.855 261.825 576.925C 248.485 578.527 245.063 597.265 258.055 600.261C 256.418 595.808 256.071 591.46 260.571 588.699C 266.508 585.621 269.168 591.082 272.305 588.488L 272.305 588.484zM 248.825 556.535C 248.614 559.472 247.289 562.414 244.844 565.359C 242.262 561.605 238.911 561.328 235.204 562.628C 237.051 556.914 240.829 553.832 248.829 556.535L 248.825 556.535zM 361.614 541.609C 362.586 543.214 362.727 544.828 362.032 546.445C 364.125 546.515 366.219 548.543 368.317 552.539C 370.399 547.132 368.438 543.054 361.61 541.609L 361.614 541.609zM 353.231 529.418C 355.485 531.929 355.446 534.457 354.907 536.98C 357.204 536.785 358.602 537.609 360.356 539.082C 361.399 538.66 362.868 539.011 363.918 539.71C 362.239 530.918 358.258 528.679 353.227 529.414L 353.231 529.418zM 405.481 517.066C 407.801 515.472 410.954 515.043 415.934 517.164C 415.719 525.699 411.434 530.464 403.786 532.101C 407.637 527.234 407.469 522.191 405.477 517.066L 405.481 517.066zM 427.289 515.472C 427.09 523.14 420.121 525.695 416.836 522.839C 420.735 521.679 421.036 519.152 419.024 516.566C 420.883 515.898 423.836 515.601 427.289 515.472zM 429.582 511.687C 431.438 511.976 433.297 511.414 435.157 510.89C 435.235 514.332 433.375 516.8 428.684 517.859C 430.282 516.703 431.446 515.242 429.579 511.687L 429.582 511.687zM 74.375 493.597C 79.9686 493.355 84.6796 500.324 79.4846 508.203C 75.4296 505.929 70.4844 506.328 65.1211 507.96C 65.7891 502.378 69.1602 497.226 74.3711 493.601L 74.375 493.597zM 142.297 530.601C 140.516 533.843 138.731 537.089 136.942 540.336C 143.348 539.769 147.489 542.441 149.356 548.367C 152.68 537.824 149.356 532.691 142.297 530.597L 142.297 530.601zM 143.516 528.41C 144.731 526.14 146.922 524.191 150.086 522.57C 156.856 526.625 159.938 532.789 157.629 542.043C 156.004 538.871 153.895 537.41 152.274 536.203C 151.301 532.632 148.379 530.035 143.512 528.414"/>
        <path style="stroke:none; fill-rule:evenodd; fill:#0fb1ee" d="M 352.825 266.398C 352.825 255.925 352.825 245.449 352.825 234.972C 351.852 231.046 351.852 227.777 352.825 225.152C 350.789 223.601 349.407 221.722 348.668 219.507C 338.629 211.742 328.594 202.722 318.547 192.992C 311.532 206.086 303.536 217.543 294.551 227.363C 309.977 244.14 325.403 260.918 340.829 277.695C 343.727 270.613 347.973 267.582 352.825 266.402L 352.825 266.398zM 529.473 13.832L 529.473 281.984L 496.789 281.984L 496.789 308.195L 461.489 308.195L 461.489 281.984L 413.797 281.984L 413.797 308.195L 378.5 308.195L 378.5 307.937C 380.887 301.671 380.481 294.804 378.5 292.289L 378.5 281.988L 378.063 281.988C 378.59 279 379.051 275.785 378.379 272.691C 381.809 271.648 383.329 269.328 382.93 265.722C 385.004 256.832 387.082 247.937 389.161 239.046C 392.352 235.199 392.914 231.359 392.274 227.515C 396.981 215.019 394.344 207.332 384.368 204.449C 385.082 196.675 381.411 194.195 375.743 194.121C 376.309 190.039 375.844 185.398 368.075 176.82C 361.95 169.871 356.7 165.828 352.497 165.289C 349.532 158.71 345.438 153.734 340.602 149.843C 362.082 138.003 376.7 115.136 376.7 88.953C 376.7 50.687 345.489 19.476 307.219 19.476C 268.954 19.476 237.743 50.687 237.743 88.953C 237.743 98.453 239.664 107.519 243.145 115.781C 227.836 112.386 213.637 116.035 200.071 123.71C 184.297 106.582 168.649 89.23 152.868 72.101C 155.196 69.597 154.899 66.074 151.446 63.765C 152.532 57.058 148.219 53.609 142.391 51.058C 142.754 45.347 138.266 43.882 133.082 43.023C 131.969 39.574 128.004 38.968 122.739 39.656L 103.86 18.652C 99.2066 14.679 91.1056 21.511 94.2926 26.687C 100.329 33.171 106.36 39.652 112.395 46.132C 110.832 57.89 109.973 69.218 113.946 77.511C 115.832 80.628 115.469 86.003 115.239 91.253C 113.43 93.843 113.344 96.433 114.981 99.031C 115.286 123.187 117.957 142.382 125.844 150.636C 125.075 159.492 126.875 165.976 134.375 167.23C 137.383 175.363 141.594 182.378 154.289 181.492C 159.422 183.777 165.633 183.695 174.204 178.382C 174.204 177.777 174.204 177.171 174.204 176.57C 188.129 174.32 200.629 172.078 212.481 169.828C 213.082 185.125 213.684 200.425 214.289 215.726C 214.981 221.515 214.633 226.621 213.258 231.027C 196.793 243.234 185.661 261.195 177.141 281.996L 164.829 281.996L 164.829 308.207L 129.528 308.207L 129.528 281.996L 81.8356 281.996L 81.8356 308.207L 46.5352 308.207L 46.5352 281.996L 13.8516 281.996L 13.8516 13.843L 529.497 13.843L 529.473 13.832zM 330.797 285.503L 330.797 308.199L 320.286 308.199C 317.692 303.238 314.711 297.875 311.286 291.875C 311.844 291.5 312.407 291.121 312.969 290.75C 307.774 274.253 299.157 256.902 287.965 238.914C 302.239 254.441 316.52 269.972 330.801 285.507L 330.797 285.503zM 247.801 307.351L 247.801 308.199L 243.446 308.199C 243.68 306.625 243.911 305.035 244.129 303.421C 245.188 304.937 246.395 306.269 247.801 307.347L 247.801 307.351zM 140.563 77.23C 156.422 94.515 172.286 111.804 188.153 129.093C 180.571 131.945 173.442 134.625 165.86 136.093C 165.86 137.562 166.95 140.281 166.95 141.753C 166.164 140.351 163.977 139.105 163.508 140.125C 163.305 136.812 160.684 134.203 160.008 135.191C 158.957 127.945 157.539 127.531 156.34 127.543C 155.653 120.195 146.168 112.07 139.532 96.941C 141.094 92.257 139.028 90.019 136.43 88.125C 135.75 84.148 137.129 80.515 140.567 77.234"/>
        <path style="stroke:none; fill-rule:evenodd; fill:#e6e7e8" d="M 118.039 92.609C 115.411 93.714 115.766 97.808 118.559 97.519C 124.207 96.437 129.864 95.91 135.524 95.765C 139.426 95.503 138.082 90.121 133.602 90.332C 128.414 90.625 123.223 91.386 118.039 92.609zM 117.34 100.148C 117.875 123.601 120.754 141.343 127.832 148.902C 134.887 149.89 140.309 147.613 144.098 142.062C 139.258 127.507 134.418 112.949 129.582 98.394C 125.176 98.003 121.274 99.117 117.344 100.148L 117.34 100.148zM 132.383 98.222C 134.129 98.05 135.875 97.875 137.629 97.699C 143.106 112.836 153.137 118.859 154.067 129.441C 151.5 133.828 148.93 137.621 146.371 140.136C 141.711 126.164 137.047 112.195 132.383 98.226L 132.383 98.222zM 128.008 151.187C 126.786 160.656 129.516 165.21 136.227 164.867C 144.047 160.441 151.489 153.281 157.914 138.562C 157.395 129.535 156.051 129.957 154.594 131.722C 144.59 149.925 136.133 152.207 128.008 151.187zM 137.282 166.796C 139.204 175.507 144.621 179.539 153.551 178.894C 159.524 170.128 161.329 157.503 161.247 143.121C 160.661 138.503 159.844 138.093 158.797 141.894C 152.102 155.664 144.911 163.789 137.286 166.796L 137.282 166.796zM 156.52 179.25C 162.289 181.066 167.364 179.484 171.911 176.445C 170.45 164.816 169.75 155.636 167.364 146.812C 166.485 143.25 163.395 141.496 163.516 145.41C 162.817 161.839 160.481 173.125 156.52 179.257L 156.52 179.25zM 172.09 158.203C 183.809 155.398 194.825 152.593 206.543 149.785C 200.829 143.472 195.118 137.16 189.403 130.843C 182.52 134.175 175.289 136.125 168.414 138.031C 169.289 144.753 172.442 153.406 172.09 158.199L 172.09 158.203zM 172.614 160.304C 173.133 164.804 173.661 169.304 174.184 173.808C 186.336 172.695 198.813 170.296 211.442 167.32C 211.325 162.937 211.207 158.554 211.09 154.171C 210.278 153.355 209.461 152.535 208.645 151.718C 196.637 154.582 184.621 157.445 172.614 160.308L 172.614 160.304zM 213.543 156.976L 213.895 166.796L 220.887 165.043L 213.539 156.976L 213.543 156.976zM 202.352 125.757C 212.61 137.097 222.871 148.437 233.137 159.777C 245.422 155.882 252.696 147.308 252.758 132.007C 251.153 130.019 249.106 126.003 248.618 123.324C 245.629 122.679 245.082 120.207 244.371 118.527C 228.528 114.742 214.829 118.179 202.36 125.761L 202.352 125.757zM 215.118 169.078L 217.215 215.375C 229.661 219.75 245.168 222.332 263.219 223.441C 264.844 220.636 266.008 217.828 266.715 215.023L 222.637 166.972L 215.118 169.078zM 235.235 162.238C 246.899 157.296 253.723 148.386 255.707 135.5C 263.555 144.168 274.204 149.117 285.497 152.972C 283.871 171.187 278.754 188.55 272.141 202.222L 235.235 162.238zM 307.461 152.699C 304.375 157.55 299.414 163.898 296.325 168.753C 297.829 175.32 305.719 185.41 316.223 191.171C 309.371 204.722 301.684 216.367 292.961 225.722C 286.668 218.707 280.371 211.691 274.075 204.675C 279.762 194.632 284.473 179.996 288.239 153.296C 293.543 153.832 302.161 153.554 307.465 152.699L 307.461 152.699zM 268.817 217.48C 268.18 219.578 267.309 221.683 266.192 223.793C 269.106 224.023 272.02 224.257 274.938 224.492C 272.899 222.152 270.856 219.816 268.817 217.48zM 217.219 217.832C 217.454 222.445 216.993 227.062 215.821 231.683C 236.727 236.757 260.196 237.996 285.786 236.066C 282.813 232.851 279.84 229.636 276.864 226.421C 246.289 225.293 230.465 221.765 217.219 217.832zM 214.418 233.441C 197.844 246.086 186.11 264.105 178.391 286.578C 179.789 295.613 189.528 292.101 203.051 282.898C 211.766 301.195 222.371 307.503 237.157 287.457C 247.043 306.886 257.047 315.691 267.414 293.945C 268.981 289.726 273.411 286.609 277.383 291.843C 290.848 309.523 296.094 302.816 298.371 287.285C 301.926 290.64 305.481 292.101 309.039 289.386C 306.985 277.668 297.274 259.367 285.426 239.23C 253.723 241.109 230.247 239.027 214.411 233.445L 214.418 233.441zM 201.649 288.16C 194.551 292.128 189.395 294.933 185.559 295.175C 185.043 324.586 184.672 352.605 185.559 373.57C 191.567 367.644 197.571 358.628 203.571 348.492C 206.336 357.347 209.305 365.996 213.016 373.921C 222.766 352.617 227.864 328.761 227.356 301.843C 218.571 306.878 208.731 303.394 201.645 288.164L 201.649 288.16zM 221.743 380.222C 230.497 354.734 237.836 327.293 241.704 300.96C 239.489 297.918 237.801 295.578 236.985 292.543C 235.586 295.222 233.485 297.679 230.688 299.906C 229.426 331.796 224.661 358.562 214.875 375.836C 218.098 376.597 220.395 378.058 221.747 380.218L 221.743 380.222zM 214.868 415.648C 228.555 414.875 227.356 380.386 212.844 378.304C 209.469 372.75 206.086 365.562 202.704 356.738C 198.805 362.285 194.661 367.605 190.286 372.695C 198.989 370.39 207.18 372.281 213.547 389.179C 213.954 392.214 211.043 392.976 210.055 389.351C 204.036 369.285 184.879 373.898 184.868 382.687C 183.125 398.285 184.7 408.605 188.539 415.308C 198.891 417.343 207.348 413.113 213.028 399.703C 214.079 396.023 216.875 396.546 216.172 399.175C 210.625 415.101 200.918 420.484 188.364 418.64C 187.172 422.148 187 425.656 189.063 429.164C 192.211 433.136 196.411 437.289 199.555 438.453C 201.161 427.558 194.321 418.375 214.868 415.648zM 189.231 433.722C 187.829 450.207 197.098 484.578 199.024 510.187C 203.012 509.015 208.192 507.339 212.668 511.414C 209.426 484.679 210.071 466 213.368 452.839C 216.161 445.117 213.942 426.531 209.348 419.695C 198.332 421.039 204.801 436.058 202.528 444.246C 197.164 440.738 192.731 437.23 189.235 433.722L 189.231 433.722zM 215.469 509.836C 212.641 492.839 212.176 474.265 214.946 457.75C 218.684 444.785 219.043 438.363 212.149 418.468C 215.586 417.3 217.977 418.238 222.469 414.96C 226.43 427.785 228.063 439.601 224.567 449.16C 221.301 458.097 222.586 482.476 221.594 499.14C 221.645 505.277 222.868 510.535 226.664 513.871C 236.981 523.046 229.344 532.222 220.543 534.039C 221.079 527.015 219.305 520.25 215.649 513.695C 215.594 512.41 215.536 511.125 215.477 509.836L 215.469 509.836zM 210.047 541.23C 209.512 525.671 201.032 517.632 192.907 519.308C 198.227 510.757 210.157 506.644 215.469 519.484C 219.934 536.265 218.063 540.761 210.047 541.23zM 183.985 530.535C 185.614 522.941 195 519.839 200.075 524.222C 208.93 534.214 208.465 545.964 198.676 548.597C 199.551 538.015 190.688 529.312 183.985 530.539L 183.985 530.535zM 172.09 557.191C 173.188 549.253 176.282 541.519 182.055 534.043C 188.817 529.191 199.477 543.16 194.997 550.175C 187.356 553.39 179.715 555.843 172.086 557.191L 172.09 557.191zM 317.145 143.531C 318.875 143.804 320.086 143.101 321.145 142.464C 321.079 144.664 325.34 144.902 327.34 144.371C 339.137 149.664 346.039 157.351 350.301 166.687C 349.582 177.144 337.512 184.015 317.676 188.429C 308.047 183.168 301.477 176.671 299.383 168.386C 305.231 160.32 311.293 151.597 317.141 143.527L 317.145 143.531zM 353.133 168.578C 350.5 177.679 342.329 182.976 331.633 186.543C 339.239 194.101 348.793 202.046 358.414 209.609C 363.032 206.171 367.997 201.882 372.18 195.242C 374.454 192.003 372.852 186.699 365.579 178.418C 360.172 172.367 356.024 169.086 353.133 168.586L 353.133 168.578zM 329.184 187.109C 336.176 194.238 345.825 202.656 356.34 211.312C 354.141 213.261 351.942 215.214 349.743 217.171C 339.368 208.976 328.997 199.832 320.133 190.128C 323.153 189.371 326.168 188.363 329.184 187.105L 329.184 187.109zM 352.946 216.988C 349.848 219.886 353.055 224.359 356.715 223.226C 367.262 218.402 375.84 213.496 380.852 205.64C 384.305 198.425 377.329 194.523 373.875 197.89C 368.766 203.992 361.567 210.39 352.942 216.988L 352.946 216.988zM 362 222.847C 369.161 219.253 376.329 214.785 383.5 207.156C 391.731 208.859 393.926 215.351 390.098 226.628C 385.516 223.867 374.637 223.078 361.997 222.847L 362 222.847zM 356.719 224.929C 353.758 224.988 353.641 233.117 356.907 233.437C 368.442 232.617 378.871 233.367 386.895 237.597C 389.719 234.449 390.536 231.546 389.344 228.902C 382.707 225.589 370.891 224.707 356.719 224.933L 356.719 224.929zM 364.45 234.953C 373.059 235.425 380.727 236.679 386.325 239.679L 380.481 265.015C 375.059 262.937 369.289 261.972 363.887 261.425L 364.45 234.953zM 362.192 235.328C 362.129 244.843 362.067 253.414 362.004 262.933C 367.594 263.625 374.321 264.32 379.352 266.527C 381.485 268.164 378.973 270.687 375.77 270.121C 369.102 268.695 362.442 267.816 355.778 266.91C 355.278 256.445 355.278 245.98 355.778 235.519C 357.914 235.457 360.051 235.394 362.192 235.332L 362.192 235.328zM 259.25 308.941C 263.231 306.066 266.469 302.445 268.969 298.07C 281.149 324.171 297.848 344.613 320 358.238C 318.747 362.734 316.254 367.234 312.524 371.73C 289.778 356.046 272.016 335.113 259.25 308.941zM 270.192 295.875C 271.504 291.847 273.368 291.117 275.786 293.699C 286.711 308.027 295.743 311.675 300.637 291.832C 302.282 293.668 305.391 293.703 308.711 292.765C 315.231 303.66 320.926 314.562 325.793 325.468C 326.567 334.16 325.329 343.867 321.137 355.062C 301.52 343.722 284.84 323.007 270.188 295.878L 270.192 295.875zM 328.774 333.796C 326.418 350.878 322.215 365 314.348 373.269C 324.657 377.367 333.782 386.785 339.286 404.886C 341.914 399.324 343.317 391.57 343.2 385.46C 336.743 377.312 328.844 374.492 320.735 372.441C 325.821 365.07 330.903 357.703 335.989 350.332C 334.411 341.515 332 336.007 328.778 333.8L 328.774 333.796zM 324.653 371.203C 329.047 364.933 333.442 358.668 337.84 352.398C 346.168 352.652 353.813 373.296 344.844 383.191C 339.653 376.398 332.579 373.023 324.649 371.207L 324.653 371.203zM 301.774 475.152C 301.571 454.625 301.368 436.164 301.161 415.636C 301.094 402.273 305.141 388.906 313.317 375.546C 315.786 376.777 318.262 377.949 320.735 380.3C 303.493 403.375 314.075 426.656 308.579 457.793C 303.293 472.324 309.95 481.285 322.59 467.71C 324.786 469.289 327.395 471.289 329.594 472.875C 328.563 480.894 326.157 488.054 320.731 493.336C 317.5 491.679 315.231 488.582 313.11 485.277C 312.907 488.097 314.071 490.644 316.61 492.921C 309.813 496 303.012 497.066 296.207 495.195C 288.434 482.656 291.422 476.664 301.77 475.152L 301.774 475.152zM 322.59 382.152C 328.289 385.625 333.645 393.406 338.25 410.671C 334.516 429.121 329.207 447.043 322.176 464.402C 311.668 477.484 307.204 471.832 310.016 462.336C 315.715 437.742 311.942 432.578 312.899 417.699C 312.164 404.14 315.633 392.394 322.586 382.156L 322.59 382.152zM 332.071 475.359C 329.672 484.652 326.446 491.195 322.387 494.988C 324.325 498.566 327.247 500.839 330.832 502.222C 336.942 497.675 340.032 491.199 340.106 482.796C 337.426 477.609 334.743 476.609 332.071 475.359zM 342.375 483.832C 345.504 484.828 348.454 486.683 351.028 490.445C 344.633 499.957 343.395 504.293 343.61 507.183C 338.871 506.839 334.891 505.46 332.895 503.464C 338.77 498.898 342 492.246 342.375 483.832zM 352.887 491.683C 348.532 498.257 345.715 503.972 346.293 507.8C 351.442 509.105 358.243 508.753 366.696 506.769C 363.024 500.496 358.211 495.742 352.887 491.683zM 251.286 122.843C 255.704 123.535 260.118 123.023 264.539 121.976C 274.278 134.468 287.02 141.734 305.469 137.96C 307.571 138.468 309.805 139.109 311.77 136.609C 311.356 139.281 312.934 141.871 315.043 142.96C 313.016 145.503 311.129 147.761 309.098 150.308C 282.871 155.586 257.075 140.441 251.282 122.847"/>
        <path style="stroke:none; fill-rule:evenodd; fill:#f7adaf" d="M 118.563 89.98C 122.844 89.05 127.563 88.41 133.254 88.406C 132.684 81.859 135.157 77.535 139.727 74.726C 142.875 72.566 147.414 73.558 150.219 70.871C 152.739 69.007 150.114 64.332 145.852 64.738C 143.227 65.261 140.836 66.023 138.68 67.015C 136.582 67.836 135.293 65.273 137.282 64.386C 140.192 63.164 143.223 62.058 147.075 61.757C 149.84 59.625 144.418 53.781 139.559 54.218C 137.633 55.679 135.184 56.789 133.262 58.25C 131.02 59.8 129.321 57.058 131.692 55.269C 133.907 53.226 136.118 52 138.336 50.886C 141.309 49.05 135.426 44.726 131.516 46.156C 130.118 47.382 128.719 48.609 127.321 49.836C 124.407 51.707 123.707 49.375 125.75 48.082C 127.262 46.918 128.778 45.746 130.293 44.574C 130.407 41.566 124.055 40.46 119.629 43.523C 116.227 45.691 115.059 49.136 114.907 53.168C 114.282 62.523 113.106 71.871 117.18 75.086C 118.93 79.472 119.508 86.605 118.579 89.992L 118.563 89.98zM 355.024 268.421C 362.481 269.675 370.032 270.937 375.957 272.199C 376.895 276.105 374.45 283.226 374.829 288.46C 375.262 294.132 378.536 293.941 377.844 302.074C 374.539 311.644 370.895 315.679 367.094 317.199C 364.039 318.296 362.344 316.218 364.645 315.312C 366.086 313.488 367.536 311.656 368.981 309.832C 370.922 305.296 368.352 305.043 366.907 307.941C 365.274 311.214 362.883 314.238 359.739 317.015C 354.27 318.332 351.692 313.355 354.836 312.289C 358.762 309.203 361.469 305.605 363.891 301.511C 366.086 298.359 363.004 298.421 362.192 299.816C 359.926 304.3 357.407 307.984 353.141 310.968C 349.36 313.296 346.219 307.687 349.371 306.621C 352.641 304.164 355.215 301.136 357.481 297.168C 358.801 294.71 357.731 293.511 355.973 295.656C 353.747 299.75 351.043 303.214 347.297 305.296C 345.016 307.062 342.434 306.929 342.961 298.488C 347.586 299.179 350.789 295.652 350.879 291.304C 350.254 286.699 350.637 282.101 352.008 277.5C 346.793 277.058 349.684 281.722 346.539 284.117C 345.411 282.73 344.278 281.343 343.149 279.957C 343.7 275.925 345.391 271.949 355.028 268.421L 355.024 268.421zM 281.063 109.332C 276.942 115.312 271.653 119.164 266.938 121.097C 275.504 133.168 287.965 139.675 304.653 136.644C 303.45 134.386 303.672 132.132 304.543 129.812C 289.344 130.769 282.93 122.89 281.067 109.328L 281.063 109.332zM 283.055 106.414C 283.914 116.359 287.004 123.773 294.082 126.664C 300.704 129 307.539 127.386 314.59 121.836C 322.051 117.96 326.68 112.062 331.215 106.105C 334.598 103.671 335.997 101.23 336.497 98.789C 334.707 92.652 323.524 88.683 319.254 93.339C 314.543 97.543 314.493 101.125 313.043 107.046C 313.157 116.082 300.5 114.07 300.305 106.425C 300.563 103.671 302.735 103.878 302.942 106.269C 302.942 111.769 311.329 112.859 311.02 105.808C 311.793 102.226 312.11 100.511 313.508 96.929C 318.008 87.941 324.579 88.359 330.75 91.011C 333.391 91.945 335.411 93.507 336.809 95.683C 336.289 91.121 336.442 86.707 337.586 82.132C 334.43 83.324 331.528 79.175 329.196 69.984C 319.063 74.726 308.254 76.972 296.883 77.144C 295.383 80.363 292.223 83.586 287.407 86.8C 287.278 93.781 285.676 100.273 283.059 106.425L 283.055 106.414zM 292.532 110.621C 296.454 110.523 299.215 111.722 299.829 112.777C 300.473 113.597 299.645 115.179 302.512 114.914C 303.032 114.586 303.879 115.363 304.164 116.199C 305.059 118.039 304.563 118.613 305.571 119.96C 303.086 119.336 300.868 120.539 298.114 118.714C 297.375 117.847 296.77 117.16 296.098 116.691C 293.106 114.199 293.715 112.644 292.528 110.617L 292.532 110.621zM 311.797 87.253C 311.739 90.488 315.465 90.531 314.747 86.789C 312.571 81.703 306.672 79.734 297.036 80.871C 305.383 81.546 311.758 83.269 311.797 87.257L 311.797 87.253zM 306.454 91.218C 303.899 93.437 299.579 87.648 298.356 85.21C 297.411 84.511 296.254 85.039 296.782 86.472C 297.27 87.703 297.942 88.964 298.461 89.632C 298.977 92.183 299.989 93.48 302.457 94.062C 304.266 94.636 306.899 93.968 308.032 92.484C 309.012 91.71 307.434 90.378 306.454 91.218zM 321.489 99.433C 321.051 102.578 327.813 103.023 330.352 102.742C 331.395 103.121 331.559 104.304 330.161 104.621C 328.946 104.863 327.61 104.976 326.825 104.914C 324.543 105.8 323.012 105.668 321.293 104.023C 319.918 102.894 319.09 100.492 319.684 98.836C 319.797 97.668 321.657 98.222 321.497 99.425"/>
        <path style="stroke:none; fill-rule:evenodd; fill:#ec2a32" d="M 13.8984 382.539C 13.8906 381.507 13.8281 380.511 13.8281 379.472L 13.8281 349.683L 38.1484 349.683L 38.1484 382.543L 13.8984 382.543L 13.8984 382.539zM 529.473 349.668L 529.473 379.468C 529.473 380.503 529.411 381.496 529.403 382.527L 504.789 382.527L 504.789 349.668L 529.477 349.668L 529.473 349.668zM 529.297 387.007C 529.043 398.343 528.239 409.3 526.891 419.867L 503.465 419.867C 502.797 419.32 502.098 418.785 501.379 418.253C 501.805 416.605 501.207 414.617 499.571 412.289C 512.786 411.265 516.313 404.175 518.45 396.21C 503.102 399.488 491.118 399.402 484.051 394.398C 484.36 391.847 484.586 389.382 484.696 387.011L 529.297 387.011L 529.297 387.007zM 526.352 424.308C 524.723 435.726 522.438 446.664 519.61 457.168L 504.789 457.168L 504.789 440.093C 507.918 440.378 510.829 440.019 513.532 439.003C 513.93 433.371 511.829 428.574 508.11 424.316L 526.352 424.316L 526.352 424.308zM 518.332 461.675C 515.016 473.183 511.039 484.152 506.399 494.535L 481.75 494.535C 491.258 487.558 496.586 476.543 497.856 461.675L 518.329 461.675L 518.332 461.675zM 500.375 506.992C 495.848 515.722 490.84 524.003 485.426 531.863L 446.879 531.863L 446.879 503.496C 450.352 503.386 454.055 503.468 457.149 503.054C 463.442 502.421 469 501.066 473.829 499.007L 500.375 499.007L 500.375 506.996L 500.375 506.992zM 482.352 536.332C 480.317 539.144 478.2 541.867 476.059 544.566L 476.059 536.332L 482.352 536.332zM 471.774 549.773C 465.969 556.652 459.809 563.117 453.34 569.191L 418.282 569.191L 418.282 536.332L 471.778 536.332L 471.778 549.773L 471.774 549.773zM 443.172 578.203C 430.094 589.136 415.961 598.586 401.016 606.519L 389.676 606.519L 389.676 573.66L 443.172 573.66L 443.172 578.199L 443.172 578.203zM 392.121 610.988C 382.063 615.836 371.68 620.023 361.071 623.558L 361.071 610.988L 392.121 610.988zM 356.789 624.98C 339.418 630.457 321.461 634.164 303.293 636.175L 303.293 610.988L 356.789 610.988L 356.789 624.98zM 299.012 636.629C 281.239 638.324 263.297 638.367 245.516 636.754L 245.516 610.988L 299.012 610.988L 299.012 636.625L 299.012 636.629zM 241.235 636.304C 223.079 634.382 205.121 630.769 187.739 625.382L 187.739 610.992L 241.235 610.992L 241.235 636.304zM 183.454 623.961C 172.43 620.336 161.645 616.019 151.2 610.992L 183.454 610.992L 183.454 623.961zM 142.309 606.519C 127.61 598.726 113.688 589.449 100.782 578.746L 100.782 573.66L 154.278 573.66L 154.278 606.519L 142.309 606.519zM 89.9766 569.195C 83.5316 563.148 77.3986 556.695 71.6094 549.847L 71.6094 536.336L 114.332 536.336C 114.594 542.718 119.805 546.742 125.102 547.484L 125.102 569.195L 89.9726 569.195L 89.9766 569.195zM 67.3242 544.644C 65.1524 541.937 63.0195 539.171 60.9648 536.332L 67.3242 536.332L 67.3242 544.644zM 57.8867 531.867C 52.2774 523.726 47.0938 515.132 42.4297 506.058L 42.4297 499.011L 65.7578 499.011C 63.125 502.96 62.5977 507.109 63.2266 511.355C 68.3164 509.183 73.3984 507.621 78.4846 510.324C 79.0706 513.98 78.2736 520.523 95.9216 517.046L 95.9216 531.871L 57.8828 531.871L 57.8867 531.867zM 36.9141 494.539C 32.2891 484.148 28.3086 473.183 24.9844 461.679L 51.4063 461.679C 54.0664 473.851 59.6133 484.671 67.3242 491.496L 67.3242 494.539L 36.918 494.539L 36.9141 494.539zM 23.7109 457.203C 20.875 446.71 18.5977 435.765 16.9688 424.343L 38.1484 424.343L 38.1484 457.203L 23.7109 457.203zM 16.418 419.871C 15.0742 409.3 14.2617 398.347 14.0039 387.011L 60.8828 387.011C 61.7031 392.066 62.6016 397.128 65.3086 401.949C 60.3672 407.132 56.6875 413.253 54.1367 419.867L 16.418 419.867L 16.418 419.871zM 424.797 388.503C 430.508 394.605 437.344 402.679 443.059 408.785C 435.286 410.046 428.071 407.511 424.797 397.519C 424.332 393.668 425.262 391.226 424.797 388.503zM 223.731 536.332L 239.442 536.332C 239.829 536.41 240.227 536.48 240.657 536.562L 240.657 552.406C 234.895 553.582 231.84 559.468 230.829 568.918C 233.946 566.289 237.114 564.328 240.657 566.457L 240.657 569.183L 187.161 569.183L 187.161 555.855C 190.547 554.761 194.051 553.457 197.723 551.804C 201.864 550.507 205.657 548.175 209.102 544.804C 214.625 543.937 218.418 541.347 220.481 537.027C 221.563 536.894 222.641 536.664 223.727 536.336L 223.731 536.332zM 216.336 573.66L 254.981 573.66C 256.059 573.882 257.094 574.253 257.985 574.886C 241.286 580.324 242.274 605.308 263.414 604.191C 257.157 588.566 264.227 591.429 269.829 592.253L 269.829 606.519L 216.332 606.519L 216.332 573.66L 216.336 573.66zM 244.942 312.347L 257.231 312.347C 262.723 323.765 269.68 334.757 278.559 345.207L 244.938 345.207L 244.938 312.347L 244.942 312.347zM 234.274 349.675L 269.258 349.675L 269.258 382.535L 264.215 382.535C 253.485 377.437 242.368 371.097 230.918 363.71C 234.891 370.125 237.395 376.406 238.012 382.535L 224.352 382.535C 224.297 382.363 224.239 382.195 224.18 382.023C 227.645 371.402 231.118 360.796 234.278 349.675L 234.274 349.675zM 274.293 387.007L 298.434 387.007L 298.434 394.601C 290.668 392.976 282.614 390.41 274.293 387.007zM 228.719 424.343L 245.614 424.343C 248.543 430.546 248.34 437.656 241.879 442.312C 236.914 445.691 236.637 451.043 247.497 449.355C 253.485 451.16 257.817 453.824 260.438 457.199L 225.668 457.199C 227.871 447.082 232.551 440.238 228.711 424.339L 228.719 424.343zM 244.938 461.675L 262.778 461.675C 263.395 463.695 263.555 465.89 263.231 468.234C 257.051 467.226 250.954 466.785 244.934 466.925L 244.934 461.679L 244.938 461.675zM 296.77 536.332L 298.438 536.332L 298.438 536.722C 298.321 536.816 298.2 536.918 298.082 537.023C 297.641 536.793 297.196 536.558 296.774 536.332L 296.77 536.332zM 298.438 568.191L 298.438 569.191L 294.289 569.191C 294.864 568.48 296.102 568.078 298.438 568.191zM 244.942 552.339L 244.942 537.265C 246.161 537.441 247.485 537.625 248.934 537.8C 249.797 543.804 254.625 546.828 266.52 544.543C 276.782 544.277 280.399 551.882 273.5 557.25C 265.481 549.164 249.879 546.652 249.707 553.617C 247.989 552.968 246.403 552.539 244.938 552.336L 244.942 552.339zM 294.559 573.66L 327.614 573.66L 327.614 606.519L 274.118 606.519L 274.118 591.863C 274.27 591.753 274.414 591.636 274.543 591.488C 286.321 587.886 295.348 579.824 294.559 573.664L 294.559 573.66zM 322.407 312.347L 346.321 312.347C 347.274 313.183 348.805 313.777 350.895 314.125C 350.829 316.886 352.594 318.535 356.211 319.086L 356.211 345.203L 337.696 345.203C 335.754 339.976 333.426 334.406 329.829 328.773C 327.797 323.558 325.371 318.218 322.411 312.347L 322.407 312.347zM 273.543 349.675L 282.504 349.675C 290.36 358.242 299.59 366.418 310.438 374.132C 308.235 376.933 306.434 379.734 304.969 382.531L 273.543 382.531L 273.543 349.671L 273.543 349.675zM 302.715 387.007L 302.907 387.007C 302.84 387.168 302.778 387.328 302.715 387.488L 302.715 387.007zM 345.942 387.007L 356.211 387.007L 356.211 395.699C 352.829 394.746 349.067 394.246 345 394.136C 345.313 391.757 345.625 389.382 345.938 387.007L 345.942 387.007zM 327.039 518.707L 327.039 523.765C 320.664 523.222 313.817 525.992 314.348 531.863L 290.477 531.863C 289.747 531.078 289.247 530.293 289.028 529.503C 292.473 528.726 294.543 526.566 295.231 523.023C 310.871 519.808 320.258 518.757 327.036 518.71L 327.039 518.707zM 356.215 556.793L 356.215 569.191L 335.118 569.191C 342.141 568.066 349.176 565.21 356.215 556.793zM 312.321 569.195L 302.719 569.195L 302.719 568.691C 305.918 568.859 309.118 569.027 312.321 569.195zM 331.895 573.66L 385.391 573.66L 385.391 606.519L 331.895 606.519L 331.895 573.66zM 376.211 312.347L 413.997 312.347L 413.997 345.207L 402.477 345.207C 393.168 335.011 383.86 324.8 374.524 314.519C 375.149 313.839 375.707 313.109 376.215 312.351L 376.211 312.347zM 385.563 345.21L 360.497 345.21L 360.497 319.277C 360.934 319.261 361.387 319.242 361.856 319.203C 369.758 327.875 377.657 336.539 385.559 345.21L 385.563 345.21zM 340.223 349.675L 384.817 349.675L 384.817 382.535L 348.481 382.535C 355.204 371.5 350.161 355.562 340.223 349.675zM 360.493 387.007L 412.821 387.007C 411.637 389.164 411.047 392.386 411.313 396.671C 411.821 401.105 412.723 404.988 413.993 408.371L 413.993 419.859L 373.731 419.859C 373.766 418.429 373.735 416.996 373.664 415.543C 372.297 406.289 367.547 400.453 360.5 397.25L 360.5 387.003L 360.493 387.007zM 373.34 424.343L 384.817 424.343L 384.817 450.668C 383.082 450.101 381.336 449.57 379.559 449.078C 363.891 444.363 350.977 447.675 348.704 457.203L 347.278 457.203C 346.266 452.539 351.868 447.179 360.735 441.472C 369.172 436.511 372.34 430.625 373.34 424.347L 373.34 424.343zM 384.821 518.011L 384.821 531.863L 363.856 531.863C 361.036 526.847 357.047 525.378 351.879 527.429C 344.711 522.656 339.977 524.57 335.586 527.429C 334.5 526.226 333.016 525.312 331.329 524.695L 331.329 518.82C 340.684 519.375 345.321 521.843 360.676 521.207C 371.786 521.668 379.317 520.187 384.825 518.015L 384.821 518.011zM 365.77 536.332L 413.993 536.332L 413.993 569.191L 360.497 569.191L 360.497 550.972C 360.813 550.484 361.129 549.992 361.446 549.472C 364.11 549.902 366.098 552.41 367.391 556.992C 374.454 551.117 374.286 545.586 366.875 540.394C 366.547 538.925 366.176 537.574 365.77 536.332zM 418.274 312.347L 471.77 312.347L 471.77 345.207L 466.805 345.207C 466.774 345.093 466.75 344.98 466.715 344.859C 460.473 328.554 448.512 331 449.129 342.007C 444.829 340.519 441.036 341.582 437.754 345.207L 418.278 345.207L 418.278 312.347L 418.274 312.347zM 389.102 349.675L 389.633 349.675C 399.618 360.628 409.594 371.574 419.582 382.535L 389.102 382.535L 389.102 349.675zM 406.543 349.675L 442.594 349.675L 442.594 356.175C 440.911 355.695 439.309 354.914 437.747 353.937C 437.52 357.257 438.75 360.386 442.594 363.199L 442.594 382.531L 436.555 382.531C 426.543 371.554 416.547 360.625 406.547 349.671L 406.543 349.675zM 440.629 387.007L 455.692 387.007C 456.891 392.668 457.223 398.023 454.614 402.375C 449.95 397.238 445.286 392.117 440.629 387.007zM 421.516 419.871L 418.274 419.871L 418.274 416.308C 419.266 417.621 420.344 418.8 421.516 419.871zM 389.102 424.343L 428.286 424.343C 429.668 424.984 431.137 425.527 432.664 425.972C 433.039 429.714 436.524 432.226 442.594 433.742L 442.594 457.195L 402.563 457.195C 398.106 455.507 393.653 453.742 389.102 452.125L 389.102 424.339L 389.102 424.343zM 418.274 461.675L 459.094 461.675C 453.696 464.121 446.481 465.515 437.727 465.132C 430.84 465.16 424.446 464.097 418.278 462.449L 418.278 461.675L 418.274 461.675zM 442.598 503.8L 442.598 531.863L 411.387 531.863C 413.297 530.539 414.84 528.562 416.539 525.875C 420.672 527.851 426.793 526.386 427.918 521.468C 434.809 519.132 437.918 515.418 437.227 510.32C 441.274 508.933 442.481 506.601 442.399 503.836C 442.465 503.828 442.524 503.816 442.59 503.808L 442.598 503.8zM 400.438 531.867L 389.102 531.867L 389.102 516.003C 389.555 515.753 389.993 515.503 390.418 515.246C 392.473 518.878 397.567 518.878 403.09 518.355C 405.743 522.347 405.102 528.644 400.438 531.867zM 476.055 312.347L 529.551 312.347L 529.551 345.207L 476.055 345.207L 476.055 312.347zM 446.875 349.675L 447.09 349.675C 447.582 349.945 448.094 350.242 448.61 350.562C 448.61 352.546 448.61 354.535 448.61 356.527C 448.024 356.625 447.446 356.679 446.875 356.703L 446.875 349.675zM 468.012 349.675L 500.375 349.675L 500.375 382.535L 484.758 382.535C 484.575 369.808 480.614 360.558 470.082 357.308C 469.395 354.765 468.7 352.218 468.016 349.675L 468.012 349.675zM 454.614 382.539L 446.879 382.539L 446.879 365.679C 448.157 366.277 449.59 366.867 451.2 367.425C 451.661 372.238 453.27 377.429 454.614 382.535L 454.614 382.539zM 500.375 439.308L 500.375 457.199L 498.098 457.199C 498.274 451.398 497.911 445.07 496.985 438.218C 498.141 438.652 499.27 439.015 500.379 439.304L 500.375 439.308zM 465.879 457.203L 446.879 457.203L 446.879 434.586C 451.141 435.234 456.274 435.546 462.168 435.558C 471.907 442.011 472.461 450.859 465.875 457.203L 465.879 457.203zM 500.938 286.132L 529.473 286.132L 529.473 308.324L 500.938 308.324L 500.938 286.132zM 417.942 286.132L 457.336 286.132L 457.336 308.324L 417.942 308.324L 417.942 286.132zM 344.395 308.328L 334.95 308.328L 334.95 290.023C 336.895 292.136 338.836 294.261 340.786 296.378C 338.668 302.296 339.868 307.222 344.395 308.324L 344.395 308.328zM 168.957 286.132L 175.461 286.132C 175.379 286.343 175.301 286.554 175.219 286.765C 175.645 290.57 178.227 294.113 182.2 294.285C 182.114 298.964 182.016 303.636 181.938 308.316L 168.957 308.316L 168.957 286.125L 168.957 286.132zM 85.9646 286.132L 125.36 286.132L 125.36 308.324L 85.9646 308.324L 85.9646 286.132zM 13.8281 286.132L 42.3633 286.132L 42.3633 308.324L 13.8281 308.324L 13.8281 286.132zM 13.8281 312.347L 67.3242 312.347L 67.3242 345.207L 13.8281 345.207L 13.8281 312.347zM 71.6055 312.347L 125.102 312.347L 125.102 345.207L 71.6055 345.207L 71.6055 312.347zM 42.4297 349.675L 95.9256 349.675L 95.9256 382.535L 75.4646 382.535C 70.4453 369.382 68.7617 349.273 42.4336 356.644L 42.4336 349.679L 42.4297 349.675zM 60.1133 382.539L 42.4336 382.539L 42.4336 358.421C 55.6055 365.355 58.5039 373.824 60.1133 382.539zM 77.5116 387.007L 84.7426 387.007C 82.7736 387.632 80.8556 388.367 79.0036 389.203C 78.4646 388.543 77.9726 387.804 77.5156 387.007L 77.5116 387.007zM 114.172 387.007L 125.098 387.007L 125.098 394.277C 122.008 390.968 118.282 388.589 114.172 387.007zM 103.465 419.871L 94.0666 419.871C 90.5156 417.953 87.0976 414.726 85.5156 411.894C 92.7036 403.808 105.782 406.539 105.129 414.187C 105.043 416.867 104.43 418.699 103.469 419.871L 103.465 419.871zM 42.4297 424.343L 52.5938 424.343C 49.3984 434.929 48.8672 446.445 50.5547 457.203L 42.4297 457.203L 42.4297 424.343zM 95.9296 447.308L 95.9296 457.203L 77.9496 457.203C 74.7066 449.527 73.4883 439.941 74.8706 428.628C 79.8946 437.406 87.6606 443.886 95.9296 447.308zM 80.1876 461.675L 118.465 461.675C 116.657 466.261 115.297 472.062 114.442 478.933C 99.4376 479.437 87.0666 473.375 80.1916 461.675L 80.1876 461.675zM 129.383 312.347L 181.875 312.347C 181.715 323.3 181.621 334.25 181.731 345.207L 129.383 345.207L 129.383 312.347zM 100.207 349.675L 153.704 349.675L 153.704 382.535L 100.207 382.535L 100.207 349.675zM 129.379 387.007L 181.532 387.007C 180.922 394.933 181.297 402.226 182.871 408.757L 182.871 419.867L 133.836 419.867C 133.84 419.253 133.844 418.632 133.836 417.992C 133.539 410.804 131.93 404.937 129.383 400.238L 129.383 387.011L 129.379 387.007zM 133.602 424.343L 153.704 424.343L 153.704 457.203L 144.805 457.203C 134.606 446.632 126.145 447.543 120.586 457.203L 100.211 457.203L 100.211 448.789C 115.664 453.128 131.504 446.605 133.602 424.347L 133.602 424.343zM 148.563 461.675L 182.875 461.675L 182.875 478.648C 175.282 479.828 167.899 482.035 161.77 485.414C 159.235 477.496 154.282 469.589 148.567 461.671L 148.563 461.675zM 153.707 520.343L 153.707 521.339C 153.473 521.121 153.231 520.906 152.981 520.687C 153.223 520.574 153.461 520.453 153.707 520.343zM 114.637 531.867L 100.211 531.867L 100.211 516.089C 100.637 515.988 101.067 515.882 101.508 515.769C 108.489 513.898 113.59 519.425 114.633 531.871L 114.637 531.867zM 160.895 536.332L 177.039 536.332C 171.168 544.847 169.239 552.753 169.274 560.363C 173.747 559.425 178.227 558.457 182.879 557.156L 182.879 569.191L 129.383 569.191L 129.383 547.332C 131.918 546.757 134.133 545.269 135.387 542.734C 145.137 542.386 149.012 546.535 147.024 555.179C 151.34 552.195 152.801 546.836 152.973 540.398C 155.477 542.203 156.766 544.628 157.883 547.14C 159.836 543.347 160.832 539.746 160.883 536.332L 160.895 536.332zM 158.559 573.66L 212.055 573.66L 212.055 606.519L 158.559 606.519L 158.559 573.66zM 240.661 323.753L 240.661 345.207L 235.524 345.207C 237.399 338.316 239.133 331.207 240.661 323.753zM 157.985 349.675L 181.778 349.675C 181.911 358.875 182.204 368.074 182.715 377.273C 182.43 379.054 182.18 380.8 181.973 382.531L 157.985 382.531L 157.985 349.671L 157.985 349.675zM 225.743 387.007L 238.118 387.007C 237.672 394.867 233.825 402.437 225.586 409.632C 228.223 404.418 228.571 397.144 225.743 387.007zM 240.657 417.406L 240.657 419.871L 227.481 419.871C 226.75 417.5 225.852 414.949 224.743 412.175C 230.039 410.355 236.121 412.937 240.657 417.406zM 157.985 424.343L 184.918 424.343C 185.133 426.632 185.864 428.839 187.114 430.96C 185.274 433.742 186.262 443.441 188.454 457.199L 157.981 457.199L 157.981 424.339L 157.985 424.343zM 187.161 461.675L 189.192 461.675C 190.016 466.628 190.965 472.015 191.961 477.722C 190.368 477.804 188.762 477.925 187.157 478.093L 187.157 461.671L 187.161 461.675zM 224.926 461.675L 240.657 461.675L 240.657 467.121C 235.286 467.492 229.981 468.336 224.743 469.64C 224.559 466.679 224.649 464.066 224.922 461.675L 224.926 461.675zM 180.446 531.867L 160.387 531.867C 159.914 529.964 159.118 528.136 157.989 526.367L 157.989 518.75C 166.551 516.199 176.774 516.765 188.672 520.429C 183.497 522.75 181.946 526.902 180.914 531.32C 180.758 531.5 180.602 531.679 180.45 531.863"/>
    </g>
</svg>